<svg width="13" height="13" viewBox="0 0 13 13" fill="none" xmlns="http://www.w3.org/2000/svg">
<g clip-path="url(#clip0_73_759)">
<path d="M6.5 0.5C3.20447 0.5 0.5 3.20447 0.5 6.5C0.5 7.58765 0.793243 8.64645 1.34933 9.57278L0.5 12.5L3.42722 11.6507C4.35355 12.2068 5.41235 12.5 6.5 12.5C9.79553 12.5 12.5 9.79553 12.5 6.5C12.5 3.20447 9.79553 0.5 6.5 0.5ZM10.2513 9.03519L9.97214 9.31433C9.57718 9.70929 8.66888 9.67798 8.08524 9.56528C6.14459 9.19046 3.88205 6.99741 3.44571 5.09824C3.22964 4.15744 3.34894 3.33951 3.66095 3.0274L3.94009 2.74826C4.09418 2.59427 4.34448 2.59445 4.49838 2.74826L5.61514 3.86511C5.68967 3.93964 5.7305 4.03842 5.7305 4.14417C5.7305 4.24991 5.68967 4.34879 5.61514 4.42303L5.33609 4.70245C5.02847 5.0108 5.02847 5.51169 5.33609 5.81931L7.18024 7.63919C7.48877 7.94772 7.9881 7.94809 8.29709 7.63919L8.57623 7.36014C8.72034 7.21521 8.9895 7.21475 9.1348 7.36014L10.2513 8.47662C10.4029 8.62759 10.4087 8.87772 10.2513 9.03519Z" fill="white"/>
</g>
<defs>
<clipPath id="clip0_73_759">
<rect width="12" height="12" fill="white" transform="translate(0.5 0.5)"/>
</clipPath>
</defs>
</svg>
