<svg width="104" height="104" viewBox="0 0 104 104" fill="none" xmlns="http://www.w3.org/2000/svg">
<path d="M11.3 61.1996C9.4 61.1996 8.5 61.9996 8.1 63.0996H4.7C5.2 60.4996 7.5 58.2996 11.4 58.2996C15.3 58.2996 17.9 60.3996 17.9 64.0996V74.5996H14.6V72.7996C13.5 74.1996 11.7 74.9996 9.6 74.9996C6.5 74.9996 4 73.0996 4 69.9996C4 66.7996 6.4 64.8996 10.4 64.8996H14.3V63.9996C14.4 62.0996 13.1 61.1996 11.3 61.1996ZM14.4 68.5996V67.5996H10.8C9 67.5996 7.7 68.3996 7.7 69.7996C7.7 71.1996 8.8 71.9996 10.4 71.9996C12.6 72.0996 14.4 70.6996 14.4 68.5996Z" fill="#947D66"/>
<path d="M21.4004 71.7996L29.7004 61.6996H21.4004V58.5996H34.2004V61.3996L25.9004 71.4996H34.2004V74.5996H21.4004V71.7996Z" fill="#947D66"/>
<path d="M41.9 53.7996C41.9 55.0996 40.9 55.9996 39.7 55.9996C38.5 55.9996 37.5 55.0996 37.5 53.7996C37.5 52.5996 38.5 51.5996 39.7 51.5996C40.9 51.6996 41.9 52.5996 41.9 53.7996ZM41.4 74.5996H37.8V58.5996H41.4V74.5996Z" fill="#947D66"/>
<path d="M69.2992 64.3V74.6H65.6992V64.9C65.6992 62.5 64.2992 61.4 62.5992 61.4C60.8992 61.4 59.2992 62.6 59.2992 64.9V74.5H55.6992V64.8C55.6992 62.4 54.2992 61.3 52.5992 61.3C50.8992 61.3 49.2992 62.5 49.2992 64.8V74.4H45.6992V58.4H49.1992V60.3C50.0992 58.9 51.7992 58 53.6992 58C55.4992 58 57.2992 58.8 58.3992 60.6C59.3992 59.1 61.3992 58 63.5992 58C66.4992 58.2 69.2992 60 69.2992 64.3Z" fill="#947D66"/>
<path d="M84.0004 74.5996V72.7996C83.2004 73.8996 81.6004 74.9996 79.3004 74.9996C76.2004 74.9996 73.4004 73.1996 73.4004 68.7996V58.5996H77.0004V68.0996C77.0004 70.5996 78.3004 71.7996 80.3004 71.7996C82.1004 71.7996 83.9004 70.6996 83.9004 67.8996V58.5996H87.5004V74.5996H84.0004Z" fill="#947D66"/>
<path d="M98.5996 71.4994H99.5996V74.5994H97.9996C94.4996 74.5994 92.6996 73.0994 92.6996 69.3994V61.5994H90.0996V58.5994H92.6996V54.3994H96.2996V58.5994H99.5996V61.5994H96.2996V69.0994C96.2996 71.0994 97.2996 71.4994 98.5996 71.4994Z" fill="#947D66"/>
<path d="M52.3 24.9C53.9 24.9 55.5 25 57 25.1C56.8 17.5 55.4 13.4 54.4 13.4C53.7 13.4 52.7 15.3 52.1 19.6C52.1 19.9 51.8 20.1 51.5 20.1C51.3 20.1 51.2 20 51.1 19.9C51 19.8 50.9 19.6 51 19.4C51.4 16.7 52.1 14.5 52.8 13.1C52.8 13 52.9 13 52.9 13C52.6 13 52.3 13 52 13C44.6 13 38.5 19 38.5 26.5C38.5 26.6 38.5 26.7 38.5 26.9C38.6 26.9 38.6 26.9 38.7 26.8C41.3 25.6 46.6 24.9 52.3 24.9Z" fill="#947D66"/>
<path d="M56.6992 32.3998C56.5992 32.2998 56.4992 32.2998 56.3992 32.2998C55.0992 32.3998 53.6992 32.3998 52.2992 32.3998C47.1992 32.3998 42.2992 31.7998 39.3992 30.8998C39.2992 30.8998 39.2992 30.8998 39.1992 30.7998C40.9992 36.0998 45.9992 39.7998 51.8992 39.7998C53.1992 39.7998 54.3992 39.5998 55.5992 39.2998C55.9992 38.0998 56.6992 34.7998 56.7992 32.5998C56.7992 32.5998 56.6992 32.4998 56.6992 32.3998Z" fill="#947D66"/>
<path d="M52.5004 26C44.2004 26 39.9004 27.4 39.9004 28.1C39.9004 28.8 44.2004 30.2 52.5004 30.2C53.8004 30.2 55.1004 30.2 56.3004 30.1C56.7004 30.1 57.0004 29.8 57.0004 29.4C57.0004 28.6 57.0004 27.7 57.0004 26.9C57.0004 26.6 57.0004 26.4 57.0004 26.1C55.6004 26.1 54.0004 26 52.5004 26Z" fill="#947D66"/>
<path d="M64.5 30.9004C63.2 31.3004 61.4 31.8004 60 32.0004C59.7 32.0004 59.4 32.3004 59.4 32.6004C59.3 34.2004 58.9 36.6004 58.5 38.0004C61.3 36.5004 63.5 34.0004 64.5 30.9004Z" fill="#947D66"/>
<path d="M59.5992 29.3998C59.5992 29.4998 59.5992 29.5998 59.6992 29.6998C59.7992 29.7998 59.8992 29.7998 59.9992 29.7998C62.0992 29.4998 64.0992 29.0998 65.0992 28.5998C65.1992 27.8998 65.2992 27.1998 65.2992 26.3998C65.2992 25.9998 65.2992 25.5998 65.1992 25.2998C65.1992 25.1998 65.1992 25.0998 65.1992 24.9998C65.1992 24.5998 65.0992 24.2998 64.9992 23.8998C64.9992 23.6998 64.8992 23.5998 64.8992 23.3998C64.6992 22.6998 64.4992 21.9998 64.1992 21.2998C64.1992 21.2998 64.1992 21.2998 64.1992 21.1998C62.8992 18.1998 60.5992 15.7998 57.6992 14.2998C58.9992 17.2998 59.5992 22.3998 59.5992 27.5998C59.5992 28.1998 59.5992 28.7998 59.5992 29.3998Z" fill="#947D66"/>
<path d="M39.5 84.2H40.5V90.4999H39.5V87.7H36.5V90.4999H35.5V84.2H36.5V86.8999H39.5V84.2Z" fill="#947D66"/>
<path d="M42.3996 89.7C41.8996 89.1 41.5996 88.3 41.5996 87.3C41.5996 86.3 41.8996 85.5 42.3996 84.9C42.8996 84.3 43.5996 84 44.4996 84C45.3996 84 46.0996 84.3 46.5996 84.9C47.0996 85.5 47.3996 86.3 47.3996 87.3C47.3996 88.3 47.0996 89.1 46.5996 89.7C46.0996 90.3 45.3996 90.6 44.4996 90.6C43.5996 90.6 42.8996 90.3 42.3996 89.7ZM43.0996 85.6C42.7996 86.1 42.5996 86.6 42.5996 87.4C42.5996 88.1 42.7996 88.7 43.0996 89.2C43.3996 89.7 43.8996 89.9 44.4996 89.9C45.0996 89.9 45.5996 89.7 45.8996 89.2C46.1996 88.7 46.3996 88.2 46.3996 87.4C46.3996 86.7 46.1996 86.1 45.8996 85.6C45.5996 85.1 45.0996 84.9 44.4996 84.9C43.8996 84.9 43.4996 85.1 43.0996 85.6Z" fill="#947D66"/>
<path d="M47.8008 85.0002V84.2002H52.7008V85.0002H50.7008V90.5002H49.7008V85.0002H47.8008Z" fill="#947D66"/>
<path d="M53.6992 90.5002V84.2002H58.0992V85.0002H54.6992V86.9002H57.2992V87.7002H54.6992V89.7002H58.0992V90.5002H53.6992Z" fill="#947D66"/>
<path d="M59.3008 90.5002V84.2002H60.3008V89.7002H63.3008V90.5002H59.3008Z" fill="#947D66"/>
<path d="M63.8008 88.4996H64.7008C64.7008 89.3996 65.3008 89.7996 66.3008 89.7996C66.7008 89.7996 67.0008 89.6996 67.3008 89.5996C67.6008 89.4996 67.7008 89.1996 67.7008 88.8996C67.7008 88.6996 67.6008 88.4996 67.5008 88.2996C67.4008 88.0996 67.1008 87.9996 66.7008 87.8996L65.4008 87.4996C64.5008 87.1996 64.0008 86.6996 64.0008 85.7996C64.0008 85.1996 64.2008 84.7996 64.6008 84.4996C65.0008 84.1996 65.5008 84.0996 66.2008 84.0996C66.9008 84.0996 67.4008 84.2996 67.9008 84.5996C68.3008 84.8996 68.6008 85.3996 68.6008 85.9996L67.7008 86.0996C67.7008 85.6996 67.5008 85.4996 67.3008 85.2996C67.1008 85.0996 66.7008 84.9996 66.3008 84.9996C65.9008 84.9996 65.7008 85.0996 65.4008 85.1996C65.2008 85.3996 65.1008 85.5996 65.1008 85.7996C65.1008 86.1996 65.4008 86.4996 66.0008 86.6996L67.3008 87.0996C67.8008 87.2996 68.2008 87.4996 68.4008 87.6996C68.6008 87.8996 68.8008 88.2996 68.8008 88.7996C68.8008 89.3996 68.6008 89.7996 68.2008 90.1996C67.8008 90.4996 67.2008 90.5996 66.4008 90.5996C65.6008 90.5996 65.0008 90.3996 64.6008 90.0996C64.0008 89.6996 63.8008 89.1996 63.8008 88.4996Z" fill="#947D66"/>
</svg>
