<svg width="96" height="29" viewBox="0 0 96 29" fill="none" xmlns="http://www.w3.org/2000/svg">
<path d="M42.0729 8.84391H44.414C44.5828 8.8513 44.7512 8.82106 44.9068 8.75537C45.0625 8.68969 45.2016 8.59021 45.3141 8.46413C45.553 8.17183 45.6736 7.80057 45.6522 7.42365C45.6742 7.04666 45.5534 6.67522 45.3141 6.38316C45.2016 6.25709 45.0625 6.1576 44.9068 6.09192C44.7512 6.02623 44.5828 5.99599 44.414 6.00338H42.0729V8.84391ZM40.377 13.4689V4.36982H44.4817C44.8678 4.35282 45.253 4.41827 45.6118 4.56179C45.9707 4.70532 46.2948 4.92364 46.5626 5.20221C47.1041 5.81374 47.3842 6.61312 47.343 7.42885C47.3828 8.24778 47.0987 9.04947 46.5522 9.66069C46.2844 9.93926 45.9603 10.1576 45.6014 10.3011C45.2426 10.4446 44.8573 10.5101 44.4713 10.4931H42.0729V13.4897L40.377 13.4689Z" fill="#947D66"/>
<path d="M50.4077 4.37012H48.7793V13.49H50.4077V4.37012Z" fill="#947D66"/>
<path d="M52.1707 10.8213V6.84668H53.7991V10.6913C53.7873 10.8868 53.8156 11.0826 53.8823 11.2667C53.949 11.4508 54.0527 11.6194 54.1869 11.762C54.3212 11.9045 54.4831 12.0182 54.6629 12.0958C54.8427 12.1735 55.0365 12.2135 55.2323 12.2135C55.4282 12.2135 55.6219 12.1735 55.8017 12.0958C55.9815 12.0182 56.1435 11.9045 56.2777 11.762C56.412 11.6194 56.5156 11.4508 56.5823 11.2667C56.649 11.0826 56.6774 10.8868 56.6656 10.6913V6.84668H58.2939V13.4902H56.7956L56.6656 12.8399H56.598C56.4709 12.9913 56.3218 13.1228 56.1557 13.2301C55.6494 13.5407 55.0531 13.6716 54.4632 13.6018C53.8733 13.5319 53.3241 13.2653 52.9042 12.8451C52.4017 12.294 52.138 11.5664 52.1707 10.8213Z" fill="#947D66"/>
<path d="M59.5312 11.4708H61.092C61.1017 11.5867 61.1382 11.6988 61.1987 11.7981C61.2592 11.8974 61.342 11.9813 61.4405 12.0431C61.7188 12.2415 62.0566 12.3388 62.3978 12.3188C63.2198 12.3188 63.6359 12.0795 63.6359 11.6009C63.6403 11.5099 63.6249 11.4191 63.5908 11.3347C63.5567 11.2502 63.5046 11.1742 63.4383 11.1119C63.2273 10.9619 62.9787 10.8736 62.7203 10.8569L61.6798 10.6905C60.2509 10.4512 59.5347 9.81993 59.5312 8.79678C59.5314 8.50955 59.5988 8.22635 59.728 7.96981C59.8572 7.71327 60.0445 7.49049 60.2752 7.31929C60.8768 6.88063 61.6132 6.66706 62.3561 6.71581C62.7329 6.69117 63.1108 6.74147 63.468 6.86381C63.8252 6.98615 64.1546 7.17809 64.4371 7.42854C64.641 7.60668 64.8076 7.82345 64.9273 8.06633C65.0469 8.30921 65.1173 8.57338 65.1342 8.8436H63.5735C63.5674 8.72592 63.5335 8.61136 63.4748 8.50921C63.416 8.40706 63.334 8.32022 63.2354 8.25573C62.9725 8.07156 62.6559 7.98005 62.3353 7.99561C62.0303 7.97702 61.7275 8.0573 61.4717 8.22451C61.379 8.28388 61.3024 8.36533 61.2488 8.46157C61.1952 8.55781 61.1664 8.66584 61.1648 8.77597C61.1648 9.09852 61.4665 9.29621 62.0752 9.38986L63.1833 9.56154C64.5706 9.76964 65.2643 10.4425 65.2643 11.5801C65.2681 11.8677 65.2014 12.1518 65.0698 12.4076C64.9383 12.6634 64.7461 12.883 64.51 13.0472C63.8831 13.4672 63.1351 13.6684 62.3822 13.6194C61.9606 13.6258 61.5408 13.5643 61.1388 13.4373C60.8335 13.3483 60.5489 13.1998 60.3012 13.0003C60.1112 12.8353 59.9495 12.6402 59.8226 12.4229C59.713 12.2503 59.6289 12.0628 59.5729 11.8662C59.536 11.7376 59.5167 11.6046 59.5156 11.4708" fill="#947D66"/>
<path d="M40.9648 21.0335H44.0239C44.3032 21.0463 44.5822 21.0007 44.8429 20.8994C45.1036 20.7982 45.3403 20.6436 45.5378 20.4456C45.7323 20.2367 45.8831 19.991 45.9814 19.723C46.0796 19.455 46.1234 19.17 46.11 18.8849C46.1222 18.5999 46.0779 18.3152 45.9797 18.0474C45.8815 17.7795 45.7313 17.5337 45.5378 17.3242C45.3393 17.1279 45.1023 16.9748 44.8417 16.8745C44.5812 16.7742 44.3027 16.7289 44.0239 16.7415H40.9648V21.0335ZM40.377 25.2683V16.1276H44.0187C44.3744 16.1158 44.7288 16.1771 45.0599 16.3077C45.391 16.4384 45.6917 16.6356 45.9435 16.8872C46.1945 17.1497 46.3901 17.46 46.5188 17.7996C46.6475 18.1392 46.7066 18.5012 46.6927 18.8641C46.7071 19.2262 46.6482 19.5876 46.5195 19.9264C46.3907 20.2653 46.1948 20.5746 45.9435 20.8358C45.6922 21.0883 45.3916 21.2865 45.0605 21.418C44.7294 21.5496 44.3748 21.6117 44.0187 21.6006H43.0458L46.8904 25.2422H46.11L42.2654 21.6006H40.9648V25.2422L40.377 25.2683Z" fill="#947D66"/>
<path d="M47.9972 21.684H52.8199C52.7917 21.0085 52.5243 20.365 52.0655 19.8684C51.6177 19.447 51.026 19.2123 50.4111 19.2123C49.7963 19.2123 49.2045 19.447 48.7568 19.8684C48.2965 20.3645 48.0273 21.0079 47.9972 21.684ZM52.5441 23.4477H53.132C53.0229 23.8024 52.8462 24.1327 52.6118 24.4205C52.3487 24.7462 52.0119 25.0047 51.6293 25.1748C51.2467 25.3448 50.8292 25.4215 50.4111 25.3986C50.0049 25.4069 49.6017 25.3265 49.2297 25.1629C48.8577 24.9994 48.5259 24.7567 48.2573 24.4517C47.6713 23.7699 47.3696 22.8889 47.4145 21.991C47.3696 21.093 47.6713 20.2121 48.2573 19.5302C48.534 19.2375 48.8675 19.0044 49.2374 18.845C49.6073 18.6857 50.0058 18.6035 50.4085 18.6035C50.8113 18.6035 51.2098 18.6857 51.5797 18.845C51.9496 19.0044 52.2831 19.2375 52.5597 19.5302C53.1476 20.2113 53.4512 21.0923 53.4077 21.991V22.2511H47.9972C48.0237 22.945 48.2925 23.6076 48.7568 24.124C48.9685 24.349 49.2252 24.5269 49.5103 24.6461C49.7953 24.7653 50.1023 24.8232 50.4111 24.8159C50.7229 24.8227 51.0327 24.7658 51.3217 24.6486C51.6107 24.5314 51.8726 24.3564 52.0915 24.1344C52.286 23.9341 52.4444 23.7018 52.5597 23.4477" fill="#947D66"/>
<path d="M54.3809 23.3802H54.9687C54.9727 23.5763 55.0217 23.7687 55.1119 23.9428C55.2021 24.1169 55.3311 24.268 55.489 24.3843C55.8795 24.6859 56.3644 24.8389 56.8572 24.8161C57.3372 24.8438 57.8133 24.7161 58.215 24.4519C58.3386 24.3607 58.4427 24.2457 58.5213 24.1137C58.5998 23.9817 58.6513 23.8353 58.6726 23.6832C58.6939 23.5311 58.6847 23.3763 58.6454 23.2278C58.6062 23.0792 58.5377 22.9401 58.444 22.8184C58.2207 22.6183 57.9407 22.4928 57.6428 22.4594L56.0821 22.1316C55.6415 22.062 55.2309 21.8649 54.9011 21.5646C54.6297 21.2554 54.4913 20.8515 54.5161 20.4409C54.5182 20.194 54.5759 19.9507 54.6849 19.7291C54.7938 19.5076 54.9513 19.3134 55.1456 19.1611C55.615 18.7913 56.2035 18.6063 56.8 18.6408C57.4377 18.6084 58.064 18.8184 58.5532 19.2287C58.7611 19.4042 58.9276 19.6234 59.041 19.8707C59.1543 20.118 59.2116 20.3873 59.2087 20.6594H58.6208C58.6262 20.4608 58.5858 20.2638 58.5028 20.0833C58.4198 19.9029 58.2964 19.744 58.1422 19.6189C57.7573 19.3284 57.2814 19.1845 56.8 19.2131C56.3575 19.1875 55.9194 19.3122 55.5566 19.5668C55.4166 19.668 55.3026 19.8009 55.224 19.9546C55.1453 20.1084 55.1042 20.2786 55.104 20.4513C55.0841 20.7234 55.1719 20.9924 55.3485 21.2004C55.5724 21.3986 55.8524 21.5222 56.1497 21.5542L57.7104 21.8819C58.1514 21.9504 58.5622 22.1477 58.8914 22.449C59.1641 22.7595 59.3025 23.1655 59.2763 23.5779C59.2759 23.829 59.2175 24.0765 59.1056 24.3012C58.9937 24.5259 58.8313 24.7217 58.6312 24.8733C58.1196 25.2461 57.4945 25.43 56.8624 25.3936C56.2154 25.4171 55.5823 25.2024 55.0832 24.7901C54.8689 24.6211 54.6951 24.4063 54.5744 24.1615C54.4538 23.9166 54.3895 23.6479 54.3861 23.375" fill="#947D66"/>
<path d="M60.5722 18.7547H61.1601V25.2682H60.5722V18.7547ZM60.5098 16.3408H61.2225V17.0588H60.5098V16.3408Z" fill="#947D66"/>
<path d="M63.7201 24.0564C63.93 24.2936 64.1879 24.4835 64.4766 24.6136C64.7654 24.7436 65.0785 24.8109 65.3953 24.8109C65.712 24.8109 66.0251 24.7436 66.3139 24.6136C66.6027 24.4835 66.8605 24.2936 67.0704 24.0564C67.5418 23.4827 67.7812 22.7533 67.7416 22.0119C67.7812 21.2704 67.5418 20.541 67.0704 19.9673C66.8605 19.7302 66.6027 19.5403 66.3139 19.4102C66.0251 19.2801 65.712 19.2129 65.3953 19.2129C65.0785 19.2129 64.7654 19.2801 64.4766 19.4102C64.1879 19.5403 63.93 19.7302 63.7201 19.9673C63.2487 20.541 63.0093 21.2704 63.049 22.0119C63.0093 22.7533 63.2487 23.4827 63.7201 24.0564ZM67.882 25.2686L67.752 23.968H67.6843C67.5647 24.2405 67.3872 24.4837 67.1641 24.6807C66.9236 24.92 66.6365 25.1073 66.3206 25.2308C66.0046 25.3543 65.6666 25.4114 65.3276 25.3987C64.9385 25.4034 64.5533 25.3208 64.2004 25.157C63.8474 24.9931 63.5357 24.7521 63.2883 24.4518C62.7137 23.7663 62.4184 22.8897 62.4611 21.9963C62.4184 21.1029 62.7137 20.2262 63.2883 19.5407C63.5385 19.2447 63.851 19.0077 64.2036 18.8467C64.5562 18.6857 64.9401 18.6047 65.3276 18.6095C65.6662 18.6003 66.0031 18.6592 66.3186 18.7825C66.634 18.9058 66.9215 19.0911 67.1641 19.3274C67.3804 19.5305 67.5568 19.7723 67.6843 20.0402H67.752V16.1279H68.3346V25.2686H67.882Z" fill="#947D66"/>
<path d="M70.2803 21.6837H75.103C75.0729 21.0076 74.8037 20.3642 74.3434 19.8681C73.8956 19.4467 73.3039 19.212 72.689 19.212C72.0742 19.212 71.4824 19.4467 71.0347 19.8681C70.5759 20.3647 70.3085 21.0082 70.2803 21.6837ZM74.8428 23.4474H75.4359C75.3271 23.8023 75.1504 24.1327 74.9157 24.4202C74.6509 24.7453 74.3132 25.0034 73.9299 25.1733C73.5466 25.3433 73.1286 25.4204 72.7098 25.3983C72.3009 25.4096 71.8944 25.3306 71.5195 25.167C71.1445 25.0033 70.8102 24.759 70.5404 24.4514C69.9651 23.7725 69.6694 22.9003 69.7133 22.0115C69.6697 21.1128 69.9734 20.2318 70.5613 19.5507C70.8379 19.2581 71.1714 19.0249 71.5413 18.8656C71.9112 18.7062 72.3097 18.624 72.7125 18.624C73.1152 18.624 73.5137 18.7062 73.8836 18.8656C74.2535 19.0249 74.587 19.2581 74.8637 19.5507C75.4497 20.2326 75.7514 21.1135 75.7064 22.0115V22.2716H70.2803C70.3049 22.9649 70.5719 23.6276 71.0347 24.1445C71.2488 24.3649 71.5065 24.5385 71.7913 24.654C72.0761 24.7695 72.3818 24.8246 72.689 24.8156C73.0053 24.8273 73.3205 24.7727 73.6143 24.6554C73.9082 24.538 74.1743 24.3604 74.3954 24.1341C74.5932 23.9354 74.7535 23.7028 74.8689 23.4474" fill="#947D66"/>
<path d="M76.9961 25.2687V18.7552H77.4487L77.584 19.7957H77.6464C77.7723 19.5746 77.936 19.3774 78.1302 19.213C78.5729 18.8251 79.144 18.6155 79.7326 18.6252C80.0796 18.6147 80.425 18.6768 80.7467 18.8076C81.0683 18.9384 81.359 19.135 81.6002 19.3847C81.8491 19.6483 82.0426 19.959 82.1695 20.2985C82.2964 20.638 82.354 20.9995 82.339 21.3616V25.2687H81.7511V21.3616C81.7774 20.7876 81.5754 20.2265 81.1892 19.8009C81.0016 19.6057 80.7748 19.4525 80.5238 19.3512C80.2727 19.2498 80.0031 19.2028 79.7326 19.213C79.4479 19.2036 79.1643 19.2528 78.8993 19.3574C78.6344 19.4621 78.3938 19.62 78.1923 19.8214C77.9909 20.0228 77.833 20.2635 77.7283 20.5284C77.6237 20.7933 77.5746 21.0769 77.584 21.3616V25.2687H76.9961Z" fill="#947D66"/>
<path d="M88.7179 23.12H89.3058C89.1959 23.5273 89.0202 23.9139 88.7856 24.2645C88.5482 24.6364 88.2155 24.9378 87.822 25.1372C87.4285 25.3367 86.9888 25.427 86.5485 25.3987C86.1458 25.4039 85.7466 25.3221 85.3784 25.1586C85.0103 24.9952 84.6818 24.7541 84.4155 24.4518C83.8295 23.77 83.5278 22.889 83.5727 21.9911C83.5278 21.0931 83.8295 20.2122 84.4155 19.5303C84.686 19.2291 85.0187 18.9903 85.3906 18.8304C85.7625 18.6706 86.1647 18.5934 86.5693 18.6043C87.0035 18.5884 87.4347 18.6814 87.8237 18.875C88.2126 19.0685 88.5469 19.3565 88.796 19.7124C89.0408 20.0438 89.2176 20.4204 89.3162 20.8205H88.7284C88.6405 20.5268 88.4994 20.2517 88.3122 20.0089C88.1099 19.744 87.847 19.5315 87.5455 19.3894C87.244 19.2473 86.9128 19.1796 86.5797 19.1922C86.2531 19.1817 85.9283 19.244 85.6287 19.3745C85.3291 19.5049 85.0622 19.7003 84.8473 19.9465C84.3704 20.5177 84.127 21.248 84.1658 21.9911C84.127 22.7342 84.3704 23.4645 84.8473 24.0356C85.0619 24.2825 85.3286 24.4787 85.6282 24.61C85.9278 24.7414 86.2528 24.8046 86.5797 24.7952C86.9155 24.8041 87.2485 24.7317 87.5501 24.584C87.8518 24.4363 88.1133 24.2178 88.3122 23.9472C88.4979 23.6901 88.6387 23.4034 88.7284 23.0992" fill="#947D66"/>
<path d="M90.6056 21.6837H95.4283C95.4025 21.0097 95.139 20.3665 94.6843 19.8681C94.2366 19.4467 93.6449 19.212 93.03 19.212C92.4151 19.212 91.8234 19.4467 91.3756 19.8681C90.9168 20.3647 90.6494 21.0082 90.6212 21.6837M95.1838 23.4474H95.7664C95.6577 23.8023 95.481 24.1327 95.2462 24.4202C94.982 24.746 94.6443 25.0045 94.2609 25.1745C93.8775 25.3445 93.4592 25.4212 93.0404 25.3983C92.6305 25.4104 92.2231 25.3318 91.8472 25.1681C91.4712 25.0044 91.1361 24.7597 90.8658 24.4514C90.2773 23.778 89.9683 22.9052 90.0022 22.0115C89.9586 21.1128 90.2623 20.2318 90.8502 19.5507C91.1268 19.2581 91.4603 19.0249 91.8302 18.8656C92.2001 18.7062 92.5986 18.624 93.0014 18.624C93.4041 18.624 93.8026 18.7062 94.1725 18.8656C94.5424 19.0249 94.8759 19.2581 95.1526 19.5507C95.7386 20.2326 96.0403 21.1135 95.9954 22.0115V22.2716H90.6056C90.6303 22.9649 90.8972 23.6276 91.36 24.1445C91.5741 24.3649 91.8318 24.5385 92.1166 24.654C92.4014 24.7695 92.7071 24.8246 93.0144 24.8156C93.3244 24.821 93.6322 24.7634 93.9193 24.6463C94.2064 24.5291 94.4666 24.3548 94.6843 24.1341C94.8788 23.9338 95.0372 23.7015 95.1526 23.4474" fill="#947D66"/>
<path d="M9.62449 19.249H0V28.8735H9.62449V19.249Z" fill="#947D66"/>
<path d="M28.8725 19.249H19.248V28.8735H28.8725V19.249Z" fill="#947D66"/>
<path d="M9.62449 0H0V9.62449H9.62449V0Z" fill="#947D66"/>
<path d="M28.8725 0H19.248V9.62449H28.8725V0Z" fill="#947D66"/>
<path d="M42.0729 8.84391H44.414C44.5828 8.8513 44.7512 8.82106 44.9068 8.75537C45.0625 8.68969 45.2016 8.59021 45.3141 8.46413C45.553 8.17183 45.6736 7.80057 45.6522 7.42365C45.6742 7.04666 45.5534 6.67522 45.3141 6.38316C45.2016 6.25709 45.0625 6.1576 44.9068 6.09192C44.7512 6.02623 44.5828 5.99599 44.414 6.00338H42.0729V8.84391ZM40.377 13.4689V4.36982H44.4817C44.8678 4.35282 45.253 4.41827 45.6118 4.56179C45.9707 4.70532 46.2948 4.92364 46.5626 5.20221C47.1041 5.81374 47.3842 6.61312 47.343 7.42885C47.3828 8.24778 47.0987 9.04947 46.5522 9.66069C46.2844 9.93926 45.9603 10.1576 45.6014 10.3011C45.2426 10.4446 44.8573 10.5101 44.4713 10.4931H42.0729V13.4897L40.377 13.4689Z" fill="#947D66"/>
<path d="M50.4077 4.37012H48.7793V13.49H50.4077V4.37012Z" fill="#947D66"/>
<path d="M52.1707 10.8213V6.84668H53.7991V10.6913C53.7873 10.8868 53.8156 11.0826 53.8823 11.2667C53.949 11.4508 54.0527 11.6194 54.1869 11.762C54.3212 11.9045 54.4831 12.0182 54.6629 12.0958C54.8427 12.1735 55.0365 12.2135 55.2323 12.2135C55.4282 12.2135 55.6219 12.1735 55.8017 12.0958C55.9815 12.0182 56.1435 11.9045 56.2777 11.762C56.412 11.6194 56.5156 11.4508 56.5823 11.2667C56.649 11.0826 56.6774 10.8868 56.6656 10.6913V6.84668H58.2939V13.4902H56.7956L56.6656 12.8399H56.598C56.4709 12.9913 56.3218 13.1228 56.1557 13.2301C55.6494 13.5407 55.0531 13.6716 54.4632 13.6018C53.8733 13.5319 53.3241 13.2653 52.9042 12.8451C52.4017 12.294 52.138 11.5664 52.1707 10.8213Z" fill="#947D66"/>
<path d="M59.5312 11.4708H61.092C61.1017 11.5867 61.1382 11.6988 61.1987 11.7981C61.2592 11.8974 61.342 11.9813 61.4405 12.0431C61.7188 12.2415 62.0566 12.3388 62.3978 12.3188C63.2198 12.3188 63.6359 12.0795 63.6359 11.6009C63.6403 11.5099 63.6249 11.4191 63.5908 11.3347C63.5567 11.2502 63.5046 11.1742 63.4383 11.1119C63.2273 10.9619 62.9787 10.8736 62.7203 10.8569L61.6798 10.6905C60.2509 10.4512 59.5347 9.81993 59.5312 8.79678C59.5314 8.50955 59.5988 8.22635 59.728 7.96981C59.8572 7.71327 60.0445 7.49049 60.2752 7.31929C60.8768 6.88063 61.6132 6.66706 62.3561 6.71581C62.7329 6.69117 63.1108 6.74147 63.468 6.86381C63.8252 6.98615 64.1546 7.17809 64.4371 7.42854C64.641 7.60668 64.8076 7.82345 64.9273 8.06633C65.0469 8.30921 65.1173 8.57338 65.1342 8.8436H63.5735C63.5674 8.72592 63.5335 8.61136 63.4748 8.50921C63.416 8.40706 63.334 8.32022 63.2354 8.25573C62.9725 8.07156 62.6559 7.98005 62.3353 7.99561C62.0303 7.97702 61.7275 8.0573 61.4717 8.22451C61.379 8.28388 61.3024 8.36533 61.2488 8.46157C61.1952 8.55781 61.1664 8.66584 61.1648 8.77597C61.1648 9.09852 61.4665 9.29621 62.0752 9.38986L63.1833 9.56154C64.5706 9.76964 65.2643 10.4425 65.2643 11.5801C65.2681 11.8677 65.2014 12.1518 65.0698 12.4076C64.9383 12.6634 64.7461 12.883 64.51 13.0472C63.8831 13.4672 63.1351 13.6684 62.3822 13.6194C61.9606 13.6258 61.5408 13.5643 61.1388 13.4373C60.8335 13.3483 60.5489 13.1998 60.3012 13.0003C60.1112 12.8353 59.9495 12.6402 59.8226 12.4229C59.713 12.2503 59.6289 12.0628 59.5729 11.8662C59.536 11.7376 59.5167 11.6046 59.5156 11.4708" fill="#947D66"/>
</svg>
