<svg width="144" height="44" viewBox="0 0 144 44" fill="none" xmlns="http://www.w3.org/2000/svg">
<path d="M63.1085 13.2663H66.6201C66.8733 13.2773 67.1258 13.232 67.3593 13.1335C67.5928 13.0349 67.8014 12.8857 67.9701 12.6966C68.3285 12.2581 68.5095 11.7012 68.4774 11.1359C68.5103 10.5704 68.3292 10.0132 67.9701 9.57512C67.8014 9.38601 67.5928 9.23678 67.3593 9.13826C67.1258 9.03973 66.8733 8.99437 66.6201 9.00545H63.1085V13.2663ZM60.5645 20.2037V6.5551H66.7216C67.3007 6.5296 67.8786 6.62777 68.4168 6.84306C68.955 7.05835 69.4412 7.38582 69.843 7.80369C70.6551 8.72099 71.0754 9.92007 71.0136 11.1437C71.0732 12.3721 70.6471 13.5746 69.8274 14.4914C69.4256 14.9093 68.9394 15.2368 68.4012 15.4521C67.863 15.6674 67.2851 15.7655 66.7059 15.74H63.1085V20.2349L60.5645 20.2037Z" fill="white"/>
<path d="M75.6095 6.55511H73.167V20.235H75.6095V6.55511Z" fill="white"/>
<path d="M78.2551 16.2316V10.2696H80.6976V16.0365C80.6799 16.3297 80.7224 16.6235 80.8225 16.8997C80.9225 17.1759 81.078 17.4287 81.2794 17.6425C81.4808 17.8564 81.7238 18.0268 81.9934 18.1433C82.2631 18.2598 82.5538 18.3199 82.8475 18.3199C83.1413 18.3199 83.4319 18.2598 83.7016 18.1433C83.9713 18.0268 84.2143 17.8564 84.4156 17.6425C84.617 17.4287 84.7725 17.1759 84.8726 16.8997C84.9726 16.6235 85.0151 16.3297 84.9974 16.0365V10.2696H87.44V20.2349H85.1925L84.9974 19.2594H84.896C84.7054 19.4866 84.4818 19.6839 84.2327 19.8447C83.4731 20.3106 82.5787 20.507 81.6938 20.4022C80.8089 20.2975 79.9851 19.8976 79.3554 19.2672C78.6016 18.4407 78.206 17.3492 78.2551 16.2316Z" fill="white"/>
<path d="M89.2978 17.2071H91.6389C91.6535 17.3809 91.7083 17.549 91.799 17.698C91.8898 17.847 92.014 17.9728 92.1618 18.0655C92.5792 18.3631 93.0859 18.509 93.5977 18.4791C94.8306 18.4791 95.4549 18.1201 95.4549 17.4022C95.4615 17.2657 95.4384 17.1295 95.3872 17.0028C95.336 16.8762 95.2579 16.7622 95.1584 16.6686C94.8419 16.4437 94.469 16.3112 94.0815 16.2862L92.5207 16.0365C90.3773 15.6775 89.303 14.7307 89.2978 13.196C89.2981 12.7651 89.3992 12.3403 89.593 11.9555C89.7867 11.5707 90.0678 11.2365 90.4137 10.9797C91.3161 10.3217 92.4208 10.0014 93.5352 10.0745C94.1004 10.0375 94.6672 10.113 95.203 10.2965C95.7388 10.48 96.2329 10.7679 96.6567 11.1436C96.9625 11.4108 97.2124 11.736 97.3919 12.1003C97.5714 12.4646 97.6769 12.8609 97.7024 13.2662H95.3613C95.352 13.0897 95.3013 12.9178 95.2132 12.7646C95.125 12.6114 95.002 12.4811 94.854 12.3844C94.4598 12.1081 93.9848 11.9709 93.504 11.9942C93.0465 11.9663 92.5922 12.0868 92.2086 12.3376C92.0694 12.4266 91.9545 12.5488 91.8742 12.6932C91.7938 12.8375 91.7505 12.9996 91.7482 13.1648C91.7482 13.6486 92.2008 13.9451 93.1138 14.0856L94.776 14.3431C96.857 14.6553 97.8975 15.6645 97.8975 17.3709C97.9032 17.8023 97.8031 18.2285 97.6058 18.6122C97.4085 18.9959 97.1201 19.3253 96.7659 19.5716C95.8257 20.2017 94.7037 20.5034 93.5742 20.43C92.9419 20.4395 92.3122 20.3473 91.7092 20.1569C91.2513 20.0232 90.8243 19.8005 90.4528 19.5013C90.1678 19.2538 89.9252 18.9611 89.7348 18.6351C89.5705 18.3762 89.4444 18.095 89.3603 17.8001C89.3049 17.6073 89.276 17.4077 89.2744 17.2071" fill="white"/>
<path d="M61.4463 31.5503H66.0348C66.4539 31.5695 66.8723 31.501 67.2634 31.3492C67.6544 31.1973 68.0094 30.9655 68.3057 30.6685C68.5975 30.3551 68.8237 29.9865 68.9711 29.5845C69.1185 29.1825 69.1841 28.7551 69.1641 28.3274C69.1824 27.8998 69.116 27.4729 68.9686 27.0711C68.8213 26.6693 68.596 26.3007 68.3057 25.9863C68.0079 25.6918 67.6525 25.4622 67.2617 25.3118C66.8709 25.1614 66.4532 25.0934 66.0348 25.1123H61.4463V31.5503ZM60.5645 37.9025V24.1914H66.027C66.5606 24.1737 67.0922 24.2656 67.5889 24.4616C68.0855 24.6576 68.5367 24.9534 68.9144 25.3308C69.2908 25.7246 69.5842 26.19 69.7773 26.6994C69.9703 27.2088 70.059 27.7518 70.0381 28.2962C70.0598 28.8394 69.9714 29.3815 69.7783 29.8897C69.5852 30.3979 69.2913 30.8619 68.9144 31.2538C68.5373 31.6325 68.0865 31.9298 67.5898 32.1271C67.0931 32.3244 66.5612 32.4176 66.027 32.4009H64.5677L70.3347 37.8635H69.1641L63.3972 32.4009H61.4463V37.8635L60.5645 37.9025Z" fill="white"/>
<path d="M71.9968 32.5257H79.2308C79.1885 31.5125 78.7875 30.5472 78.0993 29.8022C77.4276 29.1701 76.54 28.8182 75.6177 28.8182C74.6954 28.8182 73.8078 29.1701 73.1361 29.8022C72.4457 30.5464 72.0419 31.5116 71.9968 32.5257ZM78.8172 35.1712H79.699C79.5353 35.7033 79.2703 36.1988 78.9187 36.6305C78.524 37.119 78.0189 37.5068 77.445 37.7618C76.8711 38.0169 76.2448 38.132 75.6177 38.0976C75.0083 38.11 74.4035 37.9894 73.8455 37.7441C73.2876 37.4988 72.7898 37.1347 72.387 36.6773C71.5079 35.6545 71.0554 34.3331 71.1228 32.9861C71.0554 31.6392 71.5079 30.3178 72.387 29.295C72.802 28.856 73.3022 28.5063 73.8571 28.2672C74.4119 28.0282 75.0097 27.9049 75.6138 27.9049C76.2179 27.9049 76.8157 28.0282 77.3706 28.2672C77.9254 28.5063 78.4256 28.856 78.8406 29.295C79.7225 30.3166 80.1779 31.6381 80.1126 32.9861V33.3763H71.9968C72.0366 34.4172 72.4397 35.4112 73.1361 36.1857C73.4537 36.5232 73.8389 36.79 74.2664 36.9688C74.694 37.1477 75.1544 37.2344 75.6177 37.2235C76.0853 37.2338 76.5501 37.1484 76.9835 36.9726C77.417 36.7968 77.8099 36.5344 78.1383 36.2013C78.43 35.9009 78.6676 35.5524 78.8406 35.1712" fill="white"/>
<path d="M81.5723 35.0697H82.4541C82.4601 35.3638 82.5336 35.6525 82.6689 35.9136C82.8042 36.1748 82.9977 36.4013 83.2345 36.5758C83.8202 37.0282 84.5475 37.2578 85.2868 37.2235C86.0068 37.2651 86.721 37.0735 87.3236 36.6773C87.5089 36.5404 87.6651 36.3679 87.7829 36.1699C87.9008 35.9719 87.9779 35.7524 88.0099 35.5242C88.0419 35.296 88.028 35.0638 87.9691 34.841C87.9102 34.6183 87.8075 34.4095 87.6669 34.2269C87.3321 33.9268 86.912 33.7386 86.4652 33.6885L84.1241 33.1968C83.4632 33.0924 82.8474 32.7967 82.3526 32.3462C81.9455 31.8825 81.738 31.2767 81.7752 30.6606C81.7783 30.2903 81.8648 29.9254 82.0283 29.5931C82.1917 29.2607 82.428 28.9695 82.7194 28.7409C83.4235 28.1864 84.3062 27.9088 85.201 27.9606C86.1575 27.9119 87.097 28.2269 87.8308 28.8424C88.1426 29.1056 88.3925 29.4344 88.5625 29.8054C88.7324 30.1764 88.8184 30.5804 88.8141 30.9884H87.9323C87.9402 30.6906 87.8796 30.395 87.7551 30.1244C87.6307 29.8538 87.4456 29.6154 87.2143 29.4277C86.6369 28.9919 85.9231 28.7761 85.201 28.819C84.5372 28.7806 83.88 28.9676 83.3359 29.3496C83.1259 29.5014 82.9549 29.7007 82.8369 29.9313C82.7189 30.1619 82.6572 30.4172 82.657 30.6763C82.6272 31.0844 82.7589 31.488 83.0237 31.8C83.3596 32.0973 83.7796 32.2827 84.2255 32.3306L86.5666 32.8223C87.228 32.925 87.8443 33.2209 88.3381 33.6729C88.7471 34.1386 88.9548 34.7476 88.9155 35.3663C88.9149 35.7428 88.8273 36.1141 88.6594 36.4512C88.4916 36.7883 88.248 37.082 87.9479 37.3094C87.1803 37.8686 86.2427 38.1444 85.2946 38.0897C84.3242 38.1251 83.3745 37.803 82.6258 37.1845C82.3043 36.931 82.0436 36.6088 81.8626 36.2416C81.6817 35.8743 81.5852 35.4713 81.5801 35.0619" fill="white"/>
<path d="M90.8583 28.1322H91.7401V37.9024H90.8583V28.1322ZM90.7646 24.5113H91.8338V25.5882H90.7646V24.5113Z" fill="white"/>
<path d="M95.5791 36.0842C95.894 36.44 96.2808 36.7248 96.714 36.9199C97.1472 37.115 97.6168 37.2159 98.0919 37.2159C98.567 37.2159 99.0367 37.115 99.4699 36.9199C99.903 36.7248 100.29 36.44 100.605 36.0842C101.312 35.2237 101.671 34.1295 101.611 33.0174C101.671 31.9052 101.312 30.8111 100.605 29.9505C100.29 29.5948 99.903 29.3099 99.4699 29.1148C99.0367 28.9197 98.567 28.8189 98.0919 28.8189C97.6168 28.8189 97.1472 28.9197 96.714 29.1148C96.2808 29.3099 95.894 29.5948 95.5791 29.9505C94.8721 30.8111 94.513 31.9052 94.5725 33.0174C94.513 34.1295 94.8721 35.2237 95.5791 36.0842ZM101.822 37.9025L101.627 35.9515H101.526C101.346 36.3603 101.08 36.7252 100.745 37.0206C100.385 37.3796 99.9538 37.6605 99.4799 37.8458C99.006 38.031 98.499 38.1167 97.9905 38.0976C97.4068 38.1047 96.829 37.9808 96.2996 37.735C95.7702 37.4892 95.3026 37.1278 94.9314 36.6773C94.0696 35.6491 93.6267 34.334 93.6907 32.994C93.6267 31.6539 94.0696 30.3388 94.9314 29.3106C95.3067 28.8665 95.7756 28.511 96.3045 28.2695C96.8334 28.028 97.4091 27.9065 97.9905 27.9138C98.4983 27.9 99.0037 27.9883 99.4769 28.1732C99.95 28.3582 100.381 28.6362 100.745 28.9907C101.07 29.2953 101.334 29.6579 101.526 30.0598H101.627V24.1914H102.501V37.9025H101.822Z" fill="white"/>
<path d="M105.419 32.5257H112.654C112.608 31.5116 112.205 30.5464 111.514 29.8023C110.843 29.1701 109.955 28.8182 109.033 28.8182C108.11 28.8182 107.223 29.1701 106.551 29.8023C105.863 30.5472 105.462 31.5125 105.419 32.5257ZM112.263 35.1712H113.153C112.99 35.7036 112.725 36.1992 112.373 36.6305C111.975 37.1182 111.469 37.5052 110.894 37.7602C110.319 38.0151 109.692 38.1307 109.064 38.0976C108.45 38.1145 107.841 37.9961 107.278 37.7506C106.716 37.5051 106.214 37.1386 105.81 36.6773C104.947 35.659 104.503 34.3506 104.569 33.0174C104.504 31.6694 104.959 30.3479 105.841 29.3262C106.256 28.8872 106.756 28.5375 107.311 28.2985C107.866 28.0594 108.464 27.9362 109.068 27.9362C109.672 27.9362 110.27 28.0594 110.824 28.2985C111.379 28.5375 111.88 28.8872 112.295 29.3262C113.174 30.349 113.626 31.6704 113.559 33.0174V33.4076H105.419C105.456 34.4475 105.857 35.4416 106.551 36.2169C106.872 36.5476 107.259 36.8078 107.686 36.9811C108.113 37.1545 108.572 37.237 109.033 37.2236C109.507 37.2411 109.98 37.1593 110.421 36.9832C110.861 36.8071 111.26 36.5408 111.592 36.2013C111.889 35.9033 112.129 35.5544 112.302 35.1712" fill="white"/>
<path d="M115.494 37.9025V28.1323H116.173L116.376 29.693H116.47C116.658 29.3614 116.904 29.0655 117.195 28.819C117.859 28.2371 118.716 27.9228 119.599 27.9372C120.119 27.9215 120.638 28.0147 121.12 28.2109C121.602 28.4071 122.039 28.7019 122.4 29.0765C122.774 29.4718 123.064 29.9379 123.254 30.4472C123.445 30.9565 123.531 31.4987 123.509 32.0419V37.9025H122.627V32.0419C122.666 31.1809 122.363 30.3392 121.784 29.7008C121.502 29.4081 121.162 29.1782 120.786 29.0262C120.409 28.8742 120.005 28.8036 119.599 28.819C119.172 28.8049 118.746 28.8786 118.349 29.0356C117.952 29.1925 117.591 29.4294 117.289 29.7316C116.986 30.0337 116.749 30.3946 116.593 30.7921C116.436 31.1895 116.362 31.6149 116.376 32.0419V37.9025H115.494Z" fill="white"/>
<path d="M133.076 34.6796H133.958C133.793 35.2905 133.529 35.8705 133.177 36.3964C132.821 36.9542 132.322 37.4062 131.732 37.7055C131.142 38.0047 130.482 38.1401 129.822 38.0976C129.218 38.1055 128.619 37.9827 128.067 37.7375C127.514 37.4924 127.022 37.1307 126.622 36.6773C125.743 35.6545 125.291 34.3331 125.358 32.9862C125.291 31.6392 125.743 30.3178 126.622 29.295C127.028 28.8433 127.527 28.4851 128.085 28.2452C128.643 28.0054 129.246 27.8896 129.853 27.906C130.504 27.8821 131.151 28.0217 131.735 28.312C132.318 28.6024 132.819 29.0342 133.193 29.5682C133.56 30.0653 133.826 30.6302 133.973 31.2303H133.092C132.96 30.7897 132.748 30.3771 132.467 30.013C132.164 29.6156 131.77 29.2969 131.317 29.0836C130.865 28.8704 130.368 28.769 129.869 28.7878C129.379 28.7721 128.891 28.8655 128.442 29.0612C127.993 29.2569 127.592 29.55 127.27 29.9193C126.555 30.7761 126.19 31.8715 126.248 32.9862C126.19 34.1008 126.555 35.1963 127.27 36.053C127.592 36.4233 127.992 36.7176 128.441 36.9146C128.891 37.1116 129.378 37.2065 129.869 37.1924C130.372 37.2058 130.872 37.0971 131.324 36.8756C131.777 36.6541 132.169 36.3263 132.467 35.9204C132.746 35.5348 132.957 35.1047 133.092 34.6484" fill="white"/>
<path d="M135.908 32.5257H143.142C143.104 31.5146 142.708 30.5498 142.027 29.8023C141.355 29.1701 140.467 28.8182 139.545 28.8182C138.623 28.8182 137.735 29.1701 137.063 29.8023C136.375 30.5472 135.974 31.5125 135.932 32.5257M142.776 35.1712H143.65C143.487 35.7036 143.221 36.1992 142.869 36.6305C142.473 37.1191 141.967 37.5069 141.391 37.7619C140.816 38.0169 140.189 38.132 139.561 38.0976C138.946 38.1157 138.335 37.9978 137.771 37.7523C137.207 37.5068 136.704 37.1397 136.299 36.6773C135.416 35.6672 134.952 34.3579 135.003 33.0174C134.938 31.6694 135.393 30.3479 136.275 29.3262C136.69 28.8872 137.19 28.5375 137.745 28.2985C138.3 28.0594 138.898 27.9362 139.502 27.9362C140.106 27.9362 140.704 28.0594 141.259 28.2985C141.814 28.5375 142.314 28.8872 142.729 29.3262C143.608 30.349 144.06 31.6704 143.993 33.0174V33.4076H135.908C135.945 34.4475 136.346 35.4416 137.04 36.2169C137.361 36.5476 137.748 36.8078 138.175 36.9811C138.602 37.1545 139.061 37.237 139.522 37.2236C139.987 37.2317 140.448 37.1453 140.879 36.9695C141.31 36.7938 141.7 36.5324 142.027 36.2013C142.318 35.9009 142.556 35.5524 142.729 35.1712" fill="white"/>
<path d="M14.4368 28.8736H0V43.3104H14.4368V28.8736Z" fill="white"/>
<path d="M43.3108 28.8736H28.874V43.3104H43.3108V28.8736Z" fill="white"/>
<path d="M14.4368 0H0V14.4368H14.4368V0Z" fill="white"/>
<path d="M43.3108 0H28.874V14.4368H43.3108V0Z" fill="white"/>
<path d="M63.1085 13.2663H66.6201C66.8733 13.2773 67.1258 13.232 67.3593 13.1335C67.5928 13.0349 67.8014 12.8857 67.9701 12.6966C68.3285 12.2581 68.5095 11.7012 68.4774 11.1359C68.5103 10.5704 68.3292 10.0132 67.9701 9.57512C67.8014 9.38601 67.5928 9.23678 67.3593 9.13826C67.1258 9.03973 66.8733 8.99437 66.6201 9.00545H63.1085V13.2663ZM60.5645 20.2037V6.5551H66.7216C67.3007 6.5296 67.8786 6.62777 68.4168 6.84306C68.955 7.05835 69.4412 7.38582 69.843 7.80369C70.6551 8.72099 71.0754 9.92007 71.0136 11.1437C71.0732 12.3721 70.6471 13.5746 69.8274 14.4914C69.4256 14.9093 68.9394 15.2368 68.4012 15.4521C67.863 15.6674 67.2851 15.7655 66.7059 15.74H63.1085V20.2349L60.5645 20.2037Z" fill="white"/>
<path d="M75.6095 6.55511H73.167V20.235H75.6095V6.55511Z" fill="white"/>
<path d="M78.2551 16.2316V10.2696H80.6976V16.0365C80.6799 16.3297 80.7224 16.6235 80.8225 16.8997C80.9225 17.1759 81.078 17.4287 81.2794 17.6425C81.4808 17.8564 81.7238 18.0268 81.9934 18.1433C82.2631 18.2598 82.5538 18.3199 82.8475 18.3199C83.1413 18.3199 83.4319 18.2598 83.7016 18.1433C83.9713 18.0268 84.2143 17.8564 84.4156 17.6425C84.617 17.4287 84.7725 17.1759 84.8726 16.8997C84.9726 16.6235 85.0151 16.3297 84.9974 16.0365V10.2696H87.44V20.2349H85.1925L84.9974 19.2594H84.896C84.7054 19.4866 84.4818 19.6839 84.2327 19.8447C83.4731 20.3106 82.5787 20.507 81.6938 20.4022C80.8089 20.2975 79.9851 19.8976 79.3554 19.2672C78.6016 18.4407 78.206 17.3492 78.2551 16.2316Z" fill="white"/>
<path d="M89.2978 17.2071H91.6389C91.6535 17.3809 91.7083 17.549 91.799 17.698C91.8898 17.847 92.014 17.9728 92.1618 18.0655C92.5792 18.3631 93.0859 18.509 93.5977 18.4791C94.8306 18.4791 95.4549 18.1201 95.4549 17.4022C95.4615 17.2657 95.4384 17.1295 95.3872 17.0028C95.336 16.8762 95.2579 16.7622 95.1584 16.6686C94.8419 16.4437 94.469 16.3112 94.0815 16.2862L92.5207 16.0365C90.3773 15.6775 89.303 14.7307 89.2978 13.196C89.2981 12.7651 89.3992 12.3403 89.593 11.9555C89.7867 11.5707 90.0678 11.2365 90.4137 10.9797C91.3161 10.3217 92.4208 10.0014 93.5352 10.0745C94.1004 10.0375 94.6672 10.113 95.203 10.2965C95.7388 10.48 96.2329 10.7679 96.6567 11.1436C96.9625 11.4108 97.2124 11.736 97.3919 12.1003C97.5714 12.4646 97.6769 12.8609 97.7024 13.2662H95.3613C95.352 13.0897 95.3013 12.9178 95.2132 12.7646C95.125 12.6114 95.002 12.4811 94.854 12.3844C94.4598 12.1081 93.9848 11.9709 93.504 11.9942C93.0465 11.9663 92.5922 12.0868 92.2086 12.3376C92.0694 12.4266 91.9545 12.5488 91.8742 12.6932C91.7938 12.8375 91.7505 12.9996 91.7482 13.1648C91.7482 13.6486 92.2008 13.9451 93.1138 14.0856L94.776 14.3431C96.857 14.6553 97.8975 15.6645 97.8975 17.3709C97.9032 17.8023 97.8031 18.2285 97.6058 18.6122C97.4085 18.9959 97.1201 19.3253 96.7659 19.5716C95.8257 20.2017 94.7037 20.5034 93.5742 20.43C92.9419 20.4395 92.3122 20.3473 91.7092 20.1569C91.2513 20.0232 90.8243 19.8005 90.4528 19.5013C90.1678 19.2538 89.9252 18.9611 89.7348 18.6351C89.5705 18.3762 89.4444 18.095 89.3603 17.8001C89.3049 17.6073 89.276 17.4077 89.2744 17.2071" fill="white"/>
</svg>
