<svg width="167" height="17" viewBox="0 0 167 17" fill="none" xmlns="http://www.w3.org/2000/svg">
<g clip-path="url(#clip0_565_21976)">
<path d="M5.29776 11.0457H0V16.5685H5.29776V11.0457Z" fill="#947D66"/>
<path d="M15.8935 11.0457H10.5957V16.5685H15.8935V11.0457Z" fill="#947D66"/>
<path d="M5.29776 0H0V5.52283H5.29776V0Z" fill="#947D66"/>
<path d="M15.8935 0H10.5957V5.52283H15.8935V0Z" fill="#947D66"/>
<path d="M24.2998 8.35407H28.3885C28.6826 8.36659 28.9758 8.31132 29.2471 8.19219C29.5183 8.07306 29.761 7.89302 29.9579 7.66489C30.3804 7.12598 30.593 6.44112 30.5535 5.74633C30.591 5.05182 30.3786 4.36771 29.9579 3.82778C29.7604 3.60072 29.5175 3.4216 29.2463 3.30306C28.9751 3.18451 28.6823 3.12943 28.3885 3.14169H24.2998V8.35407ZM21.3457 16.764V0.180042H28.4928C29.1652 0.151408 29.8359 0.271613 30.4605 0.532738C31.0852 0.793864 31.6497 1.18999 32.1169 1.69502C33.0302 2.70707 33.4878 4.05751 33.4897 5.74633C33.4917 7.43516 33.0341 8.78042 32.1169 9.78212C31.1997 10.7942 29.9917 11.2992 28.4928 11.2971H24.2998V16.764H21.3457Z" fill="#947D66"/>
<path d="M38.8449 0.180054H36.0039V16.761H38.8449V0.180054Z" fill="#947D66"/>
<path d="M41.9121 11.9056V4.68152H44.7501V11.6696C44.7385 12.0195 44.7946 12.3681 44.915 12.6949C45.0354 13.0216 45.2177 13.3197 45.451 13.5715C45.6843 13.8232 45.9638 14.0234 46.2729 14.1602C46.582 14.2969 46.9143 14.3674 47.2501 14.3674C47.5858 14.3674 47.9182 14.2969 48.2272 14.1602C48.5363 14.0234 48.8158 13.8232 49.0491 13.5715C49.2824 13.3197 49.4647 13.0216 49.5851 12.6949C49.7055 12.3681 49.7616 12.0195 49.7501 11.6696V4.68152H52.591V16.7641H49.9764L49.7501 15.5813H49.6369C49.4141 15.8558 49.1543 16.0953 48.8656 16.2922C47.9842 16.8547 46.9468 17.0917 45.9205 16.965C44.8941 16.8383 43.9385 16.3553 43.2075 15.5937C42.3499 14.652 41.922 13.4237 41.924 11.9087" fill="#947D66"/>
<path d="M54.7492 13.0915H57.474C57.4896 13.3014 57.5515 13.5047 57.6548 13.6856C57.7581 13.8666 57.9 14.0202 58.0696 14.1346C58.5564 14.4927 59.1454 14.6678 59.7402 14.6313C61.1795 14.6313 61.8982 14.1967 61.8962 13.3275C61.9049 13.1626 61.879 12.9978 61.8204 12.8445C61.7618 12.6912 61.6718 12.553 61.5567 12.4396C61.1881 12.1694 60.7556 12.0095 60.306 11.977L58.4895 11.6666C55.992 11.2402 54.7422 10.0947 54.7402 8.22994C54.7408 7.70768 54.8582 7.19276 55.0831 6.72607C55.3079 6.25938 55.6341 5.85378 56.0356 5.54148C56.8992 4.80883 58.0954 4.4425 59.6241 4.4425C61.1527 4.4425 62.3499 4.87609 63.2155 5.74327C64.0791 6.61252 64.5109 7.48177 64.5109 8.35101H61.792C61.7814 8.13645 61.7218 7.92763 61.6182 7.74189C61.5146 7.55616 61.37 7.39886 61.1964 7.28308C60.7375 6.95638 60.1878 6.79702 59.633 6.82983C59.1003 6.79518 58.571 6.93993 58.1232 7.24272C57.9617 7.35164 57.8286 7.50045 57.7356 7.67592C57.6426 7.8514 57.5926 8.04811 57.5901 8.24857C57.5901 8.83531 58.1202 9.20474 59.1803 9.36307L61.1101 9.67351C63.5341 10.0523 64.7461 11.2764 64.7461 13.3461C64.75 13.8595 64.6354 14.3664 64.412 14.824C64.1886 15.2816 63.863 15.6766 63.4626 15.9756C62.607 16.671 61.3691 17.0187 59.7491 17.0187C59.013 17.0312 58.2798 16.919 57.5782 16.6865C57.0484 16.5215 56.554 16.2517 56.122 15.8917C55.5253 15.34 55.0854 14.628 54.8504 13.8335C54.788 13.5977 54.754 13.3547 54.7492 13.1101" fill="#947D66"/>
<path d="M70.9979 9.06503H76.3373C76.8236 9.08644 77.3088 9.00261 77.7624 8.8188C78.216 8.635 78.6281 8.35522 78.9728 7.9971C79.3136 7.61695 79.5777 7.1694 79.7495 6.68095C79.9214 6.19251 79.9975 5.67308 79.9734 5.15342C79.9973 4.63425 79.9211 4.11536 79.7492 3.62745C79.5773 3.13954 79.3133 2.69252 78.9728 2.31284C78.6284 1.95416 78.2163 1.6738 77.7627 1.48946C77.3091 1.30512 76.8238 1.22079 76.3373 1.2418H70.9979V9.06503ZM69.9824 16.7641V0.180077H76.3463C76.9638 0.157219 77.5791 0.267265 78.154 0.503351C78.7289 0.739436 79.2509 1.09649 79.6875 1.55225C80.1285 2.02881 80.4723 2.59364 80.698 3.2126C80.9237 3.83155 81.0267 4.49179 81.0008 5.15342C81.0261 5.81304 80.9234 6.4712 80.6987 7.08842C80.4741 7.70563 80.1322 8.26919 79.6935 8.74527C79.2568 9.20443 78.7338 9.56447 78.1573 9.80275C77.5807 10.041 76.9631 10.1524 76.3433 10.1299H74.6369L81.3373 16.7641H79.9734L73.2582 10.1299H70.986V16.7641H69.9824Z" fill="#947D66"/>
<path d="M83.2658 10.2447H91.6725C91.5534 8.83944 91.1146 7.73839 90.3562 6.94158C89.5769 6.17191 88.5442 5.74294 87.4706 5.74294C86.3971 5.74294 85.3644 6.17191 84.585 6.94158C83.8266 7.74046 83.3869 8.84151 83.2658 10.2447ZM91.2198 13.4423H92.2413C92.0433 14.0895 91.7268 14.6904 91.3092 15.2119C90.3999 16.3957 89.1204 16.9876 87.4706 16.9876C86.766 17.0073 86.0657 16.8671 85.4183 16.5765C84.7709 16.286 84.1919 15.8521 83.7214 15.305C82.7287 14.1832 82.2324 12.691 82.2324 10.8284C82.2324 8.96569 82.7287 7.47348 83.7214 6.35173C84.2037 5.82017 84.785 5.39676 85.4296 5.10738C86.0743 4.81801 86.7687 4.66876 87.4706 4.66876C88.1725 4.66876 88.867 4.81801 89.5116 5.10738C90.1563 5.39676 90.7375 5.82017 91.2198 6.35173C92.2026 7.47141 92.6989 8.96362 92.7088 10.8284V11.3002H83.2658C83.3869 12.749 83.8266 13.8873 84.585 14.7151C84.958 15.1165 85.4074 15.4321 85.9044 15.6417C86.4013 15.8513 86.9348 15.9502 87.4706 15.9321C88.0145 15.9444 88.555 15.8406 89.0589 15.6271C89.5629 15.4135 90.0196 15.0947 90.4009 14.6903C90.7428 14.3307 91.0202 13.9101 91.2198 13.4485" fill="#947D66"/>
<path d="M94.4004 13.3274H95.4218C95.4283 13.6844 95.5139 14.0349 95.672 14.3516C95.8301 14.6683 96.0563 14.9425 96.3331 15.1528C97.0141 15.6976 97.858 15.9736 98.7154 15.9321C99.7458 15.9321 100.532 15.721 101.077 15.2925C101.33 15.1151 101.537 14.8751 101.68 14.5941C101.823 14.313 101.897 13.9994 101.896 13.6813C101.931 13.1884 101.78 12.7008 101.476 12.3216C101.086 11.9601 100.598 11.7325 100.079 11.6696L97.3515 11.0767C96.5832 10.952 95.8673 10.5935 95.2938 10.046C95.0584 9.76718 94.878 9.44269 94.763 9.09111C94.6481 8.73952 94.6007 8.36775 94.6237 7.99708C94.6231 7.5455 94.7211 7.09969 94.9105 6.69355C95.0999 6.28741 95.3756 5.93162 95.7166 5.65321C96.4433 5.00542 97.4051 4.68152 98.6023 4.68152C99.8729 4.68152 100.891 5.03646 101.658 5.74635C102.022 6.06581 102.313 6.46534 102.511 6.91621C102.71 7.36709 102.81 7.85814 102.804 8.35409H101.786C101.791 7.99747 101.718 7.64431 101.572 7.32152C101.427 6.99873 101.213 6.71482 100.946 6.49142C100.382 5.99056 99.6019 5.74117 98.6052 5.74324C97.8314 5.6953 97.0651 5.92541 96.4343 6.39518C96.1917 6.57801 95.9942 6.81829 95.858 7.09624C95.7219 7.37419 95.651 7.68188 95.6511 7.99397C95.6159 8.48787 95.7665 8.97666 96.071 9.35683C96.4611 9.71881 96.9488 9.94648 97.4677 10.0088L100.195 10.6017C100.963 10.7254 101.678 11.0829 102.25 11.6293C102.725 12.1931 102.965 12.9298 102.92 13.6782C102.922 14.1355 102.822 14.587 102.627 14.9966C102.432 15.4063 102.148 15.7628 101.798 16.0376C101.047 16.6771 100.021 16.9969 98.7184 16.9969C97.5886 17.0442 96.4825 16.6513 95.6154 15.8948C95.2419 15.5885 94.9389 15.199 94.7287 14.7547C94.5184 14.3105 94.4063 13.8228 94.4004 13.3274Z" fill="#947D66"/>
<path d="M105.193 4.91744H106.218V16.764H105.193V4.91744ZM105.08 0.537048H106.331V1.83782H105.08V0.537048Z" fill="#947D66"/>
<path d="M110.681 14.5599C111.047 14.991 111.496 15.3362 112 15.5726C112.503 15.8091 113.049 15.9313 113.601 15.9313C114.153 15.9313 114.699 15.8091 115.202 15.5726C115.705 15.3362 116.155 14.991 116.521 14.5599C117.301 13.6451 117.691 12.4033 117.691 10.8345C117.691 9.26576 117.301 8.02398 116.521 7.1092C116.155 6.67719 115.706 6.33119 115.203 6.09418C114.699 5.85717 114.153 5.73459 113.601 5.73459C113.048 5.73459 112.502 5.85717 111.999 6.09418C111.496 6.33119 111.046 6.67719 110.681 7.1092C109.901 8.02605 109.511 9.26783 109.511 10.8345C109.511 12.4013 109.901 13.643 110.681 14.5599ZM117.926 16.7641L117.7 14.3954H117.587C117.385 14.8931 117.08 15.3383 116.693 15.6992C116.273 16.1332 115.772 16.4728 115.221 16.6971C114.67 16.9214 114.08 17.0255 113.489 17.0031C112.813 17.0125 112.143 16.8653 111.529 16.5722C110.914 16.2791 110.369 15.8473 109.934 15.3081C108.973 14.1822 108.492 12.6941 108.492 10.8439C108.492 8.9936 108.973 7.5045 109.934 6.37655C110.369 5.83821 110.914 5.40728 111.529 5.11473C112.144 4.82218 112.813 4.67529 113.489 4.68462C114.08 4.66833 114.667 4.77529 115.218 4.99921C115.768 5.22312 116.27 5.55948 116.693 5.98849C117.066 6.36072 117.369 6.80178 117.587 7.28926H117.7V0.180054H118.724V16.7641H117.926Z" fill="#947D66"/>
<path d="M122.123 10.2447H130.53C130.411 8.83944 129.972 7.73839 129.214 6.94158C128.434 6.17191 127.402 5.74294 126.328 5.74294C125.254 5.74294 124.222 6.17191 123.442 6.94158C122.684 7.74253 122.244 8.84358 122.123 10.2447ZM130.077 13.4423H131.099C130.901 14.0895 130.584 14.6904 130.167 15.2119C129.257 16.3957 127.978 16.9876 126.328 16.9876C125.623 17.0073 124.923 16.8671 124.276 16.5765C123.628 16.286 123.049 15.8521 122.579 15.305C121.586 14.1832 121.09 12.691 121.09 10.8284C121.09 8.96569 121.586 7.47348 122.579 6.35173C123.061 5.82017 123.642 5.39676 124.287 5.10738C124.932 4.81801 125.626 4.66876 126.328 4.66876C127.03 4.66876 127.724 4.81801 128.369 5.10738C129.014 5.39676 129.595 5.82017 130.077 6.35173C131.06 7.47141 131.556 8.96362 131.566 10.8284V11.3002H122.123C122.246 12.749 122.686 13.8873 123.442 14.7151C123.815 15.1165 124.265 15.4321 124.762 15.6417C125.259 15.8513 125.792 15.9502 126.328 15.9321C126.872 15.9444 127.412 15.8406 127.916 15.6271C128.42 15.4135 128.877 15.0947 129.258 14.6903C129.6 14.3307 129.878 13.9101 130.077 13.4485" fill="#947D66"/>
<path d="M133.826 16.7641V4.91745H134.621L134.848 6.81428H134.961C135.176 6.40974 135.458 6.04817 135.795 5.74634C136.568 5.04547 137.563 4.66638 138.588 4.68152C139.194 4.66211 139.797 4.77529 140.359 5.01376C140.921 5.25224 141.428 5.61071 141.849 6.0661C142.28 6.54597 142.615 7.11028 142.836 7.72633C143.056 8.34237 143.157 8.99788 143.132 9.65485V16.7641H142.111V9.65485C142.159 8.61913 141.815 7.60508 141.155 6.8298C140.828 6.47281 140.432 6.19221 139.993 6.00652C139.554 5.82083 139.082 5.73427 138.609 5.75255C138.112 5.7372 137.618 5.8275 137.156 6.01794C136.695 6.20837 136.275 6.49494 135.923 6.86015C135.571 7.22536 135.294 7.66154 135.109 8.14204C134.924 8.62255 134.835 9.1373 134.848 9.65485V16.7641H133.826Z" fill="#947D66"/>
<path d="M154.275 12.8524H155.299C155.119 13.5911 154.827 14.2953 154.435 14.9386C153.588 16.3149 152.284 17.002 150.525 17C149.821 17.0195 149.121 16.8791 148.473 16.5886C147.826 16.2981 147.247 15.8643 146.776 15.3174C145.783 14.1956 145.287 12.7034 145.287 10.8407C145.287 8.97806 145.783 7.48585 146.776 6.36411C147.247 5.81716 147.826 5.38339 148.473 5.09286C149.121 4.80232 149.821 4.66196 150.525 4.68149C151.28 4.65844 152.028 4.83034 152.704 5.18188C153.379 5.53341 153.961 6.05366 154.397 6.69628C154.817 7.30004 155.12 7.98331 155.29 8.70797H154.266C154.116 8.17437 153.869 7.6758 153.539 7.23956C153.187 6.75605 152.729 6.36795 152.203 6.10804C151.677 5.84813 151.098 5.72407 150.516 5.74632C149.946 5.7294 149.38 5.84389 148.858 6.08163C148.335 6.31937 147.869 6.67448 147.494 7.12159C146.7 8.03844 146.303 9.28022 146.303 10.8469C146.303 12.4137 146.7 13.6554 147.494 14.5723C147.87 15.0188 148.335 15.3734 148.858 15.6106C149.38 15.8477 149.947 15.9618 150.516 15.9445C151.104 15.9648 151.687 15.8338 152.214 15.563C152.741 15.2923 153.196 14.8901 153.539 14.3922C153.87 13.9251 154.116 13.3991 154.266 12.84" fill="#947D66"/>
<path d="M157.571 10.2447H165.978C165.857 8.83944 165.417 7.73839 164.659 6.94158C163.88 6.17191 162.847 5.74294 161.773 5.74294C160.7 5.74294 159.667 6.17191 158.888 6.94158C158.131 7.74046 157.693 8.84151 157.571 10.2447ZM165.523 13.4423H166.547C166.348 14.0889 166.031 14.6897 165.615 15.2119C164.708 16.3957 163.427 16.9876 161.773 16.9876C161.069 17.0067 160.369 16.8662 159.721 16.5757C159.074 16.2851 158.495 15.8516 158.024 15.305C157.031 14.1832 156.535 12.691 156.535 10.8284C156.535 8.96569 157.031 7.47348 158.024 6.35173C158.506 5.82017 159.088 5.39676 159.732 5.10738C160.377 4.81801 161.071 4.66876 161.773 4.66876C162.475 4.66876 163.17 4.81801 163.814 5.10738C164.459 5.39676 165.04 5.82017 165.523 6.35173C166.515 7.47141 167.012 8.96362 167.012 10.8284V11.3002H157.571C157.691 12.749 158.129 13.8873 158.888 14.7151C159.261 15.1163 159.71 15.4318 160.207 15.6414C160.704 15.851 161.238 15.95 161.773 15.9321C162.565 15.9546 163.344 15.7302 164.012 15.2877C164.68 14.8452 165.206 14.2047 165.523 13.4485" fill="#947D66"/>
</g>
<defs>
<clipPath id="clip0_565_21976">
<rect width="167" height="17" fill="white"/>
</clipPath>
</defs>
</svg>
