<svg width="13" height="13" viewBox="0 0 13 13" fill="none" xmlns="http://www.w3.org/2000/svg">
<path d="M0.0336847 9.32243C0.0780416 9.21872 0.105338 9.10761 0.163343 9.01502C0.30665 8.7928 0.50455 8.66317 0.760456 8.66317C1.94786 8.66317 3.13526 8.65947 4.32266 8.66317C4.37384 8.66317 4.43185 8.70391 4.46938 8.74465C4.77647 9.07428 5.08355 9.41132 5.38723 9.74465C6.04576 10.4632 6.94996 10.4632 7.6119 9.74835C7.9224 9.41132 8.22949 9.07428 8.5434 8.74095C8.58434 8.6965 8.656 8.65946 8.714 8.65946C9.86728 8.65576 11.024 8.65576 12.1773 8.65576C12.6686 8.65576 12.9723 8.98909 12.9723 9.52243C12.9723 10.3817 12.9723 11.2409 12.9723 12.1002C12.9723 12.6372 12.672 12.9706 12.1807 12.9706C8.39326 12.9706 4.60586 12.9706 0.818462 12.9706C0.395364 12.9706 0.149696 12.7261 0.0302734 12.3039C0.0336855 11.315 0.0336847 10.3187 0.0336847 9.32243ZM11.4778 10.8224C11.2082 10.8261 10.9796 11.078 10.9864 11.3706C10.9933 11.6558 11.2219 11.9002 11.4846 11.9002C11.7507 11.9002 11.9828 11.6484 11.9828 11.3595C11.9794 11.0632 11.7473 10.8187 11.4778 10.8224ZM9.50901 10.8224C9.23605 10.8113 9.00744 11.0484 8.9972 11.3446C8.99038 11.6372 9.21216 11.8928 9.48172 11.9002C9.74786 11.9076 9.98329 11.6595 9.99012 11.3669C9.99353 11.0817 9.77174 10.8335 9.50901 10.8224Z" fill="black"/>
<path d="M5.01188 4.33337C5.01188 4.25559 5.01188 4.20004 5.01188 4.14818C5.01188 2.97781 5.01188 1.80744 5.01188 0.637074C5.01188 0.229666 5.20637 0.0185547 5.57828 0.0185547C6.19587 0.0185547 6.81687 0.0185547 7.43445 0.0185547C7.79954 0.0185547 7.99403 0.233369 7.99403 0.629666C7.99403 1.80374 7.99403 2.98152 7.99403 4.15559C7.99403 4.21115 7.99403 4.263 7.99403 4.33707C8.04521 4.33707 8.09298 4.33707 8.13734 4.33707C8.73445 4.33707 9.33497 4.33707 9.93209 4.33707C10.2426 4.33707 10.4098 4.48522 10.478 4.79263C10.5087 4.93707 10.4814 5.063 10.3995 5.17781C10.362 5.22966 10.3177 5.28152 10.2733 5.32967C9.15414 6.54448 8.03497 7.763 6.9124 8.97781C6.63261 9.28152 6.37671 9.28152 6.09351 8.97411C4.96752 7.75189 3.84154 6.52966 2.71555 5.30744C2.45282 5.02226 2.44259 4.67411 2.71555 4.45559C2.8145 4.37781 2.96463 4.34078 3.09088 4.33707C3.68117 4.32596 4.27146 4.33337 4.85834 4.33337C4.90611 4.33337 4.95387 4.33337 5.01188 4.33337Z" fill="black"/>
</svg>
