<svg width="606" height="594" viewBox="0 0 606 594" fill="none" xmlns="http://www.w3.org/2000/svg">
<line x1="0.21875" y1="529.5" x2="250.219" y2="529.5" stroke="#381611"/>
<path d="M260.069 537.57V532.63H255.519V530.29H260.069V525.35H262.539V530.29H267.089V532.63H262.539V537.57H260.069ZM275.416 533.8H278.146C278.146 534.545 278.475 535.213 279.134 535.802C279.81 536.374 280.651 536.66 281.656 536.66C282.731 536.66 283.563 536.4 284.152 535.88C284.741 535.36 285.036 534.667 285.036 533.8C285.036 532.985 284.715 532.309 284.074 531.772C283.45 531.217 282.601 530.94 281.526 530.94H280.356V528.47H281.526C282.531 528.47 283.32 528.219 283.892 527.716C284.481 527.196 284.776 526.537 284.776 525.74C284.776 524.995 284.49 524.379 283.918 523.894C283.363 523.391 282.609 523.14 281.656 523.14C280.685 523.14 279.897 523.391 279.29 523.894C278.701 524.379 278.406 524.995 278.406 525.74H275.676C275.676 524.284 276.222 523.053 277.314 522.048C278.423 521.043 279.871 520.54 281.656 520.54C283.389 520.54 284.793 521.043 285.868 522.048C286.96 523.053 287.506 524.284 287.506 525.74C287.506 526.919 287.073 527.924 286.206 528.756C285.825 529.12 285.391 529.415 284.906 529.64V529.77C285.443 530.013 285.92 530.316 286.336 530.68C287.289 531.564 287.766 532.647 287.766 533.93C287.766 535.455 287.194 536.729 286.05 537.752C284.923 538.757 283.459 539.26 281.656 539.26C279.801 539.26 278.293 538.74 277.132 537.7C275.988 536.643 275.416 535.343 275.416 533.8ZM300.859 534.918C301.743 533.739 302.185 532.067 302.185 529.9C302.185 527.733 301.743 526.069 300.859 524.908C299.975 523.729 298.9 523.14 297.635 523.14C296.369 523.14 295.295 523.729 294.411 524.908C293.527 526.069 293.085 527.733 293.085 529.9C293.085 532.067 293.527 533.739 294.411 534.918C295.295 536.079 296.369 536.66 297.635 536.66C298.9 536.66 299.975 536.079 300.859 534.918ZM292.461 523.062C293.865 521.381 295.589 520.54 297.635 520.54C299.68 520.54 301.405 521.381 302.809 523.062C304.213 524.743 304.915 527.023 304.915 529.9C304.915 532.777 304.213 535.057 302.809 536.738C301.405 538.419 299.68 539.26 297.635 539.26C295.589 539.26 293.865 538.419 292.461 536.738C291.057 535.057 290.355 532.777 290.355 529.9C290.355 527.023 291.057 524.743 292.461 523.062ZM318.023 534.918C318.907 533.739 319.349 532.067 319.349 529.9C319.349 527.733 318.907 526.069 318.023 524.908C317.139 523.729 316.064 523.14 314.799 523.14C313.533 523.14 312.459 523.729 311.575 524.908C310.691 526.069 310.249 527.733 310.249 529.9C310.249 532.067 310.691 533.739 311.575 534.918C312.459 536.079 313.533 536.66 314.799 536.66C316.064 536.66 317.139 536.079 318.023 534.918ZM309.625 523.062C311.029 521.381 312.753 520.54 314.799 520.54C316.844 520.54 318.569 521.381 319.973 523.062C321.377 524.743 322.079 527.023 322.079 529.9C322.079 532.777 321.377 535.057 319.973 536.738C318.569 538.419 316.844 539.26 314.799 539.26C312.753 539.26 311.029 538.419 309.625 536.738C308.221 535.057 307.519 532.777 307.519 529.9C307.519 527.023 308.221 524.743 309.625 523.062ZM332.752 539L344.062 520.8H346.662L335.352 539H332.752ZM335.976 523.166C335.629 522.802 335.161 522.62 334.572 522.62C333.983 522.62 333.506 522.802 333.142 523.166C332.795 523.53 332.622 524.041 332.622 524.7C332.622 525.359 332.795 525.87 333.142 526.234C333.506 526.598 333.983 526.78 334.572 526.78C335.161 526.78 335.629 526.598 335.976 526.234C336.34 525.87 336.522 525.359 336.522 524.7C336.522 524.041 336.34 523.53 335.976 523.166ZM331.608 527.664C330.811 526.867 330.412 525.879 330.412 524.7C330.412 523.521 330.811 522.533 331.608 521.736C332.423 520.939 333.411 520.54 334.572 520.54C335.733 520.54 336.713 520.939 337.51 521.736C338.325 522.533 338.732 523.521 338.732 524.7C338.732 525.879 338.325 526.867 337.51 527.664C336.713 528.461 335.733 528.86 334.572 528.86C333.411 528.86 332.423 528.461 331.608 527.664ZM343.412 536.634C343.776 536.998 344.253 537.18 344.842 537.18C345.431 537.18 345.899 536.998 346.246 536.634C346.61 536.27 346.792 535.759 346.792 535.1C346.792 534.441 346.61 533.93 346.246 533.566C345.899 533.202 345.431 533.02 344.842 533.02C344.253 533.02 343.776 533.202 343.412 533.566C343.065 533.93 342.892 534.441 342.892 535.1C342.892 535.759 343.065 536.27 343.412 536.634ZM341.878 538.064C341.081 537.267 340.682 536.279 340.682 535.1C340.682 533.921 341.081 532.933 341.878 532.136C342.675 531.339 343.663 530.94 344.842 530.94C346.021 530.94 347.009 531.339 347.806 532.136C348.603 532.933 349.002 533.921 349.002 535.1C349.002 536.279 348.603 537.267 347.806 538.064C347.009 538.861 346.021 539.26 344.842 539.26C343.663 539.26 342.675 538.861 341.878 538.064Z" fill="#381611"/>
<path d="M604.572 530.354C604.768 530.158 604.768 529.842 604.572 529.646L601.39 526.464C601.195 526.269 600.878 526.269 600.683 526.464C600.488 526.66 600.488 526.976 600.683 527.172L603.512 530L600.683 532.828C600.488 533.024 600.488 533.34 600.683 533.536C600.878 533.731 601.195 533.731 601.39 533.536L604.572 530.354ZM354.219 530.5H604.219V529.5H354.219V530.5Z" fill="#381611"/>
<path d="M402.619 575.75L403.879 574.042L401.849 573.44L402.129 572.67L404.131 573.37L404.089 571.2H404.929L404.887 573.37L406.889 572.67L407.169 573.44L405.139 574.042L406.399 575.75L405.769 576.24L404.509 574.49L403.249 576.24L402.619 575.75ZM413.885 578.69H414.795C414.618 579.465 414.254 580.067 413.703 580.496C413.162 580.925 412.499 581.14 411.715 581.14C410.744 581.14 409.951 580.809 409.335 580.146C408.728 579.483 408.425 578.601 408.425 577.5C408.425 576.399 408.728 575.517 409.335 574.854C409.951 574.191 410.744 573.86 411.715 573.86C412.49 573.86 413.152 574.075 413.703 574.504C414.254 574.924 414.618 575.503 414.795 576.24H413.885C413.782 575.867 413.549 575.517 413.185 575.19C412.83 574.863 412.34 574.7 411.715 574.7C410.996 574.7 410.408 574.952 409.951 575.456C409.494 575.96 409.265 576.641 409.265 577.5C409.265 578.359 409.494 579.04 409.951 579.544C410.408 580.048 410.996 580.3 411.715 580.3C412.331 580.3 412.821 580.127 413.185 579.782C413.549 579.437 413.782 579.073 413.885 578.69ZM417.987 579.544C418.435 580.048 419.005 580.3 419.695 580.3C420.386 580.3 420.955 580.048 421.403 579.544C421.851 579.04 422.075 578.359 422.075 577.5C422.075 576.641 421.851 575.96 421.403 575.456C420.955 574.952 420.386 574.7 419.695 574.7C419.005 574.7 418.435 574.952 417.987 575.456C417.539 575.96 417.315 576.641 417.315 577.5C417.315 578.359 417.539 579.04 417.987 579.544ZM416.475 583.8V574H417.175L417.315 575.12H417.385C417.572 574.821 417.871 574.537 418.281 574.266C418.692 573.995 419.187 573.86 419.765 573.86C420.661 573.86 421.408 574.196 422.005 574.868C422.612 575.531 422.915 576.408 422.915 577.5C422.915 578.592 422.612 579.474 422.005 580.146C421.408 580.809 420.661 581.14 419.765 581.14C419.187 581.14 418.692 581.005 418.281 580.734C417.871 580.463 417.572 580.179 417.385 579.88H417.315V583.8H416.475ZM425.015 577.08H429.845C429.808 576.38 429.565 575.811 429.117 575.372C428.678 574.924 428.128 574.7 427.465 574.7C426.793 574.7 426.233 574.915 425.785 575.344C425.346 575.764 425.09 576.343 425.015 577.08ZM429.565 579.04H430.475C430.27 579.619 429.92 580.113 429.425 580.524C428.94 580.935 428.286 581.14 427.465 581.14C426.494 581.14 425.701 580.809 425.085 580.146C424.478 579.483 424.175 578.601 424.175 577.5C424.175 576.399 424.478 575.517 425.085 574.854C425.701 574.191 426.494 573.86 427.465 573.86C428.389 573.86 429.154 574.187 429.761 574.84C430.377 575.484 430.685 576.324 430.685 577.36C430.685 577.5 430.676 577.635 430.657 577.766C430.648 577.803 430.643 577.855 430.643 577.92H425.015C425.09 578.639 425.356 579.217 425.813 579.656C426.27 580.085 426.821 580.3 427.465 580.3C427.978 580.3 428.412 580.174 428.767 579.922C429.122 579.67 429.388 579.376 429.565 579.04ZM431.311 582.68V580.16H431.381C431.735 580.16 431.997 580.085 432.165 579.936C432.333 579.787 432.431 579.535 432.459 579.18L432.879 574H437.401V580.16H438.451V582.68H437.611V581H432.151V582.68H431.311ZM432.851 580.16H436.561V574.84H433.621L433.271 579.18C433.233 579.507 433.154 579.768 433.033 579.964C432.986 580.048 432.925 580.113 432.851 580.16ZM439.854 581V574H440.694V577.08H444.684V574H445.524V581H444.684V577.92H440.694V581H439.854ZM447.14 581L449.73 578.41H449.59C448.89 578.41 448.33 578.205 447.91 577.794C447.49 577.383 447.28 576.842 447.28 576.17C447.28 575.526 447.49 575.003 447.91 574.602C448.34 574.201 448.9 574 449.59 574H452.74V581H451.9V578.41H450.78L448.19 581H447.14ZM449.59 577.57H451.9V574.84H449.59C449.142 574.84 448.783 574.961 448.512 575.204C448.251 575.447 448.12 575.769 448.12 576.17C448.12 576.59 448.251 576.931 448.512 577.192C448.783 577.444 449.142 577.57 449.59 577.57ZM454.345 581L456.935 578.41H456.795C456.095 578.41 455.535 578.205 455.115 577.794C454.695 577.383 454.485 576.842 454.485 576.17C454.485 575.526 454.695 575.003 455.115 574.602C455.545 574.201 456.105 574 456.795 574H459.945V581H459.105V578.41H457.985L455.395 581H454.345ZM456.795 577.57H459.105V574.84H456.795C456.347 574.84 455.988 574.961 455.717 575.204C455.456 575.447 455.325 575.769 455.325 576.17C455.325 576.59 455.456 576.931 455.717 577.192C455.988 577.444 456.347 577.57 456.795 577.57ZM464.621 583.8V582.96H465.811C465.97 582.96 466.087 582.923 466.161 582.848C466.245 582.773 466.315 582.661 466.371 582.512L466.749 581.448L463.921 574H464.761L467.001 579.95H467.281L469.381 574H470.221L467.071 582.89C466.847 583.497 466.427 583.8 465.811 583.8H464.621ZM470.221 582.68V580.16H470.291C470.645 580.16 470.907 580.085 471.075 579.936C471.243 579.787 471.341 579.535 471.369 579.18L471.789 574H476.311V580.16H477.361V582.68H476.521V581H471.061V582.68H470.221ZM471.761 580.16H475.471V574.84H472.531L472.181 579.18C472.143 579.507 472.064 579.768 471.943 579.964C471.896 580.048 471.835 580.113 471.761 580.16ZM479.115 577.08H483.945C483.907 576.38 483.665 575.811 483.217 575.372C482.778 574.924 482.227 574.7 481.565 574.7C480.893 574.7 480.333 574.915 479.885 575.344C479.446 575.764 479.189 576.343 479.115 577.08ZM483.665 579.04H484.575C484.369 579.619 484.019 580.113 483.525 580.524C483.039 580.935 482.386 581.14 481.565 581.14C480.594 581.14 479.801 580.809 479.185 580.146C478.578 579.483 478.275 578.601 478.275 577.5C478.275 576.399 478.578 575.517 479.185 574.854C479.801 574.191 480.594 573.86 481.565 573.86C482.489 573.86 483.254 574.187 483.861 574.84C484.477 575.484 484.785 576.324 484.785 577.36C484.785 577.5 484.775 577.635 484.757 577.766C484.747 577.803 484.743 577.855 484.743 577.92H479.115C479.189 578.639 479.455 579.217 479.913 579.656C480.37 580.085 480.921 580.3 481.565 580.3C482.078 580.3 482.512 580.174 482.867 579.922C483.221 579.67 483.487 579.376 483.665 579.04ZM485.273 581.07V580.23H485.623C485.95 580.23 486.197 580.146 486.365 579.978C486.533 579.81 486.636 579.521 486.673 579.11L487.093 574H491.643V581H490.803V574.84H487.863L487.513 579.11C487.457 579.782 487.275 580.277 486.967 580.594C486.669 580.911 486.221 581.07 485.623 581.07H485.273ZM493.886 581V574H494.726V576.45H496.966C497.666 576.45 498.235 576.669 498.674 577.108C499.122 577.537 499.346 578.088 499.346 578.76C499.346 579.395 499.122 579.927 498.674 580.356C498.226 580.785 497.656 581 496.966 581H493.886ZM494.726 580.16H497.036C497.484 580.16 497.838 580.034 498.1 579.782C498.37 579.521 498.506 579.18 498.506 578.76C498.506 578.303 498.375 577.943 498.114 577.682C497.852 577.421 497.493 577.29 497.036 577.29H494.726V580.16ZM500.954 581V574H501.794V577.08H505.784V574H506.624V581H505.784V577.92H501.794V581H500.954ZM513.42 581L513.28 580.02H513.21C513.07 580.216 512.879 580.403 512.636 580.58C512.113 580.953 511.535 581.14 510.9 581.14C510.181 581.14 509.603 580.939 509.164 580.538C508.735 580.137 508.52 579.614 508.52 578.97C508.52 578.307 508.753 577.78 509.22 577.388C509.687 576.996 510.363 576.8 511.25 576.8H513.28V576.52C513.28 575.307 512.673 574.7 511.46 574.7C510.909 574.7 510.466 574.821 510.13 575.064C509.803 575.307 509.617 575.629 509.57 576.03H508.73C508.814 575.405 509.089 574.887 509.556 574.476C510.023 574.065 510.657 573.86 511.46 573.86C512.309 573.86 512.963 574.093 513.42 574.56C513.887 575.017 514.12 575.671 514.12 576.52V581H513.42ZM513.28 577.92V577.57H511.25C510.634 577.57 510.163 577.701 509.836 577.962C509.519 578.223 509.36 578.559 509.36 578.97C509.36 579.371 509.495 579.693 509.766 579.936C510.037 580.179 510.415 580.3 510.9 580.3C511.637 580.3 512.216 580.09 512.636 579.67C513.065 579.241 513.28 578.657 513.28 577.92ZM515.732 581L518.322 578.41H518.182C517.482 578.41 516.922 578.205 516.502 577.794C516.082 577.383 515.872 576.842 515.872 576.17C515.872 575.526 516.082 575.003 516.502 574.602C516.932 574.201 517.492 574 518.182 574H521.332V581H520.492V578.41H519.372L516.782 581H515.732ZM518.182 577.57H520.492V574.84H518.182C517.734 574.84 517.375 574.961 517.104 575.204C516.843 575.447 516.712 575.769 516.712 576.17C516.712 576.59 516.843 576.931 517.104 577.192C517.375 577.444 517.734 577.57 518.182 577.57ZM531.682 578.69H532.592C532.414 579.465 532.05 580.067 531.5 580.496C530.958 580.925 530.296 581.14 529.512 581.14C528.541 581.14 527.748 580.809 527.132 580.146C526.525 579.483 526.222 578.601 526.222 577.5C526.222 576.399 526.525 575.517 527.132 574.854C527.748 574.191 528.541 573.86 529.512 573.86C530.286 573.86 530.949 574.075 531.5 574.504C532.05 574.924 532.414 575.503 532.592 576.24H531.682C531.579 575.867 531.346 575.517 530.982 575.19C530.627 574.863 530.137 574.7 529.512 574.7C528.793 574.7 528.205 574.952 527.748 575.456C527.29 575.96 527.062 576.641 527.062 577.5C527.062 578.359 527.29 579.04 527.748 579.544C528.205 580.048 528.793 580.3 529.512 580.3C530.128 580.3 530.618 580.127 530.982 579.782C531.346 579.437 531.579 579.073 531.682 578.69ZM535.539 581V574.84H533.159V574H538.759V574.84H536.379V581H535.539ZM545.029 580.118C544.395 580.799 543.615 581.14 542.691 581.14C541.767 581.14 540.988 580.799 540.353 580.118C539.719 579.437 539.401 578.564 539.401 577.5C539.401 576.436 539.719 575.563 540.353 574.882C540.988 574.201 541.767 573.86 542.691 573.86C543.615 573.86 544.395 574.201 545.029 574.882C545.664 575.563 545.981 576.436 545.981 577.5C545.981 578.564 545.664 579.437 545.029 580.118ZM544.427 579.516C544.903 578.993 545.141 578.321 545.141 577.5C545.141 576.679 544.903 576.007 544.427 575.484C543.951 574.961 543.373 574.7 542.691 574.7C542.01 574.7 541.431 574.961 540.955 575.484C540.479 576.007 540.241 576.679 540.241 577.5C540.241 578.321 540.479 578.993 540.955 579.516C541.431 580.039 542.01 580.3 542.691 580.3C543.373 580.3 543.951 580.039 544.427 579.516ZM547.725 581V574H548.565V580.09H548.845L551.855 574H553.395V581H552.555V574.91H552.275L549.265 581H547.725ZM555.641 581V574H557.279L559.421 580.09H559.701L561.843 574H563.481V581H562.641V574.91H562.361L560.219 581H558.903L556.761 574.91H556.481V581H555.641ZM570.856 580.118C570.221 580.799 569.442 581.14 568.518 581.14C567.594 581.14 566.814 580.799 566.18 580.118C565.545 579.437 565.228 578.564 565.228 577.5C565.228 576.436 565.545 575.563 566.18 574.882C566.814 574.201 567.594 573.86 568.518 573.86C569.442 573.86 570.221 574.201 570.856 574.882C571.49 575.563 571.808 576.436 571.808 577.5C571.808 578.564 571.49 579.437 570.856 580.118ZM570.254 579.516C570.73 578.993 570.968 578.321 570.968 577.5C570.968 576.679 570.73 576.007 570.254 575.484C569.778 574.961 569.199 574.7 568.518 574.7C567.836 574.7 567.258 574.961 566.782 575.484C566.306 576.007 566.068 576.679 566.068 577.5C566.068 578.321 566.306 578.993 566.782 579.516C567.258 580.039 567.836 580.3 568.518 580.3C569.199 580.3 569.778 580.039 570.254 579.516ZM578.522 578.69H579.432C579.254 579.465 578.89 580.067 578.34 580.496C577.798 580.925 577.136 581.14 576.352 581.14C575.381 581.14 574.588 580.809 573.972 580.146C573.365 579.483 573.062 578.601 573.062 577.5C573.062 576.399 573.365 575.517 573.972 574.854C574.588 574.191 575.381 573.86 576.352 573.86C577.126 573.86 577.789 574.075 578.34 574.504C578.89 574.924 579.254 575.503 579.432 576.24H578.522C578.419 575.867 578.186 575.517 577.822 575.19C577.467 574.863 576.977 574.7 576.352 574.7C575.633 574.7 575.045 574.952 574.588 575.456C574.13 575.96 573.902 576.641 573.902 577.5C573.902 578.359 574.13 579.04 574.588 579.544C575.045 580.048 575.633 580.3 576.352 580.3C576.968 580.3 577.458 580.127 577.822 579.782C578.186 579.437 578.419 579.073 578.522 578.69ZM582.379 581V574.84H579.999V574H585.599V574.84H583.219V581H582.379ZM587.005 581V574H587.845V576.45H590.085C590.785 576.45 591.354 576.669 591.793 577.108C592.241 577.537 592.465 578.088 592.465 578.76C592.465 579.395 592.241 579.927 591.793 580.356C591.345 580.785 590.775 581 590.085 581H587.005ZM587.845 580.16H590.155C590.603 580.16 590.957 580.034 591.219 579.782C591.489 579.521 591.625 579.18 591.625 578.76C591.625 578.303 591.494 577.943 591.233 577.682C590.971 577.421 590.612 577.29 590.155 577.29H587.845V580.16Z" fill="#947D66"/>
<rect width="188" height="325" transform="translate(202.219 147)" fill="#D5C9BB"/>
<rect width="188" height="325" transform="translate(202.219 147)" fill="url(#paint0_linear_346_6878)"/>
<path d="M230.509 172.08V171.97C230.025 171.779 229.599 171.537 229.233 171.244C228.397 170.555 227.979 169.623 227.979 168.45C227.979 167.335 228.404 166.382 229.255 165.59C230.12 164.783 231.198 164.38 232.489 164.38C233.779 164.38 234.85 164.783 235.701 165.59C236.566 166.382 236.999 167.335 236.999 168.45C236.999 169.609 236.573 170.54 235.723 171.244C235.341 171.552 234.923 171.794 234.469 171.97V172.08C235.026 172.285 235.503 172.557 235.899 172.894C236.852 173.701 237.329 174.713 237.329 175.93C237.329 177.118 236.874 178.13 235.965 178.966C235.055 179.802 233.897 180.22 232.489 180.22C231.081 180.22 229.922 179.802 229.013 178.966C228.103 178.13 227.649 177.118 227.649 175.93C227.649 174.683 228.125 173.671 229.079 172.894C229.489 172.542 229.966 172.271 230.509 172.08ZM229.959 166.272C229.299 166.873 228.969 167.599 228.969 168.45C228.969 169.301 229.299 170.027 229.959 170.628C230.619 171.229 231.462 171.53 232.489 171.53C233.515 171.53 234.359 171.229 235.019 170.628C235.679 170.027 236.009 169.301 236.009 168.45C236.009 167.599 235.679 166.873 235.019 166.272C234.359 165.671 233.515 165.37 232.489 165.37C231.462 165.37 230.619 165.671 229.959 166.272ZM228.639 175.93C228.639 176.839 228.998 177.617 229.717 178.262C230.435 178.907 231.359 179.23 232.489 179.23C233.618 179.23 234.542 178.907 235.261 178.262C235.979 177.617 236.339 176.839 236.339 175.93C236.339 174.977 235.979 174.17 235.261 173.51C234.542 172.85 233.618 172.52 232.489 172.52C231.359 172.52 230.435 172.85 229.717 173.51C228.998 174.17 228.639 174.977 228.639 175.93ZM240.856 171.97L245.696 164.6H246.796L242.616 170.98H242.726C242.887 170.877 243.1 170.767 243.364 170.65C243.965 170.43 244.559 170.32 245.146 170.32C246.524 170.32 247.676 170.789 248.6 171.728C249.524 172.667 249.986 173.847 249.986 175.27C249.986 176.707 249.509 177.895 248.556 178.834C247.617 179.758 246.407 180.22 244.926 180.22C243.444 180.22 242.227 179.758 241.274 178.834C240.335 177.895 239.866 176.707 239.866 175.27C239.866 174.097 240.196 172.997 240.856 171.97ZM242 172.432C241.237 173.18 240.856 174.126 240.856 175.27C240.856 176.414 241.237 177.36 242 178.108C242.762 178.856 243.738 179.23 244.926 179.23C246.114 179.23 247.089 178.856 247.852 178.108C248.614 177.36 248.996 176.414 248.996 175.27C248.996 174.126 248.614 173.18 247.852 172.432C247.089 171.684 246.114 171.31 244.926 171.31C243.738 171.31 242.762 171.684 242 172.432ZM255.366 172.08V171.97C254.882 171.779 254.457 171.537 254.09 171.244C253.254 170.555 252.836 169.623 252.836 168.45C252.836 167.335 253.262 166.382 254.112 165.59C254.978 164.783 256.056 164.38 257.346 164.38C258.637 164.38 259.708 164.783 260.558 165.59C261.424 166.382 261.856 167.335 261.856 168.45C261.856 169.609 261.431 170.54 260.58 171.244C260.199 171.552 259.781 171.794 259.326 171.97V172.08C259.884 172.285 260.36 172.557 260.756 172.894C261.71 173.701 262.186 174.713 262.186 175.93C262.186 177.118 261.732 178.13 260.822 178.966C259.913 179.802 258.754 180.22 257.346 180.22C255.938 180.22 254.78 179.802 253.87 178.966C252.961 178.13 252.506 177.118 252.506 175.93C252.506 174.683 252.983 173.671 253.936 172.894C254.347 172.542 254.824 172.271 255.366 172.08ZM254.816 166.272C254.156 166.873 253.826 167.599 253.826 168.45C253.826 169.301 254.156 170.027 254.816 170.628C255.476 171.229 256.32 171.53 257.346 171.53C258.373 171.53 259.216 171.229 259.876 170.628C260.536 170.027 260.866 169.301 260.866 168.45C260.866 167.599 260.536 166.873 259.876 166.272C259.216 165.671 258.373 165.37 257.346 165.37C256.32 165.37 255.476 165.671 254.816 166.272ZM253.496 175.93C253.496 176.839 253.856 177.617 254.574 178.262C255.293 178.907 256.217 179.23 257.346 179.23C258.476 179.23 259.4 178.907 260.118 178.262C260.837 177.617 261.196 176.839 261.196 175.93C261.196 174.977 260.837 174.17 260.118 173.51C259.4 172.85 258.476 172.52 257.346 172.52C256.217 172.52 255.293 172.85 254.574 173.51C253.856 174.17 253.496 174.977 253.496 175.93Z" fill="#381611"/>
<path d="M274.879 177V170.84H272.499V170H278.099V170.84H275.719V177H274.879ZM285.805 177V170H286.645V177H285.805ZM279.505 177V170H280.345V172.45H282.305C283.005 172.45 283.574 172.669 284.013 173.108C284.461 173.537 284.685 174.088 284.685 174.76C284.685 175.395 284.461 175.927 284.013 176.356C283.565 176.785 282.995 177 282.305 177H279.505ZM280.345 176.16H282.375C282.823 176.16 283.177 176.034 283.439 175.782C283.709 175.521 283.845 175.18 283.845 174.76C283.845 174.303 283.714 173.943 283.453 173.682C283.191 173.421 282.832 173.29 282.375 173.29H280.345V176.16ZM293.854 174.69H294.764C294.586 175.465 294.222 176.067 293.672 176.496C293.13 176.925 292.468 177.14 291.684 177.14C290.713 177.14 289.92 176.809 289.304 176.146C288.697 175.483 288.394 174.601 288.394 173.5C288.394 172.399 288.697 171.517 289.304 170.854C289.92 170.191 290.713 169.86 291.684 169.86C292.458 169.86 293.121 170.075 293.672 170.504C294.222 170.924 294.586 171.503 294.764 172.24H293.854C293.751 171.867 293.518 171.517 293.154 171.19C292.799 170.863 292.309 170.7 291.684 170.7C290.965 170.7 290.377 170.952 289.92 171.456C289.462 171.96 289.234 172.641 289.234 173.5C289.234 174.359 289.462 175.04 289.92 175.544C290.377 176.048 290.965 176.3 291.684 176.3C292.3 176.3 292.79 176.127 293.154 175.782C293.518 175.437 293.751 175.073 293.854 174.69ZM296.304 177V176.02H297.284V177H296.304ZM304.04 175.544C304.488 176.048 305.058 176.3 305.748 176.3C306.439 176.3 307.008 176.048 307.456 175.544C307.904 175.04 308.128 174.359 308.128 173.5C308.128 172.641 307.904 171.96 307.456 171.456C307.008 170.952 306.439 170.7 305.748 170.7C305.058 170.7 304.488 170.952 304.04 171.456C303.592 171.96 303.368 172.641 303.368 173.5C303.368 174.359 303.592 175.04 304.04 175.544ZM302.528 179.8V170H303.228L303.368 171.12H303.438C303.625 170.821 303.924 170.537 304.334 170.266C304.745 169.995 305.24 169.86 305.818 169.86C306.714 169.86 307.461 170.196 308.058 170.868C308.665 171.531 308.968 172.408 308.968 173.5C308.968 174.592 308.665 175.474 308.058 176.146C307.461 176.809 306.714 177.14 305.818 177.14C305.24 177.14 304.745 177.005 304.334 176.734C303.924 176.463 303.625 176.179 303.438 175.88H303.368V179.8H302.528ZM310.301 179.8V178.96H311.491C311.65 178.96 311.766 178.923 311.841 178.848C311.925 178.773 311.995 178.661 312.051 178.512L312.429 177.448L309.601 170H310.441L312.681 175.95H312.961L315.061 170H315.901L312.751 178.89C312.527 179.497 312.107 179.8 311.491 179.8H310.301ZM316.737 173.64V173.29C316.737 172.021 316.886 171.013 317.185 170.266C317.484 169.51 317.964 168.955 318.627 168.6C318.879 168.469 319.15 168.362 319.439 168.278C319.728 168.185 319.962 168.124 320.139 168.096C320.316 168.059 320.638 168.007 321.105 167.942C321.441 167.895 321.67 167.793 321.791 167.634C321.922 167.475 321.987 167.214 321.987 166.85H322.757C322.757 167.429 322.636 167.863 322.393 168.152C322.15 168.432 321.782 168.614 321.287 168.698C320.914 168.745 320.629 168.787 320.433 168.824C320.237 168.852 320.004 168.908 319.733 168.992C319.472 169.067 319.224 169.169 318.991 169.3C318.188 169.748 317.717 170.588 317.577 171.82H317.647C318.198 170.98 318.991 170.56 320.027 170.56C320.942 170.56 321.693 170.868 322.281 171.484C322.878 172.091 323.177 172.879 323.177 173.85C323.177 174.83 322.878 175.623 322.281 176.23C321.684 176.837 320.909 177.14 319.957 177.14C318.996 177.14 318.216 176.827 317.619 176.202C317.031 175.567 316.737 174.713 316.737 173.64ZM321.665 175.628C322.113 175.171 322.337 174.578 322.337 173.85C322.337 173.122 322.113 172.534 321.665 172.086C321.226 171.629 320.657 171.4 319.957 171.4C319.257 171.4 318.683 171.629 318.235 172.086C317.796 172.534 317.577 173.122 317.577 173.85C317.577 174.578 317.796 175.171 318.235 175.628C318.683 176.076 319.257 176.3 319.957 176.3C320.657 176.3 321.226 176.076 321.665 175.628ZM324.783 177V176.02H325.763V177H324.783ZM326.742 179.8L330.592 166.78H331.432L327.582 179.8H326.742ZM332.552 177V170H333.392V173.22L336.794 170H337.942L334.302 173.43L338.082 177H336.934L333.392 173.64V177H332.552ZM339.196 177V170H342.766C343.326 170 343.779 170.177 344.124 170.532C344.479 170.877 344.656 171.33 344.656 171.89C344.656 172.366 344.516 172.763 344.236 173.08C344.115 173.229 343.975 173.346 343.816 173.43V173.5C343.975 173.556 344.138 173.663 344.306 173.822C344.633 174.149 344.796 174.555 344.796 175.04C344.796 175.637 344.619 176.113 344.264 176.468C343.91 176.823 343.434 177 342.836 177H339.196ZM340.036 176.23H342.766C343.121 176.23 343.406 176.123 343.62 175.908C343.844 175.684 343.956 175.395 343.956 175.04C343.956 174.685 343.844 174.401 343.62 174.186C343.406 173.962 343.121 173.85 342.766 173.85H340.036V176.23ZM340.036 173.08H342.696C343.014 173.08 343.28 172.973 343.494 172.758C343.709 172.534 343.816 172.245 343.816 171.89C343.816 171.573 343.709 171.307 343.494 171.092C343.28 170.877 343.014 170.77 342.696 170.77H340.036V173.08ZM349.696 177V170H351.334L353.476 176.09H353.756L355.898 170H357.536V177H356.696V170.91H356.416L354.274 177H352.958L350.816 170.91H350.536V177H349.696ZM360.052 171.75L361.312 170.042L359.282 169.44L359.562 168.67L361.564 169.37L361.522 167.2H362.362L362.32 169.37L364.322 168.67L364.602 169.44L362.572 170.042L363.832 171.75L363.202 172.24L361.942 170.49L360.682 172.24L360.052 171.75Z" fill="#381611"/>
<path d="M229.189 433V425.96H226.549V425.3H232.489V425.96H229.849V433H229.189ZM233.314 429.92H237.109C237.08 429.37 236.889 428.923 236.537 428.578C236.193 428.226 235.76 428.05 235.239 428.05C234.711 428.05 234.271 428.219 233.919 428.556C233.575 428.886 233.373 429.341 233.314 429.92ZM236.889 431.46H237.604C237.443 431.915 237.168 432.303 236.779 432.626C236.398 432.949 235.885 433.11 235.239 433.11C234.477 433.11 233.853 432.85 233.369 432.329C232.893 431.808 232.654 431.115 232.654 430.25C232.654 429.385 232.893 428.692 233.369 428.171C233.853 427.65 234.477 427.39 235.239 427.39C235.965 427.39 236.567 427.647 237.043 428.16C237.527 428.666 237.769 429.326 237.769 430.14C237.769 430.25 237.762 430.356 237.747 430.459C237.74 430.488 237.736 430.529 237.736 430.58H233.314C233.373 431.145 233.582 431.599 233.941 431.944C234.301 432.281 234.733 432.45 235.239 432.45C235.643 432.45 235.984 432.351 236.262 432.153C236.541 431.955 236.75 431.724 236.889 431.46ZM239.141 433V427.5H239.801V430.03L242.474 427.5H243.376L240.516 430.195L243.486 433H242.584L239.801 430.36V433H239.141ZM243.927 435.2V434.54H244.862C244.986 434.54 245.078 434.511 245.137 434.452C245.203 434.393 245.258 434.305 245.302 434.188L245.599 433.352L243.377 427.5H244.037L245.797 432.175H246.017L247.667 427.5H248.327L245.852 434.485C245.676 434.962 245.346 435.2 244.862 435.2H243.927ZM249.314 433V427.5H249.974V432.34H252.394V427.5H253.054V432.34H255.474V427.5H256.134V432.34H256.959V434.32H256.299V433H249.314ZM258.058 433V427.5H258.718V432.285H258.938L261.303 427.5H262.513V433H261.853V428.215H261.633L259.268 433H258.058ZM264.277 433V427.5H264.937V432.285H265.157L267.522 427.5H268.732V433H268.072V428.215H267.852L265.487 433H264.277ZM265.047 425.19H265.652C265.682 425.432 265.773 425.623 265.927 425.762C266.081 425.894 266.283 425.96 266.532 425.96C266.782 425.96 266.983 425.894 267.137 425.762C267.291 425.623 267.383 425.432 267.412 425.19H268.017C267.988 425.601 267.838 425.923 267.566 426.158C267.302 426.393 266.958 426.51 266.532 426.51C266.107 426.51 265.759 426.393 265.487 426.158C265.223 425.923 265.077 425.601 265.047 425.19ZM272.473 431.24H273.188C273.276 431.526 273.459 431.801 273.738 432.065C274.024 432.322 274.409 432.45 274.893 432.45C275.406 432.45 275.835 432.285 276.18 431.955C276.532 431.625 276.737 431.167 276.796 430.58H274.233V429.92H276.796C276.737 429.333 276.532 428.875 276.18 428.545C275.835 428.215 275.406 428.05 274.893 428.05C274.402 428.05 274.017 428.175 273.738 428.424C273.459 428.673 273.276 428.934 273.188 429.205H272.473C272.612 428.655 272.898 428.215 273.331 427.885C273.764 427.555 274.284 427.39 274.893 427.39C275.656 427.39 276.275 427.65 276.752 428.171C277.236 428.692 277.478 429.385 277.478 430.25C277.478 431.115 277.236 431.808 276.752 432.329C276.275 432.85 275.656 433.11 274.893 433.11C274.284 433.11 273.764 432.945 273.331 432.615C272.898 432.278 272.612 431.819 272.473 431.24ZM279.85 433V428.16H277.98V427.5H282.38V428.16H280.51V433H279.85ZM286.845 433L286.735 432.23H286.68C286.57 432.384 286.419 432.531 286.229 432.67C285.818 432.963 285.363 433.11 284.865 433.11C284.3 433.11 283.845 432.952 283.501 432.637C283.163 432.322 282.995 431.911 282.995 431.405C282.995 430.884 283.178 430.47 283.545 430.162C283.911 429.854 284.443 429.7 285.14 429.7H286.735V429.48C286.735 428.527 286.258 428.05 285.305 428.05C284.872 428.05 284.524 428.145 284.26 428.336C284.003 428.527 283.856 428.78 283.82 429.095H283.16C283.226 428.604 283.442 428.197 283.809 427.874C284.175 427.551 284.674 427.39 285.305 427.39C285.972 427.39 286.485 427.573 286.845 427.94C287.211 428.299 287.395 428.813 287.395 429.48V433H286.845ZM286.735 430.58V430.305H285.14C284.656 430.305 284.285 430.408 284.029 430.613C283.779 430.818 283.655 431.082 283.655 431.405C283.655 431.72 283.761 431.973 283.974 432.164C284.186 432.355 284.483 432.45 284.865 432.45C285.444 432.45 285.899 432.285 286.229 431.955C286.566 431.618 286.735 431.159 286.735 430.58ZM289.156 433V427.5H293.611V433H292.951V428.16H289.816V433H289.156Z" fill="#381611"/>
<path d="M226.219 458.055V457.395H226.494C226.75 457.395 226.945 457.329 227.077 457.197C227.209 457.065 227.289 456.838 227.319 456.515L227.649 452.5H231.224V458H230.564V453.16H228.254L227.979 456.515C227.935 457.043 227.792 457.432 227.55 457.681C227.315 457.93 226.963 458.055 226.494 458.055H226.219ZM233.26 454.92H237.055C237.026 454.37 236.835 453.923 236.483 453.578C236.139 453.226 235.706 453.05 235.185 453.05C234.657 453.05 234.217 453.219 233.865 453.556C233.521 453.886 233.319 454.341 233.26 454.92ZM236.835 456.46H237.55C237.389 456.915 237.114 457.303 236.725 457.626C236.344 457.949 235.831 458.11 235.185 458.11C234.423 458.11 233.799 457.85 233.315 457.329C232.839 456.808 232.6 456.115 232.6 455.25C232.6 454.385 232.839 453.692 233.315 453.171C233.799 452.65 234.423 452.39 235.185 452.39C235.911 452.39 236.513 452.647 236.989 453.16C237.473 453.666 237.715 454.326 237.715 455.14C237.715 455.25 237.708 455.356 237.693 455.459C237.686 455.488 237.682 455.529 237.682 455.58H233.26C233.319 456.145 233.528 456.599 233.887 456.944C234.247 457.281 234.679 457.45 235.185 457.45C235.589 457.45 235.93 457.351 236.208 457.153C236.487 456.955 236.696 456.724 236.835 456.46ZM240.082 458V453.16H238.212V452.5H242.612V453.16H240.742V458H240.082ZM247.539 457.307C247.04 457.842 246.428 458.11 245.702 458.11C244.976 458.11 244.364 457.842 243.865 457.307C243.366 456.772 243.117 456.086 243.117 455.25C243.117 454.414 243.366 453.728 243.865 453.193C244.364 452.658 244.976 452.39 245.702 452.39C246.428 452.39 247.04 452.658 247.539 453.193C248.038 453.728 248.287 454.414 248.287 455.25C248.287 456.086 248.038 456.772 247.539 457.307ZM247.066 456.834C247.44 456.423 247.627 455.895 247.627 455.25C247.627 454.605 247.44 454.077 247.066 453.666C246.692 453.255 246.237 453.05 245.702 453.05C245.167 453.05 244.712 453.255 244.338 453.666C243.964 454.077 243.777 454.605 243.777 455.25C243.777 455.895 243.964 456.423 244.338 456.834C244.712 457.245 245.167 457.45 245.702 457.45C246.237 457.45 246.692 457.245 247.066 456.834ZM251.908 458V457.395L255.098 454.04C255.575 453.563 255.813 453.05 255.813 452.5C255.813 452.001 255.663 451.602 255.362 451.301C255.061 451 254.662 450.85 254.163 450.85C253.686 450.85 253.29 451.019 252.975 451.356C252.667 451.686 252.513 452.122 252.513 452.665H251.853C251.853 451.924 252.069 451.327 252.502 450.872C252.942 450.417 253.496 450.19 254.163 450.19C254.852 450.19 255.41 450.403 255.835 450.828C256.26 451.253 256.473 451.811 256.473 452.5C256.473 452.815 256.422 453.105 256.319 453.369C256.224 453.626 256.121 453.824 256.011 453.963C255.908 454.102 255.751 454.286 255.538 454.513L252.898 457.285V457.34H256.638V458H251.908ZM262.831 451.246C263.396 451.943 263.678 452.911 263.678 454.15C263.678 455.389 263.396 456.361 262.831 457.065C262.267 457.762 261.577 458.11 260.763 458.11C259.949 458.11 259.26 457.762 258.695 457.065C258.131 456.361 257.848 455.389 257.848 454.15C257.848 452.911 258.131 451.943 258.695 451.246C259.26 450.542 259.949 450.19 260.763 450.19C261.577 450.19 262.267 450.542 262.831 451.246ZM258.508 454.15C258.508 455.199 258.728 456.013 259.168 456.592C259.616 457.164 260.147 457.45 260.763 457.45C261.379 457.45 261.907 457.164 262.347 456.592C262.795 456.013 263.018 455.199 263.018 454.15C263.018 453.116 262.795 452.309 262.347 451.73C261.907 451.143 261.379 450.85 260.763 450.85C260.147 450.85 259.616 451.143 259.168 451.73C258.728 452.309 258.508 453.116 258.508 454.15ZM265.003 458V457.395L268.193 454.04C268.669 453.563 268.908 453.05 268.908 452.5C268.908 452.001 268.757 451.602 268.457 451.301C268.156 451 267.756 450.85 267.258 450.85C266.781 450.85 266.385 451.019 266.07 451.356C265.762 451.686 265.608 452.122 265.608 452.665H264.948C264.948 451.924 265.164 451.327 265.597 450.872C266.037 450.417 266.59 450.19 267.258 450.19C267.947 450.19 268.504 450.403 268.93 450.828C269.355 451.253 269.568 451.811 269.568 452.5C269.568 452.815 269.516 453.105 269.414 453.369C269.318 453.626 269.216 453.824 269.106 453.963C269.003 454.102 268.845 454.286 268.633 454.513L265.993 457.285V457.34H269.733V458H265.003ZM270.943 458V457.395L274.133 454.04C274.61 453.563 274.848 453.05 274.848 452.5C274.848 452.001 274.698 451.602 274.397 451.301C274.097 451 273.697 450.85 273.198 450.85C272.722 450.85 272.326 451.019 272.01 451.356C271.702 451.686 271.548 452.122 271.548 452.665H270.888C270.888 451.924 271.105 451.327 271.537 450.872C271.977 450.417 272.531 450.19 273.198 450.19C273.888 450.19 274.445 450.403 274.87 450.828C275.296 451.253 275.508 451.811 275.508 452.5C275.508 452.815 275.457 453.105 275.354 453.369C275.259 453.626 275.156 453.824 275.046 453.963C274.944 454.102 274.786 454.286 274.573 454.513L271.933 457.285V457.34H275.673V458H270.943ZM279.574 458V452.5H282.984V453.16H280.234V458H279.574ZM283.536 458V457.23H284.306V458H283.536Z" fill="#381611"/>
<rect width="200" height="472" transform="translate(405.219)" fill="#D5C9BB"/>
<rect width="200" height="472" transform="translate(405.219)" fill="url(#paint1_linear_346_6878)"/>
<path d="M433.289 33V20.35H429.989V19.36H432.629C433.069 19.36 433.289 19.14 433.289 18.7V17.6H434.279V33H433.289ZM442.634 28.93H443.624C443.756 29.854 444.182 30.6387 444.9 31.284C445.634 31.9147 446.528 32.23 447.584 32.23C448.728 32.23 449.674 31.8487 450.422 31.086C451.17 30.3233 451.544 29.348 451.544 28.16C451.544 26.972 451.17 25.9967 450.422 25.234C449.674 24.4713 448.728 24.09 447.584 24.09C446.631 24.09 445.795 24.332 445.076 24.816C444.783 25.0067 444.519 25.2413 444.284 25.52H442.964L443.844 17.6H451.654V18.59H444.724L444.064 24.42H444.174C444.365 24.2 444.636 23.98 444.988 23.76C445.78 23.32 446.682 23.1 447.694 23.1C449.073 23.1 450.224 23.5767 451.148 24.53C452.072 25.4833 452.534 26.6933 452.534 28.16C452.534 29.6413 452.065 30.8587 451.126 31.812C450.202 32.7507 449.022 33.22 447.584 33.22C446.25 33.22 445.12 32.802 444.196 31.966C443.287 31.13 442.766 30.118 442.634 28.93ZM454.854 28.93H455.844C455.844 29.8833 456.189 30.6753 456.878 31.306C457.582 31.922 458.521 32.23 459.694 32.23C460.867 32.23 461.799 31.922 462.488 31.306C463.192 30.6753 463.544 29.8833 463.544 28.93C463.544 27.9767 463.192 27.192 462.488 26.576C461.799 25.9453 460.867 25.63 459.694 25.63H458.594V24.64H459.694C460.765 24.64 461.637 24.3393 462.312 23.738C462.987 23.1367 463.324 22.4107 463.324 21.56C463.324 20.6653 462.987 19.91 462.312 19.294C461.637 18.678 460.765 18.37 459.694 18.37C458.623 18.37 457.751 18.678 457.076 19.294C456.401 19.91 456.064 20.6653 456.064 21.56H455.074C455.074 20.3867 455.507 19.3967 456.372 18.59C457.237 17.7833 458.345 17.38 459.694 17.38C461.043 17.38 462.151 17.7833 463.016 18.59C463.881 19.3967 464.314 20.3867 464.314 21.56C464.314 22.66 463.889 23.5767 463.038 24.31C462.701 24.618 462.283 24.8747 461.784 25.08V25.19C462.268 25.3367 462.723 25.586 463.148 25.938C464.072 26.7447 464.534 27.742 464.534 28.93C464.534 30.162 464.087 31.1887 463.192 32.01C462.312 32.8167 461.146 33.22 459.694 33.22C458.242 33.22 457.069 32.8167 456.174 32.01C455.294 31.1887 454.854 30.162 454.854 28.93ZM467.277 28.93H468.267C468.399 29.854 468.824 30.6387 469.543 31.284C470.276 31.9147 471.171 32.23 472.227 32.23C473.371 32.23 474.317 31.8487 475.065 31.086C475.813 30.3233 476.187 29.348 476.187 28.16C476.187 26.972 475.813 25.9967 475.065 25.234C474.317 24.4713 473.371 24.09 472.227 24.09C471.274 24.09 470.438 24.332 469.719 24.816C469.426 25.0067 469.162 25.2413 468.927 25.52H467.607L468.487 17.6H476.297V18.59H469.367L468.707 24.42H468.817C469.008 24.2 469.279 23.98 469.631 23.76C470.423 23.32 471.325 23.1 472.337 23.1C473.716 23.1 474.867 23.5767 475.791 24.53C476.715 25.4833 477.177 26.6933 477.177 28.16C477.177 29.6413 476.708 30.8587 475.769 31.812C474.845 32.7507 473.664 33.22 472.227 33.22C470.892 33.22 469.763 32.802 468.839 31.966C467.93 31.13 467.409 30.118 467.277 28.93Z" fill="#381611"/>
<path d="M489.879 30V23.84H487.499V23H493.099V23.84H490.719V30H489.879ZM500.805 30V23H501.645V30H500.805ZM494.505 30V23H495.345V25.45H497.305C498.005 25.45 498.574 25.6693 499.013 26.108C499.461 26.5373 499.685 27.088 499.685 27.76C499.685 28.3947 499.461 28.9267 499.013 29.356C498.565 29.7853 497.995 30 497.305 30H494.505ZM495.345 29.16H497.375C497.823 29.16 498.177 29.034 498.439 28.782C498.709 28.5207 498.845 28.18 498.845 27.76C498.845 27.3027 498.714 26.9433 498.453 26.682C498.191 26.4207 497.832 26.29 497.375 26.29H495.345V29.16ZM508.854 27.69H509.764C509.586 28.4647 509.222 29.0667 508.672 29.496C508.13 29.9253 507.468 30.14 506.684 30.14C505.713 30.14 504.92 29.8087 504.304 29.146C503.697 28.4833 503.394 27.6013 503.394 26.5C503.394 25.3987 503.697 24.5167 504.304 23.854C504.92 23.1913 505.713 22.86 506.684 22.86C507.458 22.86 508.121 23.0747 508.672 23.504C509.222 23.924 509.586 24.5027 509.764 25.24H508.854C508.751 24.8667 508.518 24.5167 508.154 24.19C507.799 23.8633 507.309 23.7 506.684 23.7C505.965 23.7 505.377 23.952 504.92 24.456C504.462 24.96 504.234 25.6413 504.234 26.5C504.234 27.3587 504.462 28.04 504.92 28.544C505.377 29.048 505.965 29.3 506.684 29.3C507.3 29.3 507.79 29.1273 508.154 28.782C508.518 28.4367 508.751 28.0727 508.854 27.69ZM511.304 30V29.02H512.284V30H511.304ZM519.04 28.544C519.488 29.048 520.058 29.3 520.748 29.3C521.439 29.3 522.008 29.048 522.456 28.544C522.904 28.04 523.128 27.3587 523.128 26.5C523.128 25.6413 522.904 24.96 522.456 24.456C522.008 23.952 521.439 23.7 520.748 23.7C520.058 23.7 519.488 23.952 519.04 24.456C518.592 24.96 518.368 25.6413 518.368 26.5C518.368 27.3587 518.592 28.04 519.04 28.544ZM517.528 32.8V23H518.228L518.368 24.12H518.438C518.625 23.8213 518.924 23.5367 519.334 23.266C519.745 22.9953 520.24 22.86 520.818 22.86C521.714 22.86 522.461 23.196 523.058 23.868C523.665 24.5307 523.968 25.408 523.968 26.5C523.968 27.592 523.665 28.474 523.058 29.146C522.461 29.8087 521.714 30.14 520.818 30.14C520.24 30.14 519.745 30.0047 519.334 29.734C518.924 29.4633 518.625 29.1787 518.438 28.88H518.368V32.8H517.528ZM525.301 32.8V31.96H526.491C526.65 31.96 526.766 31.9227 526.841 31.848C526.925 31.7733 526.995 31.6613 527.051 31.512L527.429 30.448L524.601 23H525.441L527.681 28.95H527.961L530.061 23H530.901L527.751 31.89C527.527 32.4967 527.107 32.8 526.491 32.8H525.301ZM531.737 26.64V26.29C531.737 25.0207 531.886 24.0127 532.185 23.266C532.484 22.51 532.964 21.9547 533.627 21.6C533.879 21.4693 534.15 21.362 534.439 21.278C534.728 21.1847 534.962 21.124 535.139 21.096C535.316 21.0587 535.638 21.0073 536.105 20.942C536.441 20.8953 536.67 20.7927 536.791 20.634C536.922 20.4753 536.987 20.214 536.987 19.85H537.757C537.757 20.4287 537.636 20.8627 537.393 21.152C537.15 21.432 536.782 21.614 536.287 21.698C535.914 21.7447 535.629 21.7867 535.433 21.824C535.237 21.852 535.004 21.908 534.733 21.992C534.472 22.0667 534.224 22.1693 533.991 22.3C533.188 22.748 532.717 23.588 532.577 24.82H532.647C533.198 23.98 533.991 23.56 535.027 23.56C535.942 23.56 536.693 23.868 537.281 24.484C537.878 25.0907 538.177 25.8793 538.177 26.85C538.177 27.83 537.878 28.6233 537.281 29.23C536.684 29.8367 535.909 30.14 534.957 30.14C533.996 30.14 533.216 29.8273 532.619 29.202C532.031 28.5673 531.737 27.7133 531.737 26.64ZM536.665 28.628C537.113 28.1707 537.337 27.578 537.337 26.85C537.337 26.122 537.113 25.534 536.665 25.086C536.226 24.6287 535.657 24.4 534.957 24.4C534.257 24.4 533.683 24.6287 533.235 25.086C532.796 25.534 532.577 26.122 532.577 26.85C532.577 27.578 532.796 28.1707 533.235 28.628C533.683 29.076 534.257 29.3 534.957 29.3C535.657 29.3 536.226 29.076 536.665 28.628ZM539.783 30V29.02H540.763V30H539.783ZM541.742 32.8L545.592 19.78H546.432L542.582 32.8H541.742ZM547.552 30V23H548.392V26.22L551.794 23H552.942L549.302 26.43L553.082 30H551.934L548.392 26.64V30H547.552ZM554.196 30V23H557.766C558.326 23 558.779 23.1773 559.124 23.532C559.479 23.8773 559.656 24.33 559.656 24.89C559.656 25.366 559.516 25.7627 559.236 26.08C559.115 26.2293 558.975 26.346 558.816 26.43V26.5C558.975 26.556 559.138 26.6633 559.306 26.822C559.633 27.1487 559.796 27.5547 559.796 28.04C559.796 28.6373 559.619 29.1133 559.264 29.468C558.91 29.8227 558.434 30 557.836 30H554.196ZM555.036 29.23H557.766C558.121 29.23 558.406 29.1227 558.62 28.908C558.844 28.684 558.956 28.3947 558.956 28.04C558.956 27.6853 558.844 27.4007 558.62 27.186C558.406 26.962 558.121 26.85 557.766 26.85H555.036V29.23ZM555.036 26.08H557.696C558.014 26.08 558.28 25.9727 558.494 25.758C558.709 25.534 558.816 25.2447 558.816 24.89C558.816 24.5727 558.709 24.3067 558.494 24.092C558.28 23.8773 558.014 23.77 557.696 23.77H555.036V26.08ZM564.696 30V23H566.334L568.476 29.09H568.756L570.898 23H572.536V30H571.696V23.91H571.416L569.274 30H567.958L565.816 23.91H565.536V30H564.696ZM575.052 24.75L576.312 23.042L574.282 22.44L574.562 21.67L576.564 22.37L576.522 20.2H577.362L577.32 22.37L579.322 21.67L579.602 22.44L577.572 23.042L578.832 24.75L578.202 25.24L576.942 23.49L575.682 25.24L575.052 24.75Z" fill="#381611"/>
<path d="M446.335 236.04V233.84H446.39C446.735 233.84 446.988 233.759 447.149 233.598C447.311 233.437 447.406 233.187 447.435 232.85L447.963 226.8H452.55V233.84H453.43V236.04H452.77V234.5H446.995V236.04H446.335ZM447.71 233.84H451.89V227.46H448.568L448.095 232.85C448.059 233.209 447.985 233.477 447.875 233.653C447.817 233.741 447.762 233.803 447.71 233.84ZM458.675 233.807C458.177 234.342 457.564 234.61 456.838 234.61C456.112 234.61 455.5 234.342 455.001 233.807C454.503 233.272 454.253 232.586 454.253 231.75C454.253 230.914 454.503 230.228 455.001 229.693C455.5 229.158 456.112 228.89 456.838 228.89C457.564 228.89 458.177 229.158 458.675 229.693C459.174 230.228 459.423 230.914 459.423 231.75C459.423 232.586 459.174 233.272 458.675 233.807ZM458.202 233.334C458.576 232.923 458.763 232.395 458.763 231.75C458.763 231.105 458.576 230.577 458.202 230.166C457.828 229.755 457.374 229.55 456.838 229.55C456.303 229.55 455.848 229.755 455.474 230.166C455.1 230.577 454.913 231.105 454.913 231.75C454.913 232.395 455.1 232.923 455.474 233.334C455.848 233.745 456.303 233.95 456.838 233.95C457.374 233.95 457.828 233.745 458.202 233.334ZM459.809 234.5L461.657 231.695L459.864 229H460.634L462.119 231.255H462.339L463.824 229H464.594L462.801 231.695L464.649 234.5H463.879L462.339 232.135H462.119L460.579 234.5H459.809ZM469.46 233.807C468.962 234.342 468.349 234.61 467.623 234.61C466.897 234.61 466.285 234.342 465.786 233.807C465.288 233.272 465.038 232.586 465.038 231.75C465.038 230.914 465.288 230.228 465.786 229.693C466.285 229.158 466.897 228.89 467.623 228.89C468.349 228.89 468.962 229.158 469.46 229.693C469.959 230.228 470.208 230.914 470.208 231.75C470.208 232.586 469.959 233.272 469.46 233.807ZM468.987 233.334C469.361 232.923 469.548 232.395 469.548 231.75C469.548 231.105 469.361 230.577 468.987 230.166C468.613 229.755 468.159 229.55 467.623 229.55C467.088 229.55 466.633 229.755 466.259 230.166C465.885 230.577 465.698 231.105 465.698 231.75C465.698 232.395 465.885 232.923 466.259 233.334C466.633 233.745 467.088 233.95 467.623 233.95C468.159 233.95 468.613 233.745 468.987 233.334ZM470.699 235.82V233.84H470.754C471.032 233.84 471.238 233.781 471.37 233.664C471.502 233.547 471.579 233.349 471.601 233.07L471.931 229H475.484V233.84H476.309V235.82H475.649V234.5H471.359V235.82H470.699ZM471.909 233.84H474.824V229.66H472.514L472.239 233.07C472.209 233.327 472.147 233.532 472.052 233.686C472.015 233.752 471.967 233.803 471.909 233.84ZM477.412 234.5V229H478.072V231.42H481.207V229H481.867V234.5H481.207V232.08H478.072V234.5H477.412ZM487.668 233.807C487.17 234.342 486.557 234.61 485.831 234.61C485.105 234.61 484.493 234.342 483.994 233.807C483.496 233.272 483.246 232.586 483.246 231.75C483.246 230.914 483.496 230.228 483.994 229.693C484.493 229.158 485.105 228.89 485.831 228.89C486.557 228.89 487.17 229.158 487.668 229.693C488.167 230.228 488.416 230.914 488.416 231.75C488.416 232.586 488.167 233.272 487.668 233.807ZM487.195 233.334C487.569 232.923 487.756 232.395 487.756 231.75C487.756 231.105 487.569 230.577 487.195 230.166C486.821 229.755 486.367 229.55 485.831 229.55C485.296 229.55 484.841 229.755 484.467 230.166C484.093 230.577 483.906 231.105 483.906 231.75C483.906 232.395 484.093 232.923 484.467 233.334C484.841 233.745 485.296 233.95 485.831 233.95C486.367 233.95 486.821 233.745 487.195 233.334ZM493.692 232.685H494.407C494.267 233.294 493.981 233.767 493.549 234.104C493.123 234.441 492.603 234.61 491.987 234.61C491.224 234.61 490.601 234.35 490.117 233.829C489.64 233.308 489.402 232.615 489.402 231.75C489.402 230.885 489.64 230.192 490.117 229.671C490.601 229.15 491.224 228.89 491.987 228.89C492.595 228.89 493.116 229.059 493.549 229.396C493.981 229.726 494.267 230.181 494.407 230.76H493.692C493.611 230.467 493.428 230.192 493.142 229.935C492.863 229.678 492.478 229.55 491.987 229.55C491.422 229.55 490.96 229.748 490.601 230.144C490.241 230.54 490.062 231.075 490.062 231.75C490.062 232.425 490.241 232.96 490.601 233.356C490.96 233.752 491.422 233.95 491.987 233.95C492.471 233.95 492.856 233.814 493.142 233.543C493.428 233.272 493.611 232.986 493.692 232.685ZM496.722 234.5V229.66H494.852V229H499.252V229.66H497.382V234.5H496.722ZM500.357 234.5V229H501.017V230.925H502.777C503.327 230.925 503.774 231.097 504.119 231.442C504.471 231.779 504.647 232.212 504.647 232.74C504.647 233.239 504.471 233.657 504.119 233.994C503.767 234.331 503.32 234.5 502.777 234.5H500.357ZM501.017 233.84H502.832C503.184 233.84 503.463 233.741 503.668 233.543C503.881 233.338 503.987 233.07 503.987 232.74C503.987 232.381 503.884 232.098 503.679 231.893C503.474 231.688 503.191 231.585 502.832 231.585H501.017V233.84ZM512.418 233.807C511.92 234.342 511.307 234.61 510.581 234.61C509.855 234.61 509.243 234.342 508.744 233.807C508.246 233.272 507.996 232.586 507.996 231.75C507.996 230.914 508.246 230.228 508.744 229.693C509.243 229.158 509.855 228.89 510.581 228.89C511.307 228.89 511.92 229.158 512.418 229.693C512.917 230.228 513.166 230.914 513.166 231.75C513.166 232.586 512.917 233.272 512.418 233.807ZM511.945 233.334C512.319 232.923 512.506 232.395 512.506 231.75C512.506 231.105 512.319 230.577 511.945 230.166C511.571 229.755 511.117 229.55 510.581 229.55C510.046 229.55 509.591 229.755 509.217 230.166C508.843 230.577 508.656 231.105 508.656 231.75C508.656 232.395 508.843 232.923 509.217 233.334C509.591 233.745 510.046 233.95 510.581 233.95C511.117 233.95 511.571 233.745 511.945 233.334ZM515.532 234.5V229.66H513.662V229H518.062V229.66H516.192V234.5H515.532ZM521.304 234.5V229H525.759V234.5H525.099V229.66H521.964V234.5H521.304ZM528.712 233.356C529.064 233.752 529.511 233.95 530.054 233.95C530.597 233.95 531.044 233.752 531.396 233.356C531.748 232.96 531.924 232.425 531.924 231.75C531.924 231.075 531.748 230.54 531.396 230.144C531.044 229.748 530.597 229.55 530.054 229.55C529.511 229.55 529.064 229.748 528.712 230.144C528.36 230.54 528.184 231.075 528.184 231.75C528.184 232.425 528.36 232.96 528.712 233.356ZM527.524 236.7V229H528.074L528.184 229.88H528.239C528.386 229.645 528.62 229.422 528.943 229.209C529.266 228.996 529.654 228.89 530.109 228.89C530.813 228.89 531.4 229.154 531.869 229.682C532.346 230.203 532.584 230.892 532.584 231.75C532.584 232.608 532.346 233.301 531.869 233.829C531.4 234.35 530.813 234.61 530.109 234.61C529.654 234.61 529.266 234.504 528.943 234.291C528.62 234.078 528.386 233.855 528.239 233.62H528.184V236.7H527.524ZM537.996 233.807C537.497 234.342 536.885 234.61 536.159 234.61C535.433 234.61 534.82 234.342 534.322 233.807C533.823 233.272 533.574 232.586 533.574 231.75C533.574 230.914 533.823 230.228 534.322 229.693C534.82 229.158 535.433 228.89 536.159 228.89C536.885 228.89 537.497 229.158 537.996 229.693C538.494 230.228 538.744 230.914 538.744 231.75C538.744 232.586 538.494 233.272 537.996 233.807ZM537.523 233.334C537.897 232.923 538.084 232.395 538.084 231.75C538.084 231.105 537.897 230.577 537.523 230.166C537.149 229.755 536.694 229.55 536.159 229.55C535.623 229.55 535.169 229.755 534.795 230.166C534.421 230.577 534.234 231.105 534.234 231.75C534.234 232.395 534.421 232.923 534.795 233.334C535.169 233.745 535.623 233.95 536.159 233.95C536.694 233.95 537.149 233.745 537.523 233.334ZM539.234 235.82V233.84H539.289C539.568 233.84 539.773 233.781 539.905 233.664C540.037 233.547 540.114 233.349 540.136 233.07L540.466 229H544.019V233.84H544.844V235.82H544.184V234.5H539.894V235.82H539.234ZM540.444 233.84H543.359V229.66H541.049L540.774 233.07C540.745 233.327 540.682 233.532 540.587 233.686C540.55 233.752 540.503 233.803 540.444 233.84ZM549.522 234.5L549.412 233.73H549.357C549.247 233.884 549.097 234.031 548.906 234.17C548.495 234.463 548.041 234.61 547.542 234.61C546.977 234.61 546.523 234.452 546.178 234.137C545.841 233.822 545.672 233.411 545.672 232.905C545.672 232.384 545.855 231.97 546.222 231.662C546.589 231.354 547.12 231.2 547.817 231.2H549.412V230.98C549.412 230.027 548.935 229.55 547.982 229.55C547.549 229.55 547.201 229.645 546.937 229.836C546.68 230.027 546.534 230.28 546.497 230.595H545.837C545.903 230.104 546.119 229.697 546.486 229.374C546.853 229.051 547.351 228.89 547.982 228.89C548.649 228.89 549.163 229.073 549.522 229.44C549.889 229.799 550.072 230.313 550.072 230.98V234.5H549.522ZM549.412 232.08V231.805H547.817C547.333 231.805 546.963 231.908 546.706 232.113C546.457 232.318 546.332 232.582 546.332 232.905C546.332 233.22 546.438 233.473 546.651 233.664C546.864 233.855 547.161 233.95 547.542 233.95C548.121 233.95 548.576 233.785 548.906 233.455C549.243 233.118 549.412 232.659 549.412 232.08ZM550.954 234.5L553.374 231.695L551.119 229H551.933L554.089 231.585V229H554.749V231.585L556.905 229H557.719L555.464 231.695L557.884 234.5H557.07L554.749 231.805V234.5H554.089V231.805L551.768 234.5H550.954ZM558.762 234.5V229H559.422V233.785H559.642L562.007 229H563.217V234.5H562.557V229.715H562.337L559.972 234.5H558.762Z" fill="#947D66"/>
<path d="M430.209 433V425.3H430.869V428.765H435.434V425.3H436.094V433H435.434V429.425H430.869V433H430.209ZM441.537 433L441.427 432.23H441.372C441.262 432.384 441.112 432.531 440.921 432.67C440.51 432.963 440.056 433.11 439.557 433.11C438.992 433.11 438.538 432.952 438.193 432.637C437.856 432.322 437.687 431.911 437.687 431.405C437.687 430.884 437.87 430.47 438.237 430.162C438.604 429.854 439.135 429.7 439.832 429.7H441.427V429.48C441.427 428.527 440.95 428.05 439.997 428.05C439.564 428.05 439.216 428.145 438.952 428.336C438.695 428.527 438.549 428.78 438.512 429.095H437.852C437.918 428.604 438.134 428.197 438.501 427.874C438.868 427.551 439.366 427.39 439.997 427.39C440.664 427.39 441.178 427.573 441.537 427.94C441.904 428.299 442.087 428.813 442.087 429.48V433H441.537ZM441.427 430.58V430.305H439.832C439.348 430.305 438.978 430.408 438.721 430.613C438.472 430.818 438.347 431.082 438.347 431.405C438.347 431.72 438.453 431.973 438.666 432.164C438.879 432.355 439.176 432.45 439.557 432.45C440.136 432.45 440.591 432.285 440.921 431.955C441.258 431.618 441.427 431.159 441.427 430.58ZM446.873 433V430.767C446.397 431.082 445.847 431.24 445.223 431.24C444.585 431.24 444.094 431.068 443.749 430.723C443.412 430.371 443.243 429.865 443.243 429.205V427.5H443.903V429.205C443.903 430.122 444.362 430.58 445.278 430.58C445.902 430.58 446.433 430.415 446.873 430.085V427.5H447.533V433H446.873ZM452.87 433L452.76 432.23H452.705C452.595 432.384 452.445 432.531 452.254 432.67C451.843 432.963 451.389 433.11 450.89 433.11C450.325 433.11 449.871 432.952 449.526 432.637C449.189 432.322 449.02 431.911 449.02 431.405C449.02 430.884 449.203 430.47 449.57 430.162C449.937 429.854 450.468 429.7 451.165 429.7H452.76V429.48C452.76 428.527 452.283 428.05 451.33 428.05C450.897 428.05 450.549 428.145 450.285 428.336C450.028 428.527 449.882 428.78 449.845 429.095H449.185C449.251 428.604 449.467 428.197 449.834 427.874C450.201 427.551 450.699 427.39 451.33 427.39C451.997 427.39 452.511 427.573 452.87 427.94C453.237 428.299 453.42 428.813 453.42 429.48V433H452.87ZM452.76 430.58V430.305H451.165C450.681 430.305 450.311 430.408 450.054 430.613C449.805 430.818 449.68 431.082 449.68 431.405C449.68 431.72 449.786 431.973 449.999 432.164C450.212 432.355 450.509 432.45 450.89 432.45C451.469 432.45 451.924 432.285 452.254 431.955C452.591 431.618 452.76 431.159 452.76 430.58ZM454.302 433.055V432.395H454.577C454.833 432.395 455.028 432.329 455.16 432.197C455.292 432.065 455.372 431.838 455.402 431.515L455.732 427.5H459.307V433H458.647V428.16H456.337L456.062 431.515C456.018 432.043 455.875 432.432 455.633 432.681C455.398 432.93 455.046 433.055 454.577 433.055H454.302ZM465.105 432.307C464.607 432.842 463.994 433.11 463.268 433.11C462.542 433.11 461.93 432.842 461.431 432.307C460.933 431.772 460.683 431.086 460.683 430.25C460.683 429.414 460.933 428.728 461.431 428.193C461.93 427.658 462.542 427.39 463.268 427.39C463.994 427.39 464.607 427.658 465.105 428.193C465.604 428.728 465.853 429.414 465.853 430.25C465.853 431.086 465.604 431.772 465.105 432.307ZM464.632 431.834C465.006 431.423 465.193 430.895 465.193 430.25C465.193 429.605 465.006 429.077 464.632 428.666C464.258 428.255 463.804 428.05 463.268 428.05C462.733 428.05 462.278 428.255 461.904 428.666C461.53 429.077 461.343 429.605 461.343 430.25C461.343 430.895 461.53 431.423 461.904 431.834C462.278 432.245 462.733 432.45 463.268 432.45C463.804 432.45 464.258 432.245 464.632 431.834ZM469.199 431.24H469.914C470.002 431.526 470.186 431.801 470.464 432.065C470.75 432.322 471.135 432.45 471.619 432.45C472.133 432.45 472.562 432.285 472.906 431.955C473.258 431.625 473.464 431.167 473.522 430.58H470.959V429.92H473.522C473.464 429.333 473.258 428.875 472.906 428.545C472.562 428.215 472.133 428.05 471.619 428.05C471.128 428.05 470.743 428.175 470.464 428.424C470.186 428.673 470.002 428.934 469.914 429.205H469.199C469.339 428.655 469.625 428.215 470.057 427.885C470.49 427.555 471.011 427.39 471.619 427.39C472.382 427.39 473.002 427.65 473.478 428.171C473.962 428.692 474.204 429.385 474.204 430.25C474.204 431.115 473.962 431.808 473.478 432.329C473.002 432.85 472.382 433.11 471.619 433.11C471.011 433.11 470.49 432.945 470.057 432.615C469.625 432.278 469.339 431.819 469.199 431.24ZM475.581 433V427.5H476.241V430.03L478.914 427.5H479.816L476.956 430.195L479.926 433H479.024L476.241 430.36V433H475.581ZM484.492 431.185H485.207C485.068 431.794 484.782 432.267 484.349 432.604C483.924 432.941 483.403 433.11 482.787 433.11C482.024 433.11 481.401 432.85 480.917 432.329C480.44 431.808 480.202 431.115 480.202 430.25C480.202 429.385 480.44 428.692 480.917 428.171C481.401 427.65 482.024 427.39 482.787 427.39C483.396 427.39 483.916 427.559 484.349 427.896C484.782 428.226 485.068 428.681 485.207 429.26H484.492C484.411 428.967 484.228 428.692 483.942 428.435C483.663 428.178 483.278 428.05 482.787 428.05C482.222 428.05 481.76 428.248 481.401 428.644C481.042 429.04 480.862 429.575 480.862 430.25C480.862 430.925 481.042 431.46 481.401 431.856C481.76 432.252 482.222 432.45 482.787 432.45C483.271 432.45 483.656 432.314 483.942 432.043C484.228 431.772 484.411 431.486 484.492 431.185ZM486.527 433V427.5H490.982V433H490.322V428.16H487.187V433H486.527ZM491.867 433.055V432.395H492.142C492.399 432.395 492.593 432.329 492.725 432.197C492.857 432.065 492.938 431.838 492.967 431.515L493.297 427.5H496.872V433H496.212V428.16H493.902L493.627 431.515C493.583 432.043 493.44 432.432 493.198 432.681C492.964 432.93 492.612 433.055 492.142 433.055H491.867ZM498.414 435.2V434.54H499.349C499.474 434.54 499.565 434.511 499.624 434.452C499.69 434.393 499.745 434.305 499.789 434.188L500.086 433.352L497.864 427.5H498.524L500.284 432.175H500.504L502.154 427.5H502.814L500.339 434.485C500.163 434.962 499.833 435.2 499.349 435.2H498.414ZM507.268 433L507.158 432.23H507.103C506.993 432.384 506.843 432.531 506.652 432.67C506.242 432.963 505.787 433.11 505.288 433.11C504.724 433.11 504.269 432.952 503.924 432.637C503.587 432.322 503.418 431.911 503.418 431.405C503.418 430.884 503.602 430.47 503.968 430.162C504.335 429.854 504.867 429.7 505.563 429.7H507.158V429.48C507.158 428.527 506.682 428.05 505.728 428.05C505.296 428.05 504.947 428.145 504.683 428.336C504.427 428.527 504.28 428.78 504.243 429.095H503.583C503.649 428.604 503.866 428.197 504.232 427.874C504.599 427.551 505.098 427.39 505.728 427.39C506.396 427.39 506.909 427.573 507.268 427.94C507.635 428.299 507.818 428.813 507.818 429.48V433H507.268ZM507.158 430.58V430.305H505.563C505.079 430.305 504.709 430.408 504.452 430.613C504.203 430.818 504.078 431.082 504.078 431.405C504.078 431.72 504.185 431.973 504.397 432.164C504.61 432.355 504.907 432.45 505.288 432.45C505.868 432.45 506.322 432.285 506.652 431.955C506.99 431.618 507.158 431.159 507.158 430.58ZM510.575 433V428.16H508.705V427.5H513.105V428.16H511.235V433H510.575ZM517.57 433L517.46 432.23H517.405C517.295 432.384 517.145 432.531 516.954 432.67C516.544 432.963 516.089 433.11 515.59 433.11C515.026 433.11 514.571 432.952 514.226 432.637C513.889 432.322 513.72 431.911 513.72 431.405C513.72 430.884 513.904 430.47 514.27 430.162C514.637 429.854 515.169 429.7 515.865 429.7H517.46V429.48C517.46 428.527 516.984 428.05 516.03 428.05C515.598 428.05 515.249 428.145 514.985 428.336C514.729 428.527 514.582 428.78 514.545 429.095H513.885C513.951 428.604 514.168 428.197 514.534 427.874C514.901 427.551 515.4 427.39 516.03 427.39C516.698 427.39 517.211 427.573 517.57 427.94C517.937 428.299 518.12 428.813 518.12 429.48V433H517.57ZM517.46 430.58V430.305H515.865C515.381 430.305 515.011 430.408 514.754 430.613C514.505 430.818 514.38 431.082 514.38 431.405C514.38 431.72 514.487 431.973 514.699 432.164C514.912 432.355 515.209 432.45 515.59 432.45C516.17 432.45 516.624 432.285 516.954 431.955C517.292 431.618 517.46 431.159 517.46 430.58ZM519.882 433V427.5H520.542V432.34H523.567V427.5H524.227V432.34H525.052V434.32H524.392V433H519.882ZM526.155 433V427.5H526.815V432.285H527.035L529.4 427.5H530.61V433H529.95V428.215H529.73L527.365 433H526.155ZM532.375 433V427.5H533.035V432.285H533.255L535.62 427.5H536.83V433H536.17V428.215H535.95L533.585 433H532.375Z" fill="#381611"/>
<path d="M429.549 456.185V455.635L432.574 450.3H433.784V455.525H434.884V456.185H433.784V458H433.124V456.185H429.549ZM430.429 455.525H433.124V451.07H432.904L430.429 455.47V455.525ZM438.51 458V452.5H439.17V455.03L441.843 452.5H442.745L439.885 455.195L442.855 458H441.953L439.17 455.36V458H438.51ZM443.731 458V452.5H446.536C446.976 452.5 447.331 452.639 447.603 452.918C447.881 453.189 448.021 453.545 448.021 453.985C448.021 454.359 447.911 454.671 447.691 454.92C447.595 455.037 447.485 455.129 447.361 455.195V455.25C447.485 455.294 447.614 455.378 447.746 455.503C448.002 455.76 448.131 456.079 448.131 456.46C448.131 456.929 447.991 457.303 447.713 457.582C447.434 457.861 447.06 458 446.591 458H443.731ZM444.391 457.395H446.536C446.814 457.395 447.038 457.311 447.207 457.142C447.383 456.966 447.471 456.739 447.471 456.46C447.471 456.181 447.383 455.958 447.207 455.789C447.038 455.613 446.814 455.525 446.536 455.525H444.391V457.395ZM444.391 454.92H446.481C446.73 454.92 446.939 454.836 447.108 454.667C447.276 454.491 447.361 454.264 447.361 453.985C447.361 453.736 447.276 453.527 447.108 453.358C446.939 453.189 446.73 453.105 446.481 453.105H444.391V454.92ZM449.4 458V457.23H450.17V458H449.4ZM454.07 458V457.395L457.26 454.04C457.737 453.563 457.975 453.05 457.975 452.5C457.975 452.001 457.825 451.602 457.524 451.301C457.223 451 456.824 450.85 456.325 450.85C455.848 450.85 455.452 451.019 455.137 451.356C454.829 451.686 454.675 452.122 454.675 452.665H454.015C454.015 451.924 454.231 451.327 454.664 450.872C455.104 450.417 455.658 450.19 456.325 450.19C457.014 450.19 457.572 450.403 457.997 450.828C458.422 451.253 458.635 451.811 458.635 452.5C458.635 452.815 458.584 453.105 458.481 453.369C458.386 453.626 458.283 453.824 458.173 453.963C458.07 454.102 457.913 454.286 457.7 454.513L455.06 457.285V457.34H458.8V458H454.07ZM464.994 451.246C465.558 451.943 465.841 452.911 465.841 454.15C465.841 455.389 465.558 456.361 464.994 457.065C464.429 457.762 463.74 458.11 462.926 458.11C462.112 458.11 461.422 457.762 460.858 457.065C460.293 456.361 460.011 455.389 460.011 454.15C460.011 452.911 460.293 451.943 460.858 451.246C461.422 450.542 462.112 450.19 462.926 450.19C463.74 450.19 464.429 450.542 464.994 451.246ZM460.671 454.15C460.671 455.199 460.891 456.013 461.331 456.592C461.778 457.164 462.31 457.45 462.926 457.45C463.542 457.45 464.07 457.164 464.51 456.592C464.957 456.013 465.181 455.199 465.181 454.15C465.181 453.116 464.957 452.309 464.51 451.73C464.07 451.143 463.542 450.85 462.926 450.85C462.31 450.85 461.778 451.143 461.331 451.73C460.891 452.309 460.671 453.116 460.671 454.15ZM467.165 458V457.395L470.355 454.04C470.832 453.563 471.07 453.05 471.07 452.5C471.07 452.001 470.92 451.602 470.619 451.301C470.318 451 469.919 450.85 469.42 450.85C468.943 450.85 468.547 451.019 468.232 451.356C467.924 451.686 467.77 452.122 467.77 452.665H467.11C467.11 451.924 467.326 451.327 467.759 450.872C468.199 450.417 468.753 450.19 469.42 450.19C470.109 450.19 470.667 450.403 471.092 450.828C471.517 451.253 471.73 451.811 471.73 452.5C471.73 452.815 471.679 453.105 471.576 453.369C471.481 453.626 471.378 453.824 471.268 453.963C471.165 454.102 471.008 454.286 470.795 454.513L468.155 457.285V457.34H471.895V458H467.165ZM472.94 455.965H473.6C473.6 456.39 473.762 456.746 474.084 457.032C474.414 457.311 474.858 457.45 475.415 457.45C475.973 457.45 476.413 457.311 476.735 457.032C477.065 456.746 477.23 456.39 477.23 455.965C477.23 455.51 477.062 455.133 476.724 454.832C476.394 454.524 475.958 454.37 475.415 454.37H474.865V453.71H475.415C475.921 453.71 476.332 453.571 476.647 453.292C476.963 453.013 477.12 452.676 477.12 452.28C477.12 451.884 476.963 451.547 476.647 451.268C476.332 450.989 475.921 450.85 475.415 450.85C474.909 450.85 474.499 450.989 474.183 451.268C473.868 451.547 473.71 451.884 473.71 452.28H473.05C473.05 451.686 473.267 451.191 473.699 450.795C474.139 450.392 474.711 450.19 475.415 450.19C476.119 450.19 476.688 450.392 477.12 450.795C477.56 451.191 477.78 451.686 477.78 452.28C477.78 452.83 477.568 453.288 477.142 453.655C476.974 453.809 476.765 453.937 476.515 454.04V454.095C476.757 454.168 476.985 454.293 477.197 454.469C477.659 454.872 477.89 455.371 477.89 455.965C477.89 456.588 477.667 457.102 477.219 457.505C476.772 457.908 476.171 458.11 475.415 458.11C474.66 458.11 474.059 457.908 473.611 457.505C473.164 457.102 472.94 456.588 472.94 455.965ZM481.898 458V452.5H485.308V453.16H482.558V458H481.898ZM485.859 458V457.23H486.629V458H485.859Z" fill="#381611"/>
<line x1="332.219" y1="364.5" x2="356.219" y2="364.5" stroke="#381611"/>
<path d="M366.069 372.57V367.63H361.519V365.29H366.069V360.35H368.539V365.29H373.089V367.63H368.539V372.57H366.069ZM383.47 374L389.866 358.4H381.156V355.8H392.986V358.14L386.486 374H383.47ZM396.724 374L403.12 358.4H394.41V355.8H406.24V358.14L399.74 374H396.724ZM416.383 374L427.693 355.8H430.293L418.983 374H416.383ZM419.607 358.166C419.26 357.802 418.792 357.62 418.203 357.62C417.613 357.62 417.137 357.802 416.773 358.166C416.426 358.53 416.253 359.041 416.253 359.7C416.253 360.359 416.426 360.87 416.773 361.234C417.137 361.598 417.613 361.78 418.203 361.78C418.792 361.78 419.26 361.598 419.607 361.234C419.971 360.87 420.153 360.359 420.153 359.7C420.153 359.041 419.971 358.53 419.607 358.166ZM415.239 362.664C414.441 361.867 414.043 360.879 414.043 359.7C414.043 358.521 414.441 357.533 415.239 356.736C416.053 355.939 417.041 355.54 418.203 355.54C419.364 355.54 420.343 355.939 421.141 356.736C421.955 357.533 422.363 358.521 422.363 359.7C422.363 360.879 421.955 361.867 421.141 362.664C420.343 363.461 419.364 363.86 418.203 363.86C417.041 363.86 416.053 363.461 415.239 362.664ZM427.043 371.634C427.407 371.998 427.883 372.18 428.473 372.18C429.062 372.18 429.53 371.998 429.877 371.634C430.241 371.27 430.423 370.759 430.423 370.1C430.423 369.441 430.241 368.93 429.877 368.566C429.53 368.202 429.062 368.02 428.473 368.02C427.883 368.02 427.407 368.202 427.043 368.566C426.696 368.93 426.523 369.441 426.523 370.1C426.523 370.759 426.696 371.27 427.043 371.634ZM425.509 373.064C424.711 372.267 424.313 371.279 424.313 370.1C424.313 368.921 424.711 367.933 425.509 367.136C426.306 366.339 427.294 365.94 428.473 365.94C429.651 365.94 430.639 366.339 431.437 367.136C432.234 367.933 432.633 368.921 432.633 370.1C432.633 371.279 432.234 372.267 431.437 373.064C430.639 373.861 429.651 374.26 428.473 374.26C427.294 374.26 426.306 373.861 425.509 373.064Z" fill="#381611"/>
<path d="M462.572 365.354C462.768 365.158 462.768 364.842 462.572 364.646L459.39 361.464C459.195 361.269 458.878 361.269 458.683 361.464C458.488 361.66 458.488 361.976 458.683 362.172L461.512 365L458.683 367.828C458.488 368.024 458.488 368.34 458.683 368.536C458.878 368.731 459.195 368.731 459.39 368.536L462.572 365.354ZM438.219 365.5H462.219V364.5H438.219V365.5Z" fill="#381611"/>
<rect width="187" height="179.506" transform="translate(0.21875 292)" fill="#D5C9BB"/>
<rect width="187" height="179.506" transform="translate(0.21875 292)" fill="url(#paint2_linear_346_6878)"/>
<path d="M25.3188 320.93H26.3088C26.3088 321.883 26.6534 322.675 27.3428 323.306C28.0468 323.922 28.9854 324.23 30.1588 324.23C31.3321 324.23 32.2634 323.922 32.9528 323.306C33.6568 322.675 34.0088 321.883 34.0088 320.93C34.0088 319.977 33.6568 319.192 32.9528 318.576C32.2634 317.945 31.3321 317.63 30.1588 317.63H29.0588V316.64H30.1588C31.2294 316.64 32.1021 316.339 32.7768 315.738C33.4514 315.137 33.7888 314.411 33.7888 313.56C33.7888 312.665 33.4514 311.91 32.7768 311.294C32.1021 310.678 31.2294 310.37 30.1588 310.37C29.0881 310.37 28.2154 310.678 27.5408 311.294C26.8661 311.91 26.5288 312.665 26.5288 313.56H25.5388C25.5388 312.387 25.9714 311.397 26.8368 310.59C27.7021 309.783 28.8094 309.38 30.1588 309.38C31.5081 309.38 32.6154 309.783 33.4808 310.59C34.3461 311.397 34.7788 312.387 34.7788 313.56C34.7788 314.66 34.3534 315.577 33.5028 316.31C33.1654 316.618 32.7474 316.875 32.2488 317.08V317.19C32.7328 317.337 33.1874 317.586 33.6128 317.938C34.5368 318.745 34.9988 319.742 34.9988 320.93C34.9988 322.162 34.5514 323.189 33.6568 324.01C32.7768 324.817 31.6108 325.22 30.1588 325.22C28.7068 325.22 27.5334 324.817 26.6388 324.01C25.7588 323.189 25.3188 322.162 25.3188 320.93ZM40.7119 317.08V316.97C40.2279 316.779 39.8025 316.537 39.4359 316.244C38.5999 315.555 38.1819 314.623 38.1819 313.45C38.1819 312.335 38.6072 311.382 39.4579 310.59C40.3232 309.783 41.4012 309.38 42.6919 309.38C43.9825 309.38 45.0532 309.783 45.9039 310.59C46.7692 311.382 47.2019 312.335 47.2019 313.45C47.2019 314.609 46.7765 315.54 45.9259 316.244C45.5445 316.552 45.1265 316.794 44.6719 316.97V317.08C45.2292 317.285 45.7059 317.557 46.1019 317.894C47.0552 318.701 47.5319 319.713 47.5319 320.93C47.5319 322.118 47.0772 323.13 46.1679 323.966C45.2585 324.802 44.0999 325.22 42.6919 325.22C41.2839 325.22 40.1252 324.802 39.2159 323.966C38.3065 323.13 37.8519 322.118 37.8519 320.93C37.8519 319.683 38.3285 318.671 39.2819 317.894C39.6925 317.542 40.1692 317.271 40.7119 317.08ZM40.1619 311.272C39.5019 311.873 39.1719 312.599 39.1719 313.45C39.1719 314.301 39.5019 315.027 40.1619 315.628C40.8219 316.229 41.6652 316.53 42.6919 316.53C43.7185 316.53 44.5619 316.229 45.2219 315.628C45.8819 315.027 46.2119 314.301 46.2119 313.45C46.2119 312.599 45.8819 311.873 45.2219 311.272C44.5619 310.671 43.7185 310.37 42.6919 310.37C41.6652 310.37 40.8219 310.671 40.1619 311.272ZM38.8419 320.93C38.8419 321.839 39.2012 322.617 39.9199 323.262C40.6385 323.907 41.5625 324.23 42.6919 324.23C43.8212 324.23 44.7452 323.907 45.4639 323.262C46.1825 322.617 46.5419 321.839 46.5419 320.93C46.5419 319.977 46.1825 319.17 45.4639 318.51C44.7452 317.85 43.8212 317.52 42.6919 317.52C41.5625 317.52 40.6385 317.85 39.9199 318.51C39.2012 319.17 38.8419 319.977 38.8419 320.93ZM49.7388 321.26V320.38L55.8988 309.6H57.8788V320.27H60.1888V321.26H57.8788V325H56.8888V321.26H49.7388ZM50.9488 320.27H56.8888V310.59H56.4488L50.9488 320.16V320.27Z" fill="#381611"/>
<path d="M71.8788 322V315.84H69.4988V315H75.0988V315.84H72.7188V322H71.8788ZM82.8048 322V315H83.6448V322H82.8048ZM76.5048 322V315H77.3448V317.45H79.3048C80.0048 317.45 80.5741 317.669 81.0128 318.108C81.4608 318.537 81.6848 319.088 81.6848 319.76C81.6848 320.395 81.4608 320.927 81.0128 321.356C80.5648 321.785 79.9954 322 79.3048 322H76.5048ZM77.3448 321.16H79.3748C79.8228 321.16 80.1774 321.034 80.4388 320.782C80.7094 320.521 80.8448 320.18 80.8448 319.76C80.8448 319.303 80.7141 318.943 80.4528 318.682C80.1914 318.421 79.8321 318.29 79.3748 318.29H77.3448V321.16ZM90.8537 319.69H91.7637C91.5863 320.465 91.2223 321.067 90.6717 321.496C90.1303 321.925 89.4677 322.14 88.6837 322.14C87.713 322.14 86.9197 321.809 86.3037 321.146C85.697 320.483 85.3937 319.601 85.3937 318.5C85.3937 317.399 85.697 316.517 86.3037 315.854C86.9197 315.191 87.713 314.86 88.6837 314.86C89.4583 314.86 90.121 315.075 90.6717 315.504C91.2223 315.924 91.5863 316.503 91.7637 317.24H90.8537C90.751 316.867 90.5177 316.517 90.1537 316.19C89.799 315.863 89.309 315.7 88.6837 315.7C87.965 315.7 87.377 315.952 86.9197 316.456C86.4623 316.96 86.2337 317.641 86.2337 318.5C86.2337 319.359 86.4623 320.04 86.9197 320.544C87.377 321.048 87.965 321.3 88.6837 321.3C89.2997 321.3 89.7897 321.127 90.1537 320.782C90.5177 320.437 90.751 320.073 90.8537 319.69ZM93.3042 322V321.02H94.2842V322H93.3042ZM101.04 320.544C101.488 321.048 102.058 321.3 102.748 321.3C103.439 321.3 104.008 321.048 104.456 320.544C104.904 320.04 105.128 319.359 105.128 318.5C105.128 317.641 104.904 316.96 104.456 316.456C104.008 315.952 103.439 315.7 102.748 315.7C102.058 315.7 101.488 315.952 101.04 316.456C100.592 316.96 100.368 317.641 100.368 318.5C100.368 319.359 100.592 320.04 101.04 320.544ZM99.5282 324.8V315H100.228L100.368 316.12H100.438C100.625 315.821 100.924 315.537 101.334 315.266C101.745 314.995 102.24 314.86 102.818 314.86C103.714 314.86 104.461 315.196 105.058 315.868C105.665 316.531 105.968 317.408 105.968 318.5C105.968 319.592 105.665 320.474 105.058 321.146C104.461 321.809 103.714 322.14 102.818 322.14C102.24 322.14 101.745 322.005 101.334 321.734C100.924 321.463 100.625 321.179 100.438 320.88H100.368V324.8H99.5282ZM107.301 324.8V323.96H108.491C108.65 323.96 108.766 323.923 108.841 323.848C108.925 323.773 108.995 323.661 109.051 323.512L109.429 322.448L106.601 315H107.441L109.681 320.95H109.961L112.061 315H112.901L109.751 323.89C109.527 324.497 109.107 324.8 108.491 324.8H107.301ZM113.737 318.64V318.29C113.737 317.021 113.886 316.013 114.185 315.266C114.484 314.51 114.964 313.955 115.627 313.6C115.879 313.469 116.15 313.362 116.439 313.278C116.728 313.185 116.962 313.124 117.139 313.096C117.316 313.059 117.638 313.007 118.105 312.942C118.441 312.895 118.67 312.793 118.791 312.634C118.922 312.475 118.987 312.214 118.987 311.85H119.757C119.757 312.429 119.636 312.863 119.393 313.152C119.15 313.432 118.782 313.614 118.287 313.698C117.914 313.745 117.629 313.787 117.433 313.824C117.237 313.852 117.004 313.908 116.733 313.992C116.472 314.067 116.224 314.169 115.991 314.3C115.188 314.748 114.717 315.588 114.577 316.82H114.647C115.198 315.98 115.991 315.56 117.027 315.56C117.942 315.56 118.693 315.868 119.281 316.484C119.878 317.091 120.177 317.879 120.177 318.85C120.177 319.83 119.878 320.623 119.281 321.23C118.684 321.837 117.909 322.14 116.957 322.14C115.996 322.14 115.216 321.827 114.619 321.202C114.031 320.567 113.737 319.713 113.737 318.64ZM118.665 320.628C119.113 320.171 119.337 319.578 119.337 318.85C119.337 318.122 119.113 317.534 118.665 317.086C118.226 316.629 117.657 316.4 116.957 316.4C116.257 316.4 115.683 316.629 115.235 317.086C114.796 317.534 114.577 318.122 114.577 318.85C114.577 319.578 114.796 320.171 115.235 320.628C115.683 321.076 116.257 321.3 116.957 321.3C117.657 321.3 118.226 321.076 118.665 320.628ZM121.783 322V321.02H122.763V322H121.783ZM123.742 324.8L127.592 311.78H128.432L124.582 324.8H123.742ZM129.552 322V315H130.392V318.22L133.794 315H134.942L131.302 318.43L135.082 322H133.934L130.392 318.64V322H129.552ZM136.196 322V315H139.766C140.326 315 140.779 315.177 141.124 315.532C141.479 315.877 141.656 316.33 141.656 316.89C141.656 317.366 141.516 317.763 141.236 318.08C141.115 318.229 140.975 318.346 140.816 318.43V318.5C140.975 318.556 141.138 318.663 141.306 318.822C141.633 319.149 141.796 319.555 141.796 320.04C141.796 320.637 141.619 321.113 141.264 321.468C140.91 321.823 140.434 322 139.836 322H136.196ZM137.036 321.23H139.766C140.121 321.23 140.406 321.123 140.62 320.908C140.844 320.684 140.956 320.395 140.956 320.04C140.956 319.685 140.844 319.401 140.62 319.186C140.406 318.962 140.121 318.85 139.766 318.85H137.036V321.23ZM137.036 318.08H139.696C140.014 318.08 140.28 317.973 140.494 317.758C140.709 317.534 140.816 317.245 140.816 316.89C140.816 316.573 140.709 316.307 140.494 316.092C140.28 315.877 140.014 315.77 139.696 315.77H137.036V318.08ZM146.696 322V315H148.334L150.476 321.09H150.756L152.898 315H154.536V322H153.696V315.91H153.416L151.274 322H149.958L147.816 315.91H147.536V322H146.696ZM157.052 316.75L158.312 315.042L156.282 314.44L156.562 313.67L158.564 314.37L158.522 312.2H159.362L159.32 314.37L161.322 313.67L161.602 314.44L159.572 315.042L160.832 316.75L160.202 317.24L158.942 315.49L157.682 317.24L157.052 316.75Z" fill="#381611"/>
<path d="M25.2088 411.506V403.806H25.8688V407.271H30.4337V403.806H31.0938V411.506H30.4337V407.931H25.8688V411.506H25.2088ZM36.537 411.506L36.427 410.736H36.372C36.262 410.89 36.1117 411.037 35.921 411.176C35.5104 411.469 35.0557 411.616 34.557 411.616C33.9924 411.616 33.5377 411.458 33.193 411.143C32.8557 410.828 32.687 410.417 32.687 409.911C32.687 409.39 32.8704 408.976 33.237 408.668C33.6037 408.36 34.1354 408.206 34.832 408.206H36.427V407.986C36.427 407.033 35.9504 406.556 34.997 406.556C34.5644 406.556 34.216 406.651 33.952 406.842C33.6954 407.033 33.5487 407.286 33.512 407.601H32.852C32.918 407.11 33.1344 406.703 33.501 406.38C33.8677 406.057 34.3664 405.896 34.997 405.896C35.6644 405.896 36.1777 406.079 36.537 406.446C36.9037 406.805 37.087 407.319 37.087 407.986V411.506H36.537ZM36.427 409.086V408.811H34.832C34.348 408.811 33.9777 408.914 33.721 409.119C33.4717 409.324 33.347 409.588 33.347 409.911C33.347 410.226 33.4534 410.479 33.666 410.67C33.8787 410.861 34.1757 410.956 34.557 410.956C35.1364 410.956 35.591 410.791 35.921 410.461C36.2584 410.124 36.427 409.665 36.427 409.086ZM41.8733 411.506V409.273C41.3967 409.588 40.8467 409.746 40.2233 409.746C39.5853 409.746 39.094 409.574 38.7493 409.229C38.412 408.877 38.2433 408.371 38.2433 407.711V406.006H38.9033V407.711C38.9033 408.628 39.3617 409.086 40.2783 409.086C40.9017 409.086 41.4333 408.921 41.8733 408.591V406.006H42.5333V411.506H41.8733ZM47.87 411.506L47.76 410.736H47.705C47.595 410.89 47.4447 411.037 47.254 411.176C46.8434 411.469 46.3887 411.616 45.89 411.616C45.3254 411.616 44.8707 411.458 44.526 411.143C44.1887 410.828 44.02 410.417 44.02 409.911C44.02 409.39 44.2034 408.976 44.57 408.668C44.9367 408.36 45.4684 408.206 46.165 408.206H47.76V407.986C47.76 407.033 47.2834 406.556 46.33 406.556C45.8974 406.556 45.549 406.651 45.285 406.842C45.0284 407.033 44.8817 407.286 44.845 407.601H44.185C44.251 407.11 44.4674 406.703 44.834 406.38C45.2007 406.057 45.6994 405.896 46.33 405.896C46.9974 405.896 47.5107 406.079 47.87 406.446C48.2367 406.805 48.42 407.319 48.42 407.986V411.506H47.87ZM47.76 409.086V408.811H46.165C45.681 408.811 45.3107 408.914 45.054 409.119C44.8047 409.324 44.68 409.588 44.68 409.911C44.68 410.226 44.7864 410.479 44.999 410.67C45.2117 410.861 45.5087 410.956 45.89 410.956C46.4694 410.956 46.924 410.791 47.254 410.461C47.5914 410.124 47.76 409.665 47.76 409.086ZM49.3018 411.561V410.901H49.5768C49.8334 410.901 50.0278 410.835 50.1598 410.703C50.2918 410.571 50.3724 410.344 50.4018 410.021L50.7318 406.006H54.3068V411.506H53.6468V406.666H51.3368L51.0618 410.021C51.0178 410.549 50.8748 410.938 50.6328 411.187C50.3981 411.436 50.0461 411.561 49.5768 411.561H49.3018ZM60.1055 410.813C59.6068 411.348 58.9945 411.616 58.2685 411.616C57.5425 411.616 56.9301 411.348 56.4315 410.813C55.9328 410.278 55.6835 409.592 55.6835 408.756C55.6835 407.92 55.9328 407.234 56.4315 406.699C56.9301 406.164 57.5425 405.896 58.2685 405.896C58.9945 405.896 59.6068 406.164 60.1055 406.699C60.6041 407.234 60.8535 407.92 60.8535 408.756C60.8535 409.592 60.6041 410.278 60.1055 410.813ZM59.6325 410.34C60.0065 409.929 60.1935 409.401 60.1935 408.756C60.1935 408.111 60.0065 407.583 59.6325 407.172C59.2585 406.761 58.8038 406.556 58.2685 406.556C57.7331 406.556 57.2785 406.761 56.9045 407.172C56.5305 407.583 56.3435 408.111 56.3435 408.756C56.3435 409.401 56.5305 409.929 56.9045 410.34C57.2785 410.751 57.7331 410.956 58.2685 410.956C58.8038 410.956 59.2585 410.751 59.6325 410.34ZM65.8825 410.362C66.2345 410.758 66.6818 410.956 67.2245 410.956C67.7671 410.956 68.2145 410.758 68.5665 410.362C68.9185 409.966 69.0945 409.431 69.0945 408.756C69.0945 408.081 68.9185 407.546 68.5665 407.15C68.2145 406.754 67.7671 406.556 67.2245 406.556C66.6818 406.556 66.2345 406.754 65.8825 407.15C65.5305 407.546 65.3545 408.081 65.3545 408.756C65.3545 409.431 65.5305 409.966 65.8825 410.362ZM64.6945 413.706V406.006H65.2445L65.3545 406.886H65.4095C65.5561 406.651 65.7908 406.428 66.1135 406.215C66.4361 406.002 66.8248 405.896 67.2795 405.896C67.9835 405.896 68.5701 406.16 69.0395 406.688C69.5161 407.209 69.7545 407.898 69.7545 408.756C69.7545 409.614 69.5161 410.307 69.0395 410.835C68.5701 411.356 67.9835 411.616 67.2795 411.616C66.8248 411.616 66.4361 411.51 66.1135 411.297C65.7908 411.084 65.5561 410.861 65.4095 410.626H65.3545V413.706H64.6945ZM71.404 408.426H75.199C75.1697 407.876 74.979 407.429 74.627 407.084C74.2824 406.732 73.8497 406.556 73.329 406.556C72.801 406.556 72.361 406.725 72.009 407.062C71.6644 407.392 71.4627 407.847 71.404 408.426ZM74.979 409.966H75.694C75.5327 410.421 75.2577 410.809 74.869 411.132C74.4877 411.455 73.9744 411.616 73.329 411.616C72.5664 411.616 71.943 411.356 71.459 410.835C70.9824 410.314 70.744 409.621 70.744 408.756C70.744 407.891 70.9824 407.198 71.459 406.677C71.943 406.156 72.5664 405.896 73.329 405.896C74.055 405.896 74.6564 406.153 75.133 406.666C75.617 407.172 75.859 407.832 75.859 408.646C75.859 408.756 75.8517 408.862 75.837 408.965C75.8297 408.994 75.826 409.035 75.826 409.086H71.404C71.4627 409.651 71.6717 410.105 72.031 410.45C72.3904 410.787 72.823 410.956 73.329 410.956C73.7324 410.956 74.0734 410.857 74.352 410.659C74.6307 410.461 74.8397 410.23 74.979 409.966ZM80.8056 411.506L80.6956 410.736H80.6406C80.5306 410.89 80.3803 411.037 80.1896 411.176C79.7789 411.469 79.3243 411.616 78.8256 411.616C78.2609 411.616 77.8063 411.458 77.4616 411.143C77.1243 410.828 76.9556 410.417 76.9556 409.911C76.9556 409.39 77.1389 408.976 77.5056 408.668C77.8723 408.36 78.4039 408.206 79.1006 408.206H80.6956V407.986C80.6956 407.033 80.2189 406.556 79.2656 406.556C78.8329 406.556 78.4846 406.651 78.2206 406.842C77.9639 407.033 77.8173 407.286 77.7806 407.601H77.1206C77.1866 407.11 77.4029 406.703 77.7696 406.38C78.1363 406.057 78.6349 405.896 79.2656 405.896C79.9329 405.896 80.4463 406.079 80.8056 406.446C81.1723 406.805 81.3556 407.319 81.3556 407.986V411.506H80.8056ZM80.6956 409.086V408.811H79.1006C78.6166 408.811 78.2463 408.914 77.9896 409.119C77.7403 409.324 77.6156 409.588 77.6156 409.911C77.6156 410.226 77.7219 410.479 77.9346 410.67C78.1473 410.861 78.4443 410.956 78.8256 410.956C79.4049 410.956 79.8596 410.791 80.1896 410.461C80.5269 410.124 80.6956 409.665 80.6956 409.086ZM82.2373 411.561V410.901H82.5123C82.769 410.901 82.9633 410.835 83.0953 410.703C83.2273 410.571 83.308 410.344 83.3373 410.021L83.6673 406.006H87.2423V411.506H86.5823V406.666H84.2723L83.9973 410.021C83.9533 410.549 83.8103 410.938 83.5683 411.187C83.3336 411.436 82.9816 411.561 82.5123 411.561H82.2373ZM89.004 411.506V406.006H89.664V410.791H89.884L92.249 406.006H93.459V411.506H92.799V406.721H92.579L90.214 411.506H89.004ZM94.7288 409.801H95.3888C95.3888 410.146 95.5134 410.424 95.7628 410.637C96.0121 410.85 96.3641 410.956 96.8188 410.956C97.2881 410.956 97.6438 410.868 97.8858 410.692C98.1278 410.516 98.2488 410.292 98.2488 410.021C98.2488 409.72 98.1278 409.482 97.8858 409.306C97.6511 409.123 97.2954 409.031 96.8188 409.031H96.3788V408.426H96.8738C97.2698 408.426 97.5778 408.338 97.7978 408.162C98.0251 407.979 98.1388 407.755 98.1388 407.491C98.1388 407.227 98.0214 407.007 97.7868 406.831C97.5594 406.648 97.2368 406.556 96.8188 406.556C96.4154 406.556 96.0928 406.662 95.8508 406.875C95.6161 407.08 95.4988 407.341 95.4988 407.656H94.8388C94.8388 407.15 95.0184 406.732 95.3778 406.402C95.7444 406.065 96.2248 405.896 96.8188 405.896C97.4348 405.896 97.9188 406.05 98.2708 406.358C98.6228 406.659 98.7988 407.036 98.7988 407.491C98.7988 407.88 98.6521 408.199 98.3588 408.448C98.2194 408.565 98.0728 408.65 97.9188 408.701V408.756C97.9921 408.778 98.0728 408.815 98.1608 408.866C98.2561 408.91 98.3624 408.98 98.4798 409.075C98.6044 409.17 98.7071 409.302 98.7878 409.471C98.8684 409.632 98.9088 409.816 98.9088 410.021C98.9088 410.483 98.7254 410.864 98.3588 411.165C97.9921 411.466 97.4788 411.616 96.8188 411.616C96.1734 411.616 95.6638 411.447 95.2898 411.11C94.9158 410.773 94.7288 410.336 94.7288 409.801ZM103.858 411.506L103.748 410.736H103.693C103.583 410.89 103.433 411.037 103.242 411.176C102.832 411.469 102.377 411.616 101.878 411.616C101.314 411.616 100.859 411.458 100.514 411.143C100.177 410.828 100.008 410.417 100.008 409.911C100.008 409.39 100.192 408.976 100.558 408.668C100.925 408.36 101.457 408.206 102.153 408.206H103.748V407.986C103.748 407.033 103.272 406.556 102.318 406.556C101.886 406.556 101.537 406.651 101.273 406.842C101.017 407.033 100.87 407.286 100.833 407.601H100.173C100.239 407.11 100.456 406.703 100.822 406.38C101.189 406.057 101.688 405.896 102.318 405.896C102.986 405.896 103.499 406.079 103.858 406.446C104.225 406.805 104.408 407.319 104.408 407.986V411.506H103.858ZM103.748 409.086V408.811H102.153C101.669 408.811 101.299 408.914 101.042 409.119C100.793 409.324 100.668 409.588 100.668 409.911C100.668 410.226 100.775 410.479 100.987 410.67C101.2 410.861 101.497 410.956 101.878 410.956C102.458 410.956 102.912 410.791 103.242 410.461C103.58 410.124 103.748 409.665 103.748 409.086ZM106.17 411.506V406.006H106.83V410.846H109.855V406.006H110.515V410.846H111.34V412.826H110.68V411.506H106.17ZM112.443 411.506V406.006H113.103V410.791H113.323L115.688 406.006H116.898V411.506H116.238V406.721H116.018L113.653 411.506H112.443ZM118.663 411.506V406.006H119.323V410.791H119.543L121.908 406.006H123.118V411.506H122.458V406.721H122.238L119.873 411.506H118.663ZM25.0988 432.506V427.006H29.5538V432.506H28.8938V427.666H25.7588V432.506H25.0988ZM32.5065 431.362C32.8585 431.758 33.3058 431.956 33.8485 431.956C34.3911 431.956 34.8385 431.758 35.1905 431.362C35.5425 430.966 35.7185 430.431 35.7185 429.756C35.7185 429.081 35.5425 428.546 35.1905 428.15C34.8385 427.754 34.3911 427.556 33.8485 427.556C33.3058 427.556 32.8585 427.754 32.5065 428.15C32.1545 428.546 31.9785 429.081 31.9785 429.756C31.9785 430.431 32.1545 430.966 32.5065 431.362ZM31.3185 434.706V427.006H31.8685L31.9785 427.886H32.0335C32.1801 427.651 32.4148 427.428 32.7375 427.215C33.0601 427.002 33.4488 426.896 33.9035 426.896C34.6075 426.896 35.1941 427.16 35.6635 427.688C36.1401 428.209 36.3785 428.898 36.3785 429.756C36.3785 430.614 36.1401 431.307 35.6635 431.835C35.1941 432.356 34.6075 432.616 33.9035 432.616C33.4488 432.616 33.0601 432.51 32.7375 432.297C32.4148 432.084 32.1801 431.861 32.0335 431.626H31.9785V434.706H31.3185ZM41.79 431.813C41.2914 432.348 40.679 432.616 39.953 432.616C39.227 432.616 38.6147 432.348 38.116 431.813C37.6174 431.278 37.368 430.592 37.368 429.756C37.368 428.92 37.6174 428.234 38.116 427.699C38.6147 427.164 39.227 426.896 39.953 426.896C40.679 426.896 41.2914 427.164 41.79 427.699C42.2887 428.234 42.538 428.92 42.538 429.756C42.538 430.592 42.2887 431.278 41.79 431.813ZM41.317 431.34C41.691 430.929 41.878 430.401 41.878 429.756C41.878 429.111 41.691 428.583 41.317 428.172C40.943 427.761 40.4884 427.556 39.953 427.556C39.4177 427.556 38.963 427.761 38.589 428.172C38.215 428.583 38.028 429.111 38.028 429.756C38.028 430.401 38.215 430.929 38.589 431.34C38.963 431.751 39.4177 431.956 39.953 431.956C40.4884 431.956 40.943 431.751 41.317 431.34ZM44.1833 429.426H47.9783C47.949 428.876 47.7583 428.429 47.4063 428.084C47.0617 427.732 46.629 427.556 46.1083 427.556C45.5803 427.556 45.1403 427.725 44.7883 428.062C44.4437 428.392 44.242 428.847 44.1833 429.426ZM47.7583 430.966H48.4733C48.312 431.421 48.037 431.809 47.6483 432.132C47.267 432.455 46.7537 432.616 46.1083 432.616C45.3457 432.616 44.7223 432.356 44.2383 431.835C43.7617 431.314 43.5233 430.621 43.5233 429.756C43.5233 428.891 43.7617 428.198 44.2383 427.677C44.7223 427.156 45.3457 426.896 46.1083 426.896C46.8343 426.896 47.4357 427.153 47.9123 427.666C48.3963 428.172 48.6383 428.832 48.6383 429.646C48.6383 429.756 48.631 429.862 48.6163 429.965C48.609 429.994 48.6053 430.035 48.6053 430.086H44.1833C44.242 430.651 44.451 431.105 44.8103 431.45C45.1697 431.787 45.6023 431.956 46.1083 431.956C46.5117 431.956 46.8527 431.857 47.1313 431.659C47.41 431.461 47.619 431.23 47.7583 430.966ZM50.0099 432.506V427.006H50.6699V429.536L53.3429 427.006H54.2449L51.3849 429.701L54.3549 432.506H53.4529L50.6699 429.866V432.506H50.0099ZM56.4406 432.506V427.666H54.5706V427.006H58.9706V427.666H57.1006V432.506H56.4406ZM63.4355 432.506L63.3255 431.736H63.2705C63.1605 431.89 63.0101 432.037 62.8195 432.176C62.4088 432.469 61.9541 432.616 61.4555 432.616C60.8908 432.616 60.4361 432.458 60.0915 432.143C59.7541 431.828 59.5855 431.417 59.5855 430.911C59.5855 430.39 59.7688 429.976 60.1355 429.668C60.5021 429.36 61.0338 429.206 61.7305 429.206H63.3255V428.986C63.3255 428.033 62.8488 427.556 61.8955 427.556C61.4628 427.556 61.1145 427.651 60.8505 427.842C60.5938 428.033 60.4471 428.286 60.4105 428.601H59.7505C59.8165 428.11 60.0328 427.703 60.3995 427.38C60.7661 427.057 61.2648 426.896 61.8955 426.896C62.5628 426.896 63.0761 427.079 63.4355 427.446C63.8021 427.805 63.9855 428.319 63.9855 428.986V432.506H63.4355ZM63.3255 430.086V429.811H61.7305C61.2465 429.811 60.8761 429.914 60.6195 430.119C60.3701 430.324 60.2455 430.588 60.2455 430.911C60.2455 431.226 60.3518 431.479 60.5645 431.67C60.7771 431.861 61.0741 431.956 61.4555 431.956C62.0348 431.956 62.4895 431.791 62.8195 431.461C63.1568 431.124 63.3255 430.665 63.3255 430.086Z" fill="#381611"/>
<path d="M24.7138 455.471H25.3738C25.3738 455.896 25.5351 456.252 25.8578 456.538C26.1878 456.817 26.6314 456.956 27.1888 456.956C27.7461 456.956 28.1861 456.817 28.5088 456.538C28.8388 456.252 29.0038 455.896 29.0038 455.471C29.0038 455.016 28.8351 454.639 28.4978 454.338C28.1678 454.03 27.7314 453.876 27.1888 453.876H26.6388V453.216H27.1888C27.6948 453.216 28.1054 453.077 28.4208 452.798C28.7361 452.519 28.8938 452.182 28.8938 451.786C28.8938 451.39 28.7361 451.053 28.4208 450.774C28.1054 450.495 27.6948 450.356 27.1888 450.356C26.6828 450.356 26.2721 450.495 25.9568 450.774C25.6414 451.053 25.4838 451.39 25.4838 451.786H24.8238C24.8238 451.192 25.0401 450.697 25.4728 450.301C25.9128 449.898 26.4848 449.696 27.1888 449.696C27.8928 449.696 28.4611 449.898 28.8938 450.301C29.3338 450.697 29.5538 451.192 29.5538 451.786C29.5538 452.336 29.3411 452.794 28.9158 453.161C28.7471 453.315 28.5381 453.443 28.2888 453.546V453.601C28.5308 453.674 28.7581 453.799 28.9708 453.975C29.4328 454.378 29.6638 454.877 29.6638 455.471C29.6638 456.094 29.4401 456.608 28.9928 457.011C28.5454 457.414 27.9441 457.616 27.1888 457.616C26.4334 457.616 25.8321 457.414 25.3848 457.011C24.9374 456.608 24.7138 456.094 24.7138 455.471ZM33.671 457.506V452.006H34.331V454.536L37.004 452.006H37.906L35.046 454.701L38.016 457.506H37.114L34.331 454.866V457.506H33.671ZM38.8917 457.506V452.006H41.6967C42.1367 452.006 42.4924 452.145 42.7637 452.424C43.0424 452.695 43.1817 453.051 43.1817 453.491C43.1817 453.865 43.0717 454.177 42.8517 454.426C42.7564 454.543 42.6464 454.635 42.5217 454.701V454.756C42.6464 454.8 42.7747 454.884 42.9067 455.009C43.1634 455.266 43.2917 455.585 43.2917 455.966C43.2917 456.435 43.1524 456.809 42.8737 457.088C42.5951 457.367 42.2211 457.506 41.7517 457.506H38.8917ZM39.5517 456.901H41.6967C41.9754 456.901 42.1991 456.817 42.3677 456.648C42.5437 456.472 42.6317 456.245 42.6317 455.966C42.6317 455.687 42.5437 455.464 42.3677 455.295C42.1991 455.119 41.9754 455.031 41.6967 455.031H39.5517V456.901ZM39.5517 454.426H41.6417C41.8911 454.426 42.1001 454.342 42.2687 454.173C42.4374 453.997 42.5217 453.77 42.5217 453.491C42.5217 453.242 42.4374 453.033 42.2687 452.864C42.1001 452.695 41.8911 452.611 41.6417 452.611H39.5517V454.426ZM44.561 457.506V456.736H45.331V457.506H44.561ZM49.2313 457.506V456.901L52.4213 453.546C52.898 453.069 53.1363 452.556 53.1363 452.006C53.1363 451.507 52.986 451.108 52.6853 450.807C52.3846 450.506 51.985 450.356 51.4863 450.356C51.0096 450.356 50.6136 450.525 50.2983 450.862C49.9903 451.192 49.8363 451.628 49.8363 452.171H49.1763C49.1763 451.43 49.3926 450.833 49.8253 450.378C50.2653 449.923 50.819 449.696 51.4863 449.696C52.1756 449.696 52.733 449.909 53.1583 450.334C53.5836 450.759 53.7963 451.317 53.7963 452.006C53.7963 452.321 53.745 452.611 53.6423 452.875C53.547 453.132 53.4443 453.33 53.3343 453.469C53.2316 453.608 53.074 453.792 52.8613 454.019L50.2213 456.791V456.846H53.9613V457.506H49.2313ZM60.1547 450.752C60.7194 451.449 61.0017 452.417 61.0017 453.656C61.0017 454.895 60.7194 455.867 60.1547 456.571C59.5901 457.268 58.9007 457.616 58.0867 457.616C57.2727 457.616 56.5834 457.268 56.0187 456.571C55.4541 455.867 55.1717 454.895 55.1717 453.656C55.1717 452.417 55.4541 451.449 56.0187 450.752C56.5834 450.048 57.2727 449.696 58.0867 449.696C58.9007 449.696 59.5901 450.048 60.1547 450.752ZM55.8317 453.656C55.8317 454.705 56.0517 455.519 56.4917 456.098C56.9391 456.67 57.4707 456.956 58.0867 456.956C58.7027 456.956 59.2307 456.67 59.6707 456.098C60.1181 455.519 60.3417 454.705 60.3417 453.656C60.3417 452.622 60.1181 451.815 59.6707 451.236C59.2307 450.649 58.7027 450.356 58.0867 450.356C57.4707 450.356 56.9391 450.649 56.4917 451.236C56.0517 451.815 55.8317 452.622 55.8317 453.656ZM62.326 457.506V456.901L65.516 453.546C65.9927 453.069 66.231 452.556 66.231 452.006C66.231 451.507 66.0807 451.108 65.78 450.807C65.4793 450.506 65.0797 450.356 64.581 450.356C64.1043 450.356 63.7083 450.525 63.393 450.862C63.085 451.192 62.931 451.628 62.931 452.171H62.271C62.271 451.43 62.4873 450.833 62.92 450.378C63.36 449.923 63.9137 449.696 64.581 449.696C65.2703 449.696 65.8277 449.909 66.253 450.334C66.6783 450.759 66.891 451.317 66.891 452.006C66.891 452.321 66.8397 452.611 66.737 452.875C66.6417 453.132 66.539 453.33 66.429 453.469C66.3263 453.608 66.1687 453.792 65.956 454.019L63.316 456.791V456.846H67.056V457.506H62.326ZM73.2494 450.752C73.8141 451.449 74.0964 452.417 74.0964 453.656C74.0964 454.895 73.8141 455.867 73.2494 456.571C72.6848 457.268 71.9954 457.616 71.1814 457.616C70.3674 457.616 69.6781 457.268 69.1134 456.571C68.5488 455.867 68.2664 454.895 68.2664 453.656C68.2664 452.417 68.5488 451.449 69.1134 450.752C69.6781 450.048 70.3674 449.696 71.1814 449.696C71.9954 449.696 72.6848 450.048 73.2494 450.752ZM68.9264 453.656C68.9264 454.705 69.1464 455.519 69.5864 456.098C70.0338 456.67 70.5654 456.956 71.1814 456.956C71.7974 456.956 72.3254 456.67 72.7654 456.098C73.2128 455.519 73.4364 454.705 73.4364 453.656C73.4364 452.622 73.2128 451.815 72.7654 451.236C72.3254 450.649 71.7974 450.356 71.1814 450.356C70.5654 450.356 70.0338 450.649 69.5864 451.236C69.1464 451.815 68.9264 452.622 68.9264 453.656ZM78.1114 457.506V452.006H81.5214V452.666H78.7714V457.506H78.1114ZM82.0727 457.506V456.736H82.8427V457.506H82.0727Z" fill="#381611"/>
<line x1="131.219" y1="364.5" x2="149.719" y2="364.5" stroke="#381611"/>
<path d="M159.569 372.57V367.63H155.019V365.29H159.569V360.35H162.039V365.29H166.589V367.63H162.039V372.57H159.569ZM178.426 374V360.35H174.656V357.75H177.646C178.166 357.75 178.426 357.49 178.426 356.97V355.8H181.156V374H178.426ZM184.396 374V371.66L191.884 364.12C192.386 363.617 192.733 363.175 192.924 362.794C193.132 362.395 193.236 361.884 193.236 361.26C193.236 360.272 192.967 359.509 192.43 358.972C191.91 358.417 191.182 358.14 190.246 358.14C189.327 358.14 188.556 358.469 187.932 359.128C187.308 359.787 186.996 360.627 186.996 361.65H184.266C184.266 359.83 184.82 358.357 185.93 357.23C187.039 356.103 188.478 355.54 190.246 355.54C192.014 355.54 193.426 356.069 194.484 357.126C195.558 358.166 196.096 359.544 196.096 361.26C196.096 362.248 195.87 363.106 195.42 363.834C194.986 364.562 194.345 365.351 193.496 366.2L188.426 371.27V371.4H196.356V374H184.396ZM201.414 370.62C202.107 371.313 202.974 371.66 204.014 371.66C205.054 371.66 205.92 371.313 206.614 370.62C207.307 369.927 207.654 369.06 207.654 368.02C207.654 366.98 207.307 366.113 206.614 365.42C205.92 364.727 205.054 364.38 204.014 364.38C202.974 364.38 202.107 364.727 201.414 365.42C200.72 366.113 200.374 366.98 200.374 368.02C200.374 369.06 200.72 369.927 201.414 370.62ZM198.684 364.38L204.144 355.8H207.264L203.234 362.04H203.364L203.702 361.988C204.118 361.936 204.395 361.91 204.534 361.91C206.163 361.91 207.541 362.508 208.668 363.704C209.812 364.883 210.384 366.321 210.384 368.02C210.384 369.788 209.777 371.27 208.564 372.466C207.35 373.662 205.834 374.26 204.014 374.26C202.194 374.26 200.677 373.662 199.464 372.466C198.25 371.27 197.644 369.788 197.644 368.02C197.644 366.703 197.99 365.489 198.684 364.38ZM220.801 374L232.111 355.8H234.711L223.401 374H220.801ZM224.025 358.166C223.678 357.802 223.21 357.62 222.621 357.62C222.031 357.62 221.555 357.802 221.191 358.166C220.844 358.53 220.671 359.041 220.671 359.7C220.671 360.359 220.844 360.87 221.191 361.234C221.555 361.598 222.031 361.78 222.621 361.78C223.21 361.78 223.678 361.598 224.025 361.234C224.389 360.87 224.571 360.359 224.571 359.7C224.571 359.041 224.389 358.53 224.025 358.166ZM219.657 362.664C218.859 361.867 218.461 360.879 218.461 359.7C218.461 358.521 218.859 357.533 219.657 356.736C220.471 355.939 221.459 355.54 222.621 355.54C223.782 355.54 224.761 355.939 225.559 356.736C226.373 357.533 226.781 358.521 226.781 359.7C226.781 360.879 226.373 361.867 225.559 362.664C224.761 363.461 223.782 363.86 222.621 363.86C221.459 363.86 220.471 363.461 219.657 362.664ZM231.461 371.634C231.825 371.998 232.301 372.18 232.891 372.18C233.48 372.18 233.948 371.998 234.295 371.634C234.659 371.27 234.841 370.759 234.841 370.1C234.841 369.441 234.659 368.93 234.295 368.566C233.948 368.202 233.48 368.02 232.891 368.02C232.301 368.02 231.825 368.202 231.461 368.566C231.114 368.93 230.941 369.441 230.941 370.1C230.941 370.759 231.114 371.27 231.461 371.634ZM229.927 373.064C229.129 372.267 228.731 371.279 228.731 370.1C228.731 368.921 229.129 367.933 229.927 367.136C230.724 366.339 231.712 365.94 232.891 365.94C234.069 365.94 235.057 366.339 235.855 367.136C236.652 367.933 237.051 368.921 237.051 370.1C237.051 371.279 236.652 372.267 235.855 373.064C235.057 373.861 234.069 374.26 232.891 374.26C231.712 374.26 230.724 373.861 229.927 373.064Z" fill="#381611"/>
<path d="M261.572 365.354C261.768 365.158 261.768 364.842 261.572 364.646L258.39 361.464C258.195 361.269 257.878 361.269 257.683 361.464C257.488 361.66 257.488 361.976 257.683 362.172L260.512 365L257.683 367.828C257.488 368.024 257.488 368.34 257.683 368.536C257.878 368.731 258.195 368.731 258.39 368.536L261.572 365.354ZM242.719 365.5H261.219V364.5H242.719V365.5Z" fill="#381611"/>
<defs>
<linearGradient id="paint0_linear_346_6878" x1="94" y1="0" x2="94" y2="325" gradientUnits="userSpaceOnUse">
<stop stop-color="#FCF8F7" stop-opacity="0"/>
<stop offset="1" stop-color="#FCF8F7"/>
</linearGradient>
<linearGradient id="paint1_linear_346_6878" x1="100" y1="0" x2="100" y2="472" gradientUnits="userSpaceOnUse">
<stop stop-color="#FCF8F7" stop-opacity="0"/>
<stop offset="1" stop-color="#FCF8F7"/>
</linearGradient>
<linearGradient id="paint2_linear_346_6878" x1="93.5" y1="0" x2="93.5" y2="179.506" gradientUnits="userSpaceOnUse">
<stop stop-color="#FCF8F7" stop-opacity="0"/>
<stop offset="1" stop-color="#FCF8F7"/>
</linearGradient>
</defs>
</svg>
