<svg width="13" height="14" viewBox="0 0 13 14" fill="none" xmlns="http://www.w3.org/2000/svg">
<path d="M6.67881 0.113487C6.50314 0.108732 6.342 0.210544 6.27085 0.371233C6.19971 0.531922 6.23266 0.719667 6.35427 0.846528C7.25009 1.78105 7.79988 3.04807 7.79988 4.4444C7.79988 7.31628 5.47176 9.6444 2.59988 9.6444C2.23203 9.6444 1.87355 9.60627 1.52803 9.5339C1.356 9.49787 1.17924 9.56932 1.08057 9.71478C0.981909 9.86024 0.980883 10.0509 1.07798 10.1974C2.24098 11.9523 4.235 13.1111 6.49986 13.1111C10.0897 13.1111 12.9999 10.2009 12.9999 6.61107C12.9999 3.08107 10.1861 0.208406 6.67881 0.113487Z" fill="#381611"/>
</svg>
