<svg width="132" height="39" viewBox="0 0 132 39" fill="none" xmlns="http://www.w3.org/2000/svg">
<g clip-path="url(#clip0_346_10733)">
<path d="M14.4 16.5C16 16.5 17.6 16.6 19.1 16.7C18.9 8.99998 17.5 4.99998 16.5 4.99998C15.8 4.99998 14.8 6.89998 14.2 11.2C14.2 11.5 13.9 11.7 13.6 11.7C13.4 11.7 13.3 11.6 13.2 11.5C13.1 11.4 13 11.2 13.1 11C13.5 8.29998 14.2 6.09998 14.9 4.69998L15 4.59998C14.7 4.59998 14.4 4.59998 14.1 4.59998C6.5 4.59998 0.5 10.6 0.5 18C0.5 18.1 0.5 18.2 0.5 18.4C0.6 18.4 0.6 18.4 0.7 18.3C3.4 17.2 8.7 16.5 14.4 16.5Z" fill="#947D66"/>
<path d="M18.7008 24C18.6008 23.9 18.5008 23.9 18.4008 23.9C17.1008 24 15.7008 24 14.4008 24C9.30078 24 4.40078 23.4 1.50078 22.5C1.40078 22.5 1.40078 22.5 1.30078 22.4C3.10078 27.7 8.10078 31.4 14.0008 31.4C15.3008 31.4 16.5008 31.2 17.7008 30.9C18.1008 29.7 18.8008 26.4 18.9008 24.2C18.8008 24.2 18.8008 24.1 18.7008 24Z" fill="#947D66"/>
<path d="M14.6 17.6C6.3 17.6 2 19 2 19.7C2 20.4 6.3 21.8 14.6 21.8C15.9 21.8 17.2 21.8 18.4 21.7C18.8 21.7 19.1 21.4 19.1 21C19.1 20.2 19.1 19.3 19.1 18.5C19.1 18.2 19.1 18 19.1 17.7C17.6 17.7 16.1 17.6 14.6 17.6Z" fill="#947D66"/>
<path d="M26.5996 22.6C25.2996 23 23.4996 23.5 22.0996 23.7C21.7996 23.7 21.4996 24 21.4996 24.3C21.3996 25.9 20.9996 28.3 20.5996 29.7C23.3996 28.1 25.4996 25.6 26.5996 22.6Z" fill="#947D66"/>
<path d="M21.7008 21C21.7008 21.1 21.7008 21.2 21.8008 21.3C21.9008 21.4 22.0008 21.4 22.1008 21.4C24.2008 21.1 26.2008 20.7 27.2008 20.2C27.3008 19.5 27.4008 18.8 27.4008 18C27.4008 17.6 27.4008 17.2 27.3008 16.9C27.3008 16.8 27.3008 16.7 27.3008 16.6C27.3008 16.2 27.2008 15.9 27.1008 15.5C27.1008 15.3 27.0008 15.2 27.0008 15C26.8008 14.3 26.6008 13.6 26.3008 12.9C26.3008 12.9 26.3008 12.9 26.3008 12.8C25.0008 9.80002 22.7008 7.40002 19.8008 5.90002C21.1008 8.90002 21.7008 14 21.7008 19.2C21.7008 19.8 21.7008 20.4 21.7008 21Z" fill="#947D66"/>
<path d="M43.3 9.49998C41.4 9.49998 40.5 10.3 40.1 11.4H36.7C37.2 8.79998 39.5 6.59998 43.4 6.59998C47.3 6.59998 49.9 8.69998 49.9 12.4V22.9H46.6V21.1C45.5 22.5 43.7 23.3 41.6 23.3C38.5 23.3 36 21.4 36 18.3C36 15.1 38.4 13.2 42.4 13.2H46.3V12.3C46.4 10.5 45 9.49998 43.3 9.49998ZM46.4 16.9V15.9H42.8C41 15.9 39.7 16.7 39.7 18.1C39.7 19.5 40.8 20.3 42.4 20.3C44.5 20.4 46.4 19.1 46.4 16.9Z" fill="#947D66"/>
<path d="M53.4004 20.2L61.7004 10.1H53.4004V6.90002H66.2004V9.70002L57.9004 19.8H66.2004V22.9H53.4004V20.2Z" fill="#947D66"/>
<path d="M73.8004 2.2C73.8004 3.5 72.8004 4.4 71.6004 4.4C70.4004 4.4 69.4004 3.5 69.4004 2.2C69.4004 1 70.4004 0 71.6004 0C72.9004 0 73.8004 0.9 73.8004 2.2ZM73.4004 22.9H69.8004V6.9H73.4004V22.9Z" fill="#947D66"/>
<path d="M101.299 12.7V23H97.6992V13.3C97.6992 10.9 96.2992 9.80002 94.5992 9.80002C92.8992 9.80002 91.2992 11 91.2992 13.3V22.9H87.6992V13.2C87.6992 10.8 86.2992 9.70002 84.5992 9.70002C82.8992 9.70002 81.2992 10.9 81.2992 13.2V22.8H77.6992V6.80002H81.1992V8.70002C82.0992 7.30002 83.7992 6.40002 85.6992 6.40002C87.4992 6.40002 89.2992 7.20002 90.3992 9.00002C91.3992 7.50002 93.3992 6.40002 95.5992 6.40002C98.3992 6.60002 101.299 8.30002 101.299 12.7Z" fill="#947D66"/>
<path d="M116 22.9V21C115.2 22.1 113.6 23.2 111.3 23.2C108.2 23.2 105.4 21.4 105.4 17V6.90002H109V16.4C109 18.9 110.3 20.1 112.3 20.1C114.1 20.1 115.9 19 115.9 16.2V6.90002H119.5V22.9H116Z" fill="#947D66"/>
<path d="M130.5 19.8H131.5V23H129.9C126.4 23 124.6 21.5 124.6 17.8V10H122V7.00005H124.6V2.80005H128.2V7.00005H131.5V10H128.2V17.5C128.2 19.4 129.2 19.8 130.5 19.8Z" fill="#947D66"/>
<path d="M40.9004 32.5H41.9004V38.8H40.9004V36H37.9004V38.8H36.9004V32.5H37.9004V35.2H40.9004V32.5Z" fill="#947D66"/>
<path d="M43.8996 38C43.3996 37.4 43.0996 36.6 43.0996 35.6C43.0996 34.6 43.3996 33.8001 43.8996 33.2001C44.3996 32.6001 45.0996 32.3 45.9996 32.3C46.8996 32.3 47.5996 32.6001 48.0996 33.2001C48.5996 33.8001 48.8996 34.6 48.8996 35.6C48.8996 36.6 48.5996 37.4 48.0996 38C47.5996 38.6 46.8996 38.9001 45.9996 38.9001C45.0996 38.9001 44.3996 38.6 43.8996 38ZM44.5996 33.9001C44.2996 34.4001 44.0996 34.9001 44.0996 35.7001C44.0996 36.4001 44.2996 37 44.5996 37.5C44.8996 38 45.3996 38.2001 45.9996 38.2001C46.5996 38.2001 47.0996 38 47.3996 37.5C47.6996 37 47.8996 36.5001 47.8996 35.7001C47.8996 35.0001 47.6996 34.4001 47.3996 33.9001C47.0996 33.4001 46.5996 33.2001 45.9996 33.2001C45.3996 33.2001 44.9996 33.4001 44.5996 33.9001Z" fill="#947D66"/>
<path d="M49.4004 33.3V32.5H54.3004V33.3H52.3004V38.8H51.3004V33.3H49.4004Z" fill="#947D66"/>
<path d="M55.4004 38.8V32.5H59.8004V33.3H56.4004V35.2H59.0004V36H56.4004V38H59.9004V38.8H55.4004Z" fill="#947D66"/>
<path d="M61.2012 38.8V32.5H62.2012V38H65.2012V38.8H61.2012Z" fill="#947D66"/>
<path d="M65.8008 36.8H66.7008C66.7008 37.7 67.3008 38.1 68.3008 38.1C68.7008 38.1 69.0008 38 69.3008 37.9C69.6008 37.8 69.7008 37.5 69.7008 37.2C69.7008 37 69.6008 36.8 69.5008 36.6C69.4008 36.4 69.1008 36.3 68.7008 36.2L67.4008 35.8C66.5008 35.5 66.1008 35 66.1008 34.1C66.1008 33.5 66.3008 33.1 66.7008 32.8C67.1008 32.5 67.6008 32.4 68.3008 32.4C69.0008 32.4 69.5008 32.6 70.0008 32.9C70.4008 33.2 70.7008 33.7 70.7008 34.3L69.8008 34.4C69.8008 34 69.6008 33.8 69.4008 33.6C69.2008 33.4 68.8008 33.3 68.4008 33.3C68.0008 33.3 67.8008 33.4 67.5008 33.5C67.3008 33.7 67.2008 33.9 67.2008 34.1C67.2008 34.5 67.5008 34.8 68.1008 35L69.4008 35.4C69.9008 35.6 70.3008 35.8 70.5008 36C70.7008 36.2 70.9008 36.6 70.9008 37.1C70.9008 37.7 70.7008 38.1 70.3008 38.5C69.9008 38.8 69.3008 38.9 68.5008 38.9C67.7008 38.9 67.1008 38.7 66.7008 38.4C66.1008 38 65.8008 37.5 65.8008 36.8Z" fill="#947D66"/>
</g>
<defs>
<clipPath id="clip0_346_10733">
<rect width="131" height="38.9" fill="white" transform="translate(0.5)"/>
</clipPath>
</defs>
</svg>
