<svg width="60" height="60" viewBox="0 0 60 60" fill="none" xmlns="http://www.w3.org/2000/svg">
<path d="M30.002 3L30.4089 2.70942L30.0057 2.14483L29.5977 2.70591L30.002 3ZM26.252 8.15625L25.8477 7.86216L25.8347 7.88004L25.8233 7.899L26.252 8.15625ZM30.002 15.1875V15.6875H30.0376L30.0728 15.6825L30.002 15.1875ZM29.5977 2.70591L25.8477 7.86216L26.6564 8.45034L30.4064 3.29409L29.5977 2.70591ZM25.8233 7.899C25.3016 8.76852 24.5676 11.0081 25.8233 13.101L26.6808 12.5865C25.6865 10.9294 26.265 9.10648 26.6808 8.4135L25.8233 7.899ZM25.8233 13.101C27.0572 15.1576 29.0846 15.6875 30.002 15.6875V14.6875C29.357 14.6875 27.6968 14.2799 26.6808 12.5865L25.8233 13.101ZM30.0728 15.6825C31.2946 15.5079 32.9393 14.6488 33.7301 13.0674L32.8356 12.6201C32.2201 13.8512 30.8967 14.5546 29.9313 14.6925L30.0728 15.6825ZM33.7301 13.0674C34.1013 12.3249 34.3648 11.5507 34.3977 10.695C34.4307 9.83603 34.23 8.93263 33.7301 7.93264L32.8356 8.37986C33.2731 9.25487 33.424 9.9921 33.3984 10.6566C33.3728 11.3243 33.1675 11.9564 32.8356 12.6201L33.7301 13.0674ZM33.7301 7.93264C32.9601 6.39282 31.1882 3.80057 30.4089 2.70942L29.5951 3.29058C30.3781 4.38693 32.1055 6.91968 32.8356 8.37986L33.7301 7.93264Z" fill="#D5C9BB"/>
<rect x="29.0625" y="11.9062" width="1.875" height="6.5625" fill="#D5C9BB"/>
<rect x="19.6875" y="23.1562" width="1.875" height="8.4375" fill="#D5C9BB"/>
<rect x="19.6875" y="33.4688" width="1.875" height="1.875" fill="#D5C9BB"/>
<path d="M16.4062 34.875V19.875L43.125 15.6562V23.625" stroke="#D5C9BB"/>
<path d="M12.1877 42.8438L11.7716 42.5664L11.7716 42.5664L12.1877 42.8438ZM22.5003 37.6875L22.9892 37.5827L22.8931 37.1345L22.4383 37.1914L22.5003 37.6875ZM12.9381 41.9062L13.3019 42.2493L13.3019 42.2493L12.9381 41.9062ZM2.34405 38.1562V37.6562H1.98367L1.86971 37.9981L2.34405 38.1562ZM4.6878 56.9062L4.25072 57.1491L4.3936 57.4062H4.6878V56.9062ZM21.0938 56.9062V57.4062H21.4187L21.5507 57.1093L21.0938 56.9062ZM11.7201 52.0479C11.4282 51.2451 11.1106 49.8061 11.1407 48.1615C11.1708 46.5195 11.5464 44.707 12.6037 43.1211L11.7716 42.5664C10.5789 44.3555 10.1733 46.3711 10.1409 48.1432C10.1085 49.9127 10.4472 51.4736 10.7803 52.3896L11.7201 52.0479ZM22.0114 37.7923C22.234 38.8312 22.3953 40.719 22.1333 42.7081C21.8706 44.7027 21.1923 46.7256 19.8027 48.1152L20.5098 48.8223C22.1202 47.2119 22.8483 44.938 23.1248 42.8387C23.402 40.7342 23.2353 38.7313 22.9892 37.5827L22.0114 37.7923ZM19.8027 48.1152C16.9131 51.0048 13.9554 51.7188 11.2502 51.7188V52.7188C14.1696 52.7188 17.3994 51.9327 20.5098 48.8223L19.8027 48.1152ZM12.6037 43.1211C12.8071 42.8161 13.0413 42.5256 13.3019 42.2493L12.5744 41.5632C12.2791 41.8763 12.009 42.2103 11.7716 42.5664L12.6037 43.1211ZM13.3019 42.2493C14.5084 40.97 16.2564 40.0194 18.0112 39.3521C19.7604 38.6869 21.472 38.3199 22.5623 38.1836L22.4383 37.1914C21.2734 37.337 19.4838 37.7223 17.6557 38.4174C15.8331 39.1105 13.9276 40.1284 12.5744 41.5632L13.3019 42.2493ZM13.3036 41.5651C12.8366 41.0647 11.983 40.3108 10.908 39.6319C9.83451 38.954 8.50902 38.331 7.10226 38.13L6.96084 39.12C8.17908 39.294 9.36931 39.8429 10.3741 40.4774C11.3773 41.111 12.1645 41.8103 12.5726 42.2474L13.3036 41.5651ZM7.10226 38.13C4.46756 37.7536 2.84714 37.6562 2.34405 37.6562V38.6562C2.77845 38.6562 4.34554 38.7464 6.96084 39.12L7.10226 38.13ZM1.86971 37.9981C1.45921 39.2296 1.09646 41.2697 1.31931 43.4455C1.54269 45.6265 2.36003 47.9839 4.35331 49.7779L5.02228 49.0346C3.26556 47.4536 2.5204 45.3579 2.3141 43.3436C2.10726 41.3241 2.44764 39.4266 2.81839 38.3144L1.86971 37.9981ZM4.35331 49.7779C6.26202 51.4957 7.80812 52.3634 8.99251 52.7314C10.1536 53.0922 11.0513 52.9929 11.5502 52.6187L10.9502 51.8188C10.8241 51.9133 10.3156 52.0953 9.28924 51.7764C8.28619 51.4648 6.86357 50.6918 5.02228 49.0346L4.35331 49.7779ZM0 53.1875H2.34405V52.1875H0V53.1875ZM1.90697 52.9303L4.25072 57.1491L5.12488 56.6634L2.78113 52.4447L1.90697 52.9303ZM4.6878 57.4062H21.0938V56.4062H4.6878V57.4062ZM2.34405 53.1875H22.9688V52.1875H2.34405V53.1875ZM22.9688 53.1875H25.3125V52.1875H22.9688V53.1875ZM21.5507 57.1093L23.4257 52.8906L22.5118 52.4844L20.6368 56.7032L21.5507 57.1093Z" fill="#D5C9BB"/>
<path d="M12.1875 29.7188L12.4111 29.2715L12.2103 29.1711L12.0018 29.2545L12.1875 29.7188ZM7.0557 38.2384C7.20086 37.3674 7.77102 35.5514 8.86625 33.726L8.00875 33.2115C6.85398 35.1361 6.23664 37.0701 6.0693 38.0741L7.0557 38.2384ZM8.86625 33.726C9.40052 32.8355 10.1114 32.0107 10.7857 31.3704C11.4742 30.7165 12.074 30.3027 12.3732 30.183L12.0018 29.2545C11.5198 29.4473 10.8071 29.971 10.0971 30.6453C9.37294 31.333 8.59948 32.227 8.00875 33.2115L8.86625 33.726ZM11.9639 30.166C12.7894 30.5787 14.4054 31.9914 15.4903 34.1611L16.3847 33.7139C15.2196 31.3836 13.4606 29.7963 12.4111 29.2715L11.9639 30.166ZM15.4903 34.1611C16.5767 36.3338 16.8438 38.6934 16.8438 39.0938H17.8438C17.8438 38.5566 17.5483 36.0412 16.3847 33.7139L15.4903 34.1611Z" fill="#D5C9BB"/>
<path d="M21.0938 56.9062H43.125V53.625" stroke="#D5C9BB"/>
<rect x="32.375" y="23.6562" width="27.125" height="12.125" rx="6" stroke="#D5C9BB"/>
<rect x="28.625" y="35.8438" width="30.875" height="12.125" rx="6" stroke="#D5C9BB"/>
<rect x="28.625" y="48.0312" width="30.875" height="4.625" stroke="#D5C9BB"/>
<path d="M51.0938 52.6875L53.4375 56.9062H57.1875V53.1562" stroke="#D5C9BB"/>
<path d="M37.0312 52.6875L34.6875 56.9062H30.9375V53.1562" stroke="#D5C9BB"/>
<path d="M50.625 32.9688H41.25V33.9688H50.625V32.9688ZM41.25 32.9688C40.044 32.9688 39.3755 32.643 39.0025 32.247C38.6239 31.845 38.4688 31.2851 38.4688 30.6562H37.4688C37.4688 31.4336 37.6598 32.28 38.2746 32.9327C38.895 33.5913 39.8672 33.9688 41.25 33.9688V32.9688ZM54.8125 28.7812C54.8125 31.0939 52.9377 32.9688 50.625 32.9688V33.9688C53.49 33.9688 55.8125 31.6462 55.8125 28.7812H54.8125ZM50.1562 24.125C51.289 24.125 52.4572 24.6914 53.3516 25.5859C54.2461 26.4803 54.8125 27.6485 54.8125 28.7812H55.8125C55.8125 27.3252 55.0952 25.9152 54.0587 24.8788C53.0223 23.8423 51.6123 23.125 50.1562 23.125V24.125ZM38.4688 30.6562C38.4688 29.8093 38.699 29.2674 39.0937 28.9242C39.5029 28.5684 40.1814 28.3438 41.25 28.3438V27.3438C40.0686 27.3438 39.1065 27.5878 38.4375 28.1696C37.7542 28.7638 37.4688 29.6282 37.4688 30.6562H38.4688ZM41.25 28.3438H46.875V27.3438H41.25V28.3438Z" fill="#D5C9BB"/>
<path d="M48.2812 44.6875H38.9062V45.6875H48.2812V44.6875ZM38.9062 44.6875C37.7003 44.6875 37.0318 44.3618 36.6588 43.9658C36.2801 43.5638 36.125 43.0039 36.125 42.375H35.125C35.125 43.1524 35.3161 43.9987 35.9308 44.6514C36.5513 45.3101 37.5234 45.6875 38.9062 45.6875V44.6875ZM52.4687 40.5C52.4687 42.8127 50.5939 44.6875 48.2812 44.6875V45.6875C51.1462 45.6875 53.4687 43.365 53.4687 40.5H52.4687ZM47.3438 36.3125C48.5138 36.3125 49.8136 36.7915 50.8187 37.579C51.8256 38.368 52.4687 39.4088 52.4687 40.5H53.4687C53.4687 39.0024 52.5938 37.6994 51.4354 36.7919C50.2752 35.8828 48.7625 35.3125 47.3438 35.3125V36.3125ZM36.125 42.375C36.125 41.5281 36.3552 40.9862 36.75 40.6429C37.1591 40.2872 37.8376 40.0625 38.9062 40.0625V39.0625C37.7249 39.0625 36.7628 39.3066 36.0938 39.8883C35.4104 40.4826 35.125 41.3469 35.125 42.375H36.125ZM38.9062 40.0625H44.5312V39.0625H38.9062V40.0625Z" fill="#D5C9BB"/>
</svg>
