<svg width="60" height="60" viewBox="0 0 60 60" fill="none" xmlns="http://www.w3.org/2000/svg">
<rect x="18" y="9" width="2" height="2" fill="#D5C9BB"/>
<rect x="18" y="13" width="2" height="2" fill="#D5C9BB"/>
<rect x="18" y="17" width="2" height="2" fill="#D5C9BB"/>
<rect x="18" y="21" width="2" height="2" fill="#D5C9BB"/>
<rect x="18" y="25" width="2" height="2" fill="#D5C9BB"/>
<rect x="18" y="29" width="2" height="2" fill="#D5C9BB"/>
<rect x="22" y="9" width="2" height="2" fill="#D5C9BB"/>
<rect x="22" y="13" width="2" height="2" fill="#D5C9BB"/>
<rect x="22" y="17" width="2" height="2" fill="#D5C9BB"/>
<rect x="22" y="21" width="2" height="2" fill="#D5C9BB"/>
<rect x="22" y="25" width="2" height="2" fill="#D5C9BB"/>
<rect x="22" y="29" width="2" height="2" fill="#D5C9BB"/>
<rect x="34" y="16" width="2" height="2" fill="#D5C9BB"/>
<rect x="34" y="20" width="2" height="2" fill="#D5C9BB"/>
<rect x="34" y="24" width="2" height="2" fill="#D5C9BB"/>
<rect x="34" y="28" width="2" height="2" fill="#D5C9BB"/>
<rect x="34" y="32" width="2" height="2" fill="#D5C9BB"/>
<rect x="26" y="9" width="2" height="2" fill="#D5C9BB"/>
<rect x="26" y="13" width="2" height="2" fill="#D5C9BB"/>
<rect x="26" y="17" width="2" height="2" fill="#D5C9BB"/>
<rect x="26" y="21" width="2" height="2" fill="#D5C9BB"/>
<rect x="26" y="25" width="2" height="2" fill="#D5C9BB"/>
<rect x="26" y="29" width="2" height="2" fill="#D5C9BB"/>
<rect x="38" y="16" width="2" height="2" fill="#D5C9BB"/>
<rect x="38" y="20" width="2" height="2" fill="#D5C9BB"/>
<rect x="38" y="24" width="2" height="2" fill="#D5C9BB"/>
<rect x="38" y="28" width="2" height="2" fill="#D5C9BB"/>
<rect x="38" y="32" width="2" height="2" fill="#D5C9BB"/>
<rect x="46" y="46" width="2" height="2" fill="#D5C9BB"/>
<rect x="17" y="42" width="2" height="2" fill="#D5C9BB"/>
<rect x="21" y="42" width="8" height="2" fill="#D5C9BB"/>
<rect x="13" y="46" width="21" height="2" fill="#D5C9BB"/>
<path d="M30.4996 1H30.9996V0.25719L30.3114 0.536767L30.4996 1ZM14.4996 7.5L14.3114 7.03677L13.9996 7.16344V7.5H14.4996ZM42.9996 14.5H43.4996V14.1737L43.201 14.0423L42.9996 14.5ZM8.49962 45.5L8.07752 45.232L7.99962 45.3547V45.5H8.49962ZM21.9996 38L21.9776 38.4995L21.9996 38ZM38.4996 44L38.5494 43.5025L38.4996 44ZM46.9996 42.5L47.2232 42.0528L46.9839 41.9331L46.7516 42.0659L46.9996 42.5ZM50.9996 44.5H51.4996V44.191L51.2232 44.0528L50.9996 44.5ZM50.9996 51V51.5H51.4996V51H50.9996ZM8.49962 51H7.99962V51.5H8.49962V51ZM8.99962 33.5L8.51072 33.6048L8.99962 33.5ZM55 41.5L54.8626 41.9808L54.9747 42.0128L55.0894 41.9919L55 41.5ZM59 33.5L58.5111 33.6048L59 33.5ZM30.3114 0.536767L14.3114 7.03677L14.6878 7.96323L30.6878 1.46323L30.3114 0.536767ZM29.9996 1V9H30.9996V1H29.9996ZM30.2983 9.45766L42.7983 14.9577L43.201 14.0423L30.701 8.54234L30.2983 9.45766ZM13.9996 7.5V33.5H14.9996V7.5H13.9996ZM13.9996 33.5V40H14.9996V33.5H13.9996ZM29.9996 9V33.5H30.9996V9H29.9996ZM14.4996 34H30.4996V33H14.4996V34ZM29.9996 33.5V36.75H30.9996V33.5H29.9996ZM29.9996 36.75V40H30.9996V36.75H29.9996ZM42.4996 14.5V36.75H43.4996V14.5H42.4996ZM42.4996 36.75V44H43.4996V36.75H42.4996ZM30.4996 37.25H42.9996V36.25H30.4996V37.25ZM8.92173 45.768C9.72068 44.5097 11.3491 42.61 13.6069 41.0658C15.861 39.5242 18.7142 38.3555 21.9776 38.4995L22.0217 37.5005C18.485 37.3445 15.4216 38.6133 13.0424 40.2404C10.6668 41.865 8.94524 43.8653 8.07752 45.232L8.92173 45.768ZM21.9776 38.4995C26.1156 38.6821 28.9104 40.0159 31.3144 41.3874C33.6898 42.7426 35.8141 44.2339 38.4499 44.4975L38.5494 43.5025C36.1852 43.2661 34.3095 41.9449 31.8099 40.5188C29.3389 39.1091 26.3837 37.6929 22.0217 37.5005L21.9776 38.4995ZM38.4499 44.4975C42.565 44.909 46.0015 43.6462 47.2477 42.9341L46.7516 42.0659C45.6644 42.6871 42.4342 43.891 38.5494 43.5025L38.4499 44.4975ZM46.776 42.9472L50.776 44.9472L51.2232 44.0528L47.2232 42.0528L46.776 42.9472ZM50.4996 44.5V51H51.4996V44.5H50.4996ZM8.99962 51V45.5H7.99962V51H8.99962ZM29.2496 51V58.5H30.2496V51H29.2496ZM10.9996 50.5H8.49962V51.5H10.9996V50.5ZM10.4996 51V58.5H11.4996V51H10.4996ZM50.9996 50.5H48.9996V51.5H50.9996V50.5ZM48.4996 51V58.5H49.4996V51H48.4996ZM54.4996 38V58.5H55.4996V38H54.4996ZM4.49962 38V41.5H5.49962V38H4.49962ZM4.49962 41.5V58.5H5.49962V41.5H4.49962ZM5.08907 41.9919C6.11333 41.8057 7.53378 41.1461 8.54062 39.7703C9.55987 38.3775 10.113 36.3093 9.48853 33.3952L8.51072 33.6048C9.08629 36.2907 8.55605 38.0559 7.73362 39.1797C6.8988 40.3205 5.71925 40.861 4.91018 41.0081L5.08907 41.9919ZM9.48853 33.3952C8.73962 29.9003 8.10089 27.9436 7.42362 26.86C7.07562 26.3032 6.698 25.9439 6.26147 25.7361C5.83136 25.5313 5.39717 25.5 4.99962 25.5V26.5C5.35207 26.5 5.60539 26.5312 5.83153 26.6389C6.05125 26.7436 6.29863 26.9468 6.57562 27.39C7.14835 28.3064 7.75963 30.0997 8.51072 33.6048L9.48853 33.3952ZM4.99962 25.5C4.45876 25.5 3.94022 25.767 3.48494 26.161C3.02416 26.5597 2.58459 27.1248 2.1905 27.8144C1.40129 29.1956 0.758945 31.1384 0.502683 33.4448L1.49657 33.5552C1.7403 31.3616 2.34796 29.5544 3.05875 28.3106C3.41466 27.6877 3.78759 27.2215 4.13931 26.9171C4.49653 26.608 4.79049 26.5 4.99962 26.5V25.5ZM0.502683 33.4448C0.249242 35.7257 0.362988 37.5885 1.04819 39.0275C1.74861 40.4983 3.00826 41.451 4.86226 41.9808L5.13698 41.0192C3.49099 40.549 2.50064 39.7517 1.95105 38.5975C1.38626 37.4115 1.25001 35.7743 1.49657 33.5552L0.502683 33.4448ZM55.0894 41.9919C56.1137 41.8057 57.5342 41.1461 58.541 39.7703C59.5602 38.3775 60.1133 36.3093 59.4889 33.3952L58.5111 33.6048C59.0867 36.2907 58.5564 38.0559 57.734 39.1797C56.8992 40.3205 55.7196 40.861 54.9106 41.0081L55.0894 41.9919ZM59.4889 33.3952C58.74 29.9003 58.1013 27.9436 57.424 26.86C57.076 26.3032 56.6984 25.9439 56.2618 25.7361C55.8317 25.5313 55.3976 25.5 55 25.5V26.5C55.3524 26.5 55.6058 26.5312 55.8319 26.6389C56.0516 26.7436 56.299 26.9468 56.576 27.39C57.1487 28.3064 57.76 30.0997 58.5111 33.6048L59.4889 33.3952ZM55 25.5C54.4591 25.5 53.9406 25.767 53.4853 26.161C53.0245 26.5597 52.585 27.1248 52.1909 27.8144C51.4017 29.1956 50.7593 31.1384 50.5031 33.4448L51.4969 33.5552C51.7407 31.3616 52.3483 29.5544 53.0591 28.3106C53.415 27.6877 53.788 27.2215 54.1397 26.9171C54.4969 26.608 54.7909 26.5 55 26.5V25.5ZM50.5031 33.4448C50.2496 35.7257 50.3634 37.5885 51.0486 39.0275C51.749 40.4983 53.0086 41.451 54.8626 41.9808L55.1374 41.0192C53.4914 40.549 52.501 39.7517 51.9514 38.5975C51.3866 37.4115 51.2504 35.7743 51.4969 33.5552L50.5031 33.4448ZM14.4996 50.5H10.9996V51.5H14.4996V50.5ZM0 59H14.4996V58H0V59ZM29.7496 50.5H24V51.5H29.7496V50.5ZM24 50.5H14.4996V51.5H24V50.5ZM14.4996 59H24V58H14.4996V59ZM36 50.5H29.7496V51.5H36V50.5ZM24 59H36V58H24V59ZM48.9996 50.5H45V51.5H48.9996V50.5ZM45 50.5H36V51.5H45V50.5ZM36 59H45V58H36V59ZM45 59H60V58H45V59ZM44.5 51V58.5H45.5V51H44.5ZM35.5 51V54.75H36.5V51H35.5ZM35.5 54.75V58.5H36.5V54.75H35.5ZM36 55.25H44.5V54.25H36V55.25ZM13.9996 51V54.75H14.9996V51H13.9996ZM13.9996 54.75V58.5H14.9996V54.75H13.9996ZM23.5 51V54.75H24.5V51H23.5ZM23.5 54.75V58.5H24.5V54.75H23.5ZM14.4996 55.25H24V54.25H14.4996V55.25Z" fill="#D5C9BB"/>
</svg>
