<svg width="45" height="45" viewBox="0 0 45 45" fill="none" xmlns="http://www.w3.org/2000/svg">
<path d="M31.1841 19.6325V14.0428M31.1841 8.45312V14.0428M31.1841 14.0428L27.085 11.0616M31.1841 14.0428L35.2832 11.0616" stroke="#D5C9BB" stroke-linecap="round"/>
<path d="M31.1841 25.5946V31.1842M31.1841 36.7739V31.1842M31.1841 31.1842L27.085 34.1654M31.1841 31.1842L35.2832 34.1654" stroke="#D5C9BB" stroke-linecap="round"/>
<path d="M33.2654 24.1271L38.1116 26.9126M42.9577 29.6981L38.1116 26.9126M38.1116 26.9126L38.6535 31.952M38.1116 26.9126L42.7389 24.8443" stroke="#D5C9BB" stroke-linecap="round"/>
<path d="M33.4206 21.1227L38.1116 18.5186M42.9577 15.7331L38.1116 18.5186M38.1116 18.5186L38.6535 13.4791M38.1116 18.5186L42.7389 20.5868" stroke="#D5C9BB" stroke-linecap="round"/>
<path d="M28.7587 21.3044L24.4766 18.8872" stroke="#D5C9BB"/>
<path d="M28.7587 23.3587L24.4766 25.5947" stroke="#D5C9BB"/>
<path d="M10.3164 22.6137C10.3164 30.0981 16.1228 36.2263 23.4768 36.7394C24.0277 36.7779 24.4769 36.3265 24.4769 35.7742V9.45312C24.4769 8.90084 24.0277 8.44946 23.4768 8.4879C16.1228 9.00103 10.3164 15.1293 10.3164 22.6137Z" stroke="#D5C9BB"/>
<path d="M14.0426 1L16.2785 5.47175M5.84439 7.70762L9.57085 10.6888M1 17.3964L5.84439 18.5143M14.0426 44.2269L16.2785 39.7552M5.84439 37.5193L9.57085 34.5381M1 27.8305L5.84439 26.7126" stroke="#D5C9BB" stroke-linecap="round"/>
<circle cx="31.1843" cy="22.6135" r="2.48117" stroke="#D5C9BB"/>
</svg>
