<svg width="13" height="12" viewBox="0 0 13 12" fill="none" xmlns="http://www.w3.org/2000/svg">
<path d="M5.18863 9.18896V11.6087C5.18863 11.7777 5.29263 11.9275 5.44663 11.9807C5.48513 11.9937 5.52463 12 5.56363 12C5.68063 12 5.79363 11.9426 5.86563 11.8404L7.22212 9.91416L5.18863 9.18896Z" fill="white"/>
<path d="M12.656 0.0725657C12.541 -0.0124751 12.39 -0.023953 12.265 0.0443926L1.015 6.17463C0.881999 6.24715 0.803499 6.39532 0.814499 6.55132C0.825999 6.70783 0.925498 6.84139 1.067 6.892L4.19449 8.00744L10.855 2.06502L5.70098 8.5443L10.9425 10.4136C10.9815 10.4272 11.0225 10.4345 11.0635 10.4345C11.1315 10.4345 11.199 10.4152 11.2585 10.3776C11.3535 10.3171 11.418 10.2154 11.4345 10.1011L12.8095 0.449249C12.83 0.303167 12.771 0.158128 12.656 0.0725657Z" fill="white"/>
</svg>
