<svg width="46" height="45" viewBox="0 0 46 45" fill="none" xmlns="http://www.w3.org/2000/svg">
<path d="M23.3662 28.5002C24.9551 28.1336 28.4262 28.1336 29.5995 31.0669C31.0662 34.7336 33.6329 42.0669 37.6662 43.1669C40.2544 43.8727 42.2292 43.8394 43.4771 43.6724C43.9417 43.6103 44.2662 43.2001 44.2662 42.7314V40.9841C44.2662 40.3881 43.7484 39.9245 43.1525 39.9359C40.7404 39.982 37.0847 39.4371 35.8329 36.9335C33.9995 33.2669 33.6329 30.3335 31.7995 28.1335C29.9662 25.9335 27.7662 25.2002 25.5662 25.2002C23.8062 25.2002 23.6107 25.2002 23.7329 25.2002" stroke="#D5C9BB"/>
<path d="M23.3404 16.5617L14.5337 7.92057C14.1448 7.53895 13.5219 7.53895 13.133 7.92057L4.3263 16.5617C3.55861 17.3307 2.32169 17.3229 1.56356 16.5442C0.805435 15.7655 0.813188 14.5108 1.58088 13.7418L10.9909 4.23764C12.5561 2.65671 15.1106 2.65671 16.6758 4.23764L26.0858 13.7418C26.8535 14.5108 26.8612 15.7655 26.1031 16.5442C25.345 17.3229 24.1081 17.3307 23.3404 16.5617Z" stroke="#D5C9BB"/>
<path d="M29.4661 6.86667C29.4661 7.14281 29.6899 7.36667 29.9661 7.36667C30.2422 7.36667 30.4661 7.14281 30.4661 6.86667H29.4661ZM38.733 3.50029C38.8988 3.72108 39.2122 3.76563 39.433 3.59978C39.6538 3.43394 39.6984 3.12051 39.5325 2.89971L38.733 3.50029ZM39.0619 2.75702C38.7886 2.79612 38.5987 3.04942 38.6378 3.32278C38.6769 3.59614 38.9302 3.78605 39.2035 3.74695L39.0619 2.75702ZM30.0767 7.43591C30.346 7.3748 30.5148 7.10696 30.4537 6.83766C30.3926 6.56837 30.1247 6.3996 29.8554 6.4607L30.0767 7.43591ZM30.4661 6.86667C30.4661 4.0148 32.4205 1.5 35.0994 1.5V0.5C31.7032 0.5 29.4661 3.6434 29.4661 6.86667H30.4661ZM35.0994 1.5C36.697 1.5 37.7936 2.24967 38.733 3.50029L39.5325 2.89971C38.4651 1.47855 37.1006 0.5 35.0994 0.5V1.5ZM44.4994 8.33333C44.4994 9.66429 44.1316 10.8291 43.4726 11.6502C42.8232 12.4593 41.8674 12.9667 40.5994 12.9667V13.9667C42.1665 13.9667 43.4107 13.3249 44.2525 12.2761C45.0847 11.2393 45.4994 9.83744 45.4994 8.33333H44.4994ZM39.8661 3.7C42.425 3.7 44.4994 5.77441 44.4994 8.33333H45.4994C45.4994 5.22213 42.9773 2.7 39.8661 2.7V3.7ZM39.2035 3.74695C39.4197 3.71603 39.6409 3.7 39.8661 3.7V2.7C39.5933 2.7 39.3248 2.71942 39.0619 2.75702L39.2035 3.74695ZM30.3327 12.9667C29.5683 12.9667 28.9746 12.6618 28.5643 12.177C28.1472 11.6843 27.8994 10.9795 27.8994 10.1665H26.8994C26.8994 11.1761 27.2071 12.1214 27.801 12.8231C28.4016 13.5327 29.2746 13.9667 30.3327 13.9667V12.9667ZM27.8994 10.1665C27.8994 8.83462 28.8299 7.71884 30.0767 7.43591L29.8554 6.4607C28.1631 6.84471 26.8994 8.35745 26.8994 10.1665H27.8994ZM30.3327 13.9667H40.5994V12.9667H30.3327V13.9667Z" fill="#D5C9BB"/>
<path d="M17.3665 28.1331C17.3665 28.4093 17.5903 28.6331 17.8665 28.6331C18.1426 28.6331 18.3665 28.4093 18.3665 28.1331H17.3665ZM9.2998 28.1331C9.2998 28.4093 9.52366 28.6331 9.7998 28.6331C10.0759 28.6331 10.2998 28.4093 10.2998 28.1331H9.2998ZM17.3665 24.8331V28.1331H18.3665V24.8331H17.3665ZM10.2998 28.1331V24.8331H9.2998V28.1331H10.2998ZM13.8331 21.2998C15.7845 21.2998 17.3665 22.8817 17.3665 24.8331H18.3665C18.3665 22.3294 16.3368 20.2998 13.8331 20.2998V21.2998ZM13.8331 20.2998C11.3294 20.2998 9.2998 22.3294 9.2998 24.8331H10.2998C10.2998 22.8817 11.8817 21.2998 13.8331 21.2998V20.2998Z" fill="#D5C9BB"/>
<line x1="4.43359" y1="16.8999" x2="4.43359" y2="43.0332" stroke="#D5C9BB" stroke-linecap="round"/>
<line x1="23.5" y1="16.8999" x2="23.5" y2="43.0332" stroke="#D5C9BB" stroke-linecap="round"/>
<line x1="20.5664" y1="28.6333" x2="20.5664" y2="43.0333" stroke="#D5C9BB" stroke-linecap="round"/>
<line x1="6.63379" y1="28.6333" x2="6.63379" y2="43.0333" stroke="#D5C9BB" stroke-linecap="round"/>
<line x1="11.0332" y1="28.6333" x2="11.0332" y2="43.0333" stroke="#D5C9BB" stroke-linecap="round"/>
<line x1="16.9004" y1="28.6333" x2="16.9004" y2="43.0333" stroke="#D5C9BB" stroke-linecap="round"/>
<line x1="11.0332" y1="32.0332" x2="16.6332" y2="32.0332" stroke="#D5C9BB" stroke-linecap="round"/>
<line x1="11.0332" y1="35.7002" x2="16.6332" y2="35.7002" stroke="#D5C9BB" stroke-linecap="round"/>
<line x1="11.0332" y1="39.3667" x2="16.6332" y2="39.3667" stroke="#D5C9BB" stroke-linecap="round"/>
<line x1="4.43359" y1="28.3667" x2="23.2336" y2="28.3667" stroke="#D5C9BB" stroke-linecap="round"/>
<path d="M2.09961 42.6665C1.82347 42.6665 1.59961 42.8904 1.59961 43.1665C1.59961 43.4426 1.82347 43.6665 2.09961 43.6665V42.6665ZM37.2996 43.6665H37.7996V42.6665H37.2996V43.6665ZM2.09961 43.6665H37.2996V42.6665H2.09961V43.6665Z" fill="#D5C9BB"/>
<circle cx="13.8333" cy="15.3001" r="2.06667" stroke="#D5C9BB"/>
</svg>
