<svg width="60" height="60" viewBox="0 0 60 60" fill="none" xmlns="http://www.w3.org/2000/svg">
<rect x="41.6016" y="28.1221" width="1.93496" height="1.93496" fill="#D5C9BB"/>
<rect x="35.7969" y="21.3496" width="1.93496" height="1.93496" fill="#D5C9BB"/>
<rect x="43.5371" y="22.3174" width="1.93496" height="1.93496" fill="#D5C9BB"/>
<rect x="50.3086" y="27.1543" width="1.93496" height="1.93496" fill="#D5C9BB"/>
<rect x="53.2109" y="21.3496" width="1.93496" height="1.93496" fill="#D5C9BB"/>
<rect x="13.5449" y="44.5693" width="1.93496" height="1.93496" fill="#D5C9BB"/>
<rect x="4.83789" y="47.4717" width="1.93496" height="1.93496" fill="#D5C9BB"/>
<rect x="20.3164" y="49.4062" width="1.93496" height="1.93496" fill="#D5C9BB"/>
<path d="M52.2442 3.93496L52.0733 3.46506L51.8049 3.56268L51.7526 3.84351L52.2442 3.93496ZM53.2117 53.7602L53.6589 53.5366L53.5207 53.2602H53.2117V53.7602ZM32.8946 8.28862V7.78862H32.5042L32.4095 8.16735L32.8946 8.28862ZM57.0816 8.28862L57.5666 8.16735L57.472 7.78862H57.0816V8.28862ZM57.3944 1.5301L52.0733 3.46506L52.415 4.40486L57.7362 2.4699L57.3944 1.5301ZM51.7526 3.84351L47.8827 24.6443L48.8658 24.8272L52.7357 4.02641L51.7526 3.84351ZM44.4881 34.4106V53.7602H45.4881V34.4106H44.4881ZM39.6669 54.2602H53.2117V53.2602H39.6669V54.2602ZM52.7644 53.9838L54.6994 57.8537L55.5938 57.4065L53.6589 53.5366L52.7644 53.9838ZM59.5003 57.1301H35.3133V58.1301H59.5003V57.1301ZM31.9271 18.9472H58.5328V17.9472H31.9271V18.9472ZM32.8946 8.78862H57.0816V7.78862H32.8946V8.78862ZM56.5965 8.40989C57.0752 10.3247 58.0328 15.2147 58.0328 19.4146H59.0328C59.0328 15.1007 58.0554 10.1225 57.5666 8.16735L56.5965 8.40989ZM58.0328 19.4146C58.0328 21.9764 57.0948 25.6237 54.98 28.6197C52.8773 31.5986 49.6318 33.9106 44.9881 33.9106V34.9106C50.0192 34.9106 53.546 32.3852 55.797 29.1964C58.0358 26.0246 59.0328 22.174 59.0328 19.4146H58.0328ZM32.4095 8.16735C31.9207 10.1225 30.9434 15.1007 30.9434 19.4146H31.9434C31.9434 15.2147 32.9009 10.3247 33.3797 8.40989L32.4095 8.16735ZM30.9434 19.4146C30.9434 22.174 31.9403 26.0246 34.1792 29.1964C36.4301 32.3852 39.957 34.9106 44.9881 34.9106V33.9106C40.3444 33.9106 37.0989 31.5986 34.9962 28.6197C32.8814 25.6237 31.9434 21.9764 31.9434 19.4146H30.9434Z" fill="#D5C9BB"/>
<rect x="12.4406" y="36.5346" width="10.9195" height="10.9195" rx="2.5" transform="rotate(27.2163 12.4406 36.5346)" stroke="#D5C9BB"/>
<path d="M33.0597 43.6016C32.9527 43.9042 32.8945 44.2298 32.8945 44.569C32.8945 46.172 34.194 47.4715 35.797 47.4715C35.9618 47.4715 36.1234 47.4577 36.2807 47.4314" stroke="#D5C9BB"/>
<path d="M26.1209 40.6989C27.7379 39.4843 29.7478 38.7646 31.9258 38.7646C37.269 38.7646 41.6006 43.0962 41.6006 48.4394C41.6006 53.7827 37.269 58.1142 31.9258 58.1142C29.2194 58.1142 26.7725 57.003 25.0166 55.2118" stroke="#D5C9BB"/>
<path d="M2.39503 53.7439L0.5434 31.5244H26.546L24.6944 53.7439H2.39503Z" stroke="#D5C9BB"/>
<rect x="2.43555" y="53.7764" width="22.2195" height="3.8374" stroke="#D5C9BB"/>
<path d="M1.45117 42.6338H25.6382" stroke="#D5C9BB"/>
</svg>
