<svg width="60" height="61" viewBox="0 0 60 61" fill="none" xmlns="http://www.w3.org/2000/svg">
<path d="M8 11.5L24 8M35 5L52.5 1M25.0794 10.3995L28.0794 12.8995C29.192 13.8267 30.808 13.8267 31.9206 12.8995L34.9206 10.3995C35.6045 9.82956 36 8.98521 36 8.09488V7C36 5.34315 34.6569 4 33 4H27C25.3431 4 24 5.34315 24 7V8.09488C24 8.98521 24.3955 9.82956 25.0794 10.3995Z" stroke="#D5C9BB"/>
<path d="M23.9986 19.9585C23.9232 19.0534 24.1304 17.6833 24.9866 16.5517C25.8244 15.4445 27.3331 14.5 30.0004 14.5V13.5C27.0676 13.5 25.243 14.5555 24.1891 15.9483C23.1537 17.3167 22.9108 18.9466 23.0021 20.0415L23.9986 19.9585ZM30.0004 14.5C32.6599 14.5 34.1702 15.4804 35.0116 16.611C35.8729 17.7683 36.0761 19.141 36.0021 19.9547L36.9979 20.0453C37.0907 19.0257 36.8441 17.3984 35.8138 16.014C34.7637 14.6029 32.9408 13.5 30.0004 13.5V14.5Z" fill="#D5C9BB"/>
<rect x="7.5" y="20.5" width="45" height="40" rx="5.5" stroke="#D5C9BB"/>
<rect x="11.5" y="24.5" width="17" height="19" rx="3.5" stroke="#D5C9BB"/>
<rect x="31.5" y="24.5" width="17" height="19" rx="3.5" stroke="#D5C9BB"/>
</svg>
