<svg width="131" height="39" viewBox="0 0 131 39" fill="none" xmlns="http://www.w3.org/2000/svg">
<g clip-path="url(#clip0_265_2451)">
<path d="M13.9 16.5C15.5 16.5 17.1 16.6 18.6 16.7C18.4 9 17 5 16 5C15.3 5 14.3 6.9 13.7 11.2C13.7 11.5 13.4 11.7 13.1 11.7C12.9 11.7 12.8 11.6 12.7 11.5C12.6 11.4 12.5 11.2 12.6 11C13 8.3 13.7 6.1 14.4 4.7L14.5 4.6C14.2 4.6 13.9 4.6 13.6 4.6C6 4.6 0 10.6 0 18C0 18.1 0 18.2 0 18.4C0.1 18.4 0.1 18.4 0.2 18.3C2.9 17.2 8.2 16.5 13.9 16.5Z" fill="white"/>
<path d="M18.1998 24C18.0998 23.9 17.9998 23.9 17.8998 23.9C16.5998 24 15.1998 24 13.8998 24C8.7998 24 3.8998 23.4 0.999805 22.5C0.899805 22.5 0.899805 22.5 0.799805 22.4C2.5998 27.7 7.5998 31.4 13.4998 31.4C14.7998 31.4 15.9998 31.2 17.1998 30.9C17.5998 29.7 18.2998 26.4 18.3998 24.2C18.2998 24.2 18.2998 24.1 18.1998 24Z" fill="white"/>
<path d="M14.1 17.6C5.8 17.6 1.5 19 1.5 19.7C1.5 20.4 5.8 21.8 14.1 21.8C15.4 21.8 16.7 21.8 17.9 21.7C18.3 21.7 18.6 21.4 18.6 21C18.6 20.2 18.6 19.3 18.6 18.5C18.6 18.2 18.6 18 18.6 17.7C17.1 17.7 15.6 17.6 14.1 17.6Z" fill="white"/>
<path d="M26.0996 22.6C24.7996 23 22.9996 23.5 21.5996 23.7C21.2996 23.7 20.9996 24 20.9996 24.3C20.8996 25.9 20.4996 28.3 20.0996 29.7C22.8996 28.1 24.9996 25.6 26.0996 22.6Z" fill="white"/>
<path d="M21.1998 21C21.1998 21.1 21.1998 21.2 21.2998 21.3C21.3998 21.4 21.4998 21.4 21.5998 21.4C23.6998 21.1 25.6998 20.7 26.6998 20.2C26.7998 19.5 26.8998 18.8 26.8998 18C26.8998 17.6 26.8998 17.2 26.7998 16.9C26.7998 16.8 26.7998 16.7 26.7998 16.6C26.7998 16.2 26.6998 15.9 26.5998 15.5C26.5998 15.3 26.4998 15.2 26.4998 15C26.2998 14.3 26.0998 13.6 25.7998 12.9C25.7998 12.9 25.7998 12.9 25.7998 12.8C24.4998 9.8 22.1998 7.4 19.2998 5.9C20.5998 8.9 21.1998 14 21.1998 19.2C21.1998 19.8 21.1998 20.4 21.1998 21Z" fill="white"/>
<path d="M42.8 9.5C40.9 9.5 40 10.3 39.6 11.4H36.2C36.7 8.8 39 6.6 42.9 6.6C46.8 6.6 49.4 8.7 49.4 12.4V22.9H46.1V21.1C45 22.5 43.2 23.3 41.1 23.3C38 23.3 35.5 21.4 35.5 18.3C35.5 15.1 37.9 13.2 41.9 13.2H45.8V12.3C45.9 10.5 44.5 9.5 42.8 9.5ZM45.9 16.9V15.9H42.3C40.5 15.9 39.2 16.7 39.2 18.1C39.2 19.5 40.3 20.3 41.9 20.3C44 20.4 45.9 19.1 45.9 16.9Z" fill="white"/>
<path d="M52.9004 20.2L61.2004 10.1H52.9004V6.9H65.7004V9.7L57.4004 19.8H65.7004V22.9H52.9004V20.2Z" fill="white"/>
<path d="M73.3004 2.2C73.3004 3.5 72.3004 4.4 71.1004 4.4C69.9004 4.4 68.9004 3.5 68.9004 2.2C68.9004 1 69.9004 0 71.1004 0C72.4004 0 73.3004 0.9 73.3004 2.2ZM72.9004 22.9H69.3004V6.9H72.9004V22.9Z" fill="white"/>
<path d="M100.8 12.7V23H97.2002V13.3C97.2002 10.9 95.8002 9.8 94.1002 9.8C92.4002 9.8 90.8002 11 90.8002 13.3V22.9H87.2002V13.2C87.2002 10.8 85.8002 9.7 84.1002 9.7C82.4002 9.7 80.8002 10.9 80.8002 13.2V22.8H77.2002V6.8H80.7002V8.7C81.6002 7.3 83.3002 6.4 85.2002 6.4C87.0002 6.4 88.8002 7.2 89.9002 9C90.9002 7.5 92.9002 6.4 95.1002 6.4C97.9002 6.6 100.8 8.3 100.8 12.7Z" fill="white"/>
<path d="M115.5 22.9V21C114.7 22.1 113.1 23.2 110.8 23.2C107.7 23.2 104.9 21.4 104.9 17V6.9H108.5V16.4C108.5 18.9 109.8 20.1 111.8 20.1C113.6 20.1 115.4 19 115.4 16.2V6.9H119V22.9H115.5Z" fill="white"/>
<path d="M130 19.8H131V23H129.4C125.9 23 124.1 21.5 124.1 17.8V10H121.5V7H124.1V2.8H127.7V7H131V10H127.7V17.5C127.7 19.4 128.7 19.8 130 19.8Z" fill="white"/>
<path d="M40.4004 32.5H41.4004V38.8H40.4004V36H37.4004V38.8H36.4004V32.5H37.4004V35.2H40.4004V32.5Z" fill="white"/>
<path d="M43.4006 38C42.9006 37.4 42.6006 36.6 42.6006 35.6C42.6006 34.6 42.9006 33.8 43.4006 33.2C43.9006 32.6 44.6006 32.3 45.5006 32.3C46.4006 32.3 47.1006 32.6 47.6006 33.2C48.1006 33.8 48.4006 34.6 48.4006 35.6C48.4006 36.6 48.1006 37.4 47.6006 38C47.1006 38.6 46.4006 38.9 45.5006 38.9C44.6006 38.9 43.9006 38.6 43.4006 38ZM44.1006 33.9C43.8006 34.4 43.6006 34.9 43.6006 35.7C43.6006 36.4 43.8006 37 44.1006 37.5C44.4006 38 44.9006 38.2 45.5006 38.2C46.1006 38.2 46.6006 38 46.9006 37.5C47.2006 37 47.4006 36.5 47.4006 35.7C47.4006 35 47.2006 34.4 46.9006 33.9C46.6006 33.4 46.1006 33.2 45.5006 33.2C44.9006 33.2 44.5006 33.4 44.1006 33.9Z" fill="white"/>
<path d="M48.9004 33.3V32.5H53.8004V33.3H51.8004V38.8H50.8004V33.3H48.9004Z" fill="white"/>
<path d="M54.9004 38.8V32.5H59.3004V33.3H55.9004V35.2H58.5004V36H55.9004V38H59.4004V38.8H54.9004Z" fill="white"/>
<path d="M60.7002 38.8V32.5H61.7002V38H64.7002V38.8H60.7002Z" fill="white"/>
<path d="M65.3008 36.8H66.2008C66.2008 37.7 66.8008 38.1 67.8008 38.1C68.2008 38.1 68.5008 38 68.8008 37.9C69.1008 37.8 69.2008 37.5 69.2008 37.2C69.2008 37 69.1008 36.8 69.0008 36.6C68.9008 36.4 68.6008 36.3 68.2008 36.2L66.9008 35.8C66.0008 35.5 65.6008 35 65.6008 34.1C65.6008 33.5 65.8008 33.1 66.2008 32.8C66.6008 32.5 67.1008 32.4 67.8008 32.4C68.5008 32.4 69.0008 32.6 69.5008 32.9C69.9008 33.2 70.2008 33.7 70.2008 34.3L69.3008 34.4C69.3008 34 69.1008 33.8 68.9008 33.6C68.7008 33.4 68.3008 33.3 67.9008 33.3C67.5008 33.3 67.3008 33.4 67.0008 33.5C66.8008 33.7 66.7008 33.9 66.7008 34.1C66.7008 34.5 67.0008 34.8 67.6008 35L68.9008 35.4C69.4008 35.6 69.8008 35.8 70.0008 36C70.2008 36.2 70.4008 36.6 70.4008 37.1C70.4008 37.7 70.2008 38.1 69.8008 38.5C69.4008 38.8 68.8008 38.9 68.0008 38.9C67.2008 38.9 66.6008 38.7 66.2008 38.4C65.6008 38 65.3008 37.5 65.3008 36.8Z" fill="white"/>
</g>
<defs>
<clipPath id="clip0_265_2451">
<rect width="131" height="38.9" fill="white"/>
</clipPath>
</defs>
</svg>
